Chivo-Black.ufo
<glyph name="exclam" format="1">
  <advance width="311"/>
  <unicode hex="0021"/>
  <outline>
    <contour>
      <point x="218" y="231" type="line"/>
      <point x="91" y="231" type="line"/>
      <point x="37" y="686" type="line"/>
      <point x="275" y="686" type="line"/>
    </contour>
    <contour>
      <point x="252" y="0" type="line"/>
      <point x="61" y="0" type="line"/>
      <point x="61" y="183" type="line"/>
      <point x="252" y="183" type="line"/>
    </contour>
  </outline>
</glyph>
<glyph name="quotedbl" format="1">
  <advance width="434"/>
  <unicode hex="0022"/>
  <outline>
    <contour>
      <point x="193" y="539" type="line"/>
      <point x="146" y="396" type="line"/>
      <point x="85" y="396" type="line"/>
      <point x="38" y="539" type="line"/>
      <point x="38" y="686" type="line"/>
      <point x="193" y="686" type="line"/>
    </contour>
    <contour>
      <point x="396" y="539" type="line"/>
      <point x="348" y="396" type="line"/>
      <point x="288" y="396" type="line"/>
      <point x="241" y="539" type="line"/>
      <point x="241" y="686" type="line"/>
      <point x="396" y="686" type="line"/>
    </contour>
  </outline>
</glyph>
<glyph name="numbersign" format="1">
  <advance width="662"/>
  <unicode hex="0023"/>
  <outline>
    <contour>
      <point x="542" y="502" type="line"/>
      <point x="633" y="502" type="line"/>
      <point x="633" y="394" type="line"/>
      <point x="523" y="394" type="line"/>
      <point x="497" y="273" type="line"/>
      <point x="601" y="273" type="line"/>
      <point x="601" y="166" type="line"/>
      <point x="470" y="166" type="line"/>
      <point x="434" y="0" type="line"/>
      <point x="318" y="0" type="line"/>
      <point x="354" y="166" type="line"/>
      <point x="242" y="166" type="line"/>
      <point x="207" y="0" type="line"/>
      <point x="90" y="0" type="line"/>
      <point x="125" y="166" type="line"/>
      <point x="27" y="166" type="line"/>
      <point x="27" y="273" type="line"/>
      <point x="150" y="273" type="line"/>
      <point x="178" y="394" type="line"/>
      <point x="72" y="394" type="line"/>
      <point x="72" y="502" type="line"/>
      <point x="199" y="502" type="line"/>
      <point x="242" y="696" type="line"/>
      <point x="361" y="696" type="line"/>
      <point x="317" y="502" type="line"/>
      <point x="427" y="502" type="line"/>
      <point x="470" y="696" type="line"/>
      <point x="587" y="696" type="line"/>
    </contour>
    <contour>
      <point x="293" y="393" type="line"/>
      <point x="266" y="272" type="line"/>
      <point x="379" y="272" type="line"/>
      <point x="407" y="393" type="line"/>
    </contour>
  </outline>
</glyph>
<glyph name="dollar" format="1">
  <advance width="600"/>
  <unicode hex="0024"/>
  <outline>
    <contour>
      <point x="355" y="757" type="line"/>
      <point x="340" y="674" type="line"/>
      <point x="461" y="663"/>
      <point x="556" y="603"/>
      <point x="556" y="480" type="curve" smooth="yes"/>
      <point x="556" y="469" type="line"/>
      <point x="383" y="469" type="line"/>
      <point x="383" y="473" type="line" smooth="yes"/>
      <point x="383" y="504"/>
      <point x="363" y="534"/>
      <point x="308" y="534" type="curve" smooth="yes"/>
      <point x="257" y="534"/>
      <point x="233" y="518"/>
      <point x="233" y="495" type="curve" smooth="yes"/>
      <point x="233" y="463"/>
      <point x="271" y="452"/>
      <point x="320" y="440" type="curve" smooth="yes"/>
      <point x="400" y="420" type="line" smooth="yes"/>
      <point x="484" y="401"/>
      <point x="568" y="355"/>
      <point x="568" y="241" type="curve" smooth="yes"/>
      <point x="568" y="100"/>
      <point x="479" y="32"/>
      <point x="340" y="21" type="curve"/>
      <point x="355" y="-66" type="line"/>
      <point x="227" y="-66" type="line"/>
      <point x="242" y="22" type="line"/>
      <point x="125" y="35"/>
      <point x="28" y="99"/>
      <point x="28" y="224" type="curve" smooth="yes"/>
      <point x="28" y="234" type="line" smooth="yes"/>
      <point x="28" y="238"/>
      <point x="28" y="242"/>
      <point x="29" y="246" type="curve"/>
      <point x="204" y="246" type="line"/>
      <point x="203" y="235" type="line" smooth="yes"/>
      <point x="203" y="202"/>
      <point x="221" y="169"/>
      <point x="287" y="169" type="curve" smooth="yes"/>
      <point x="360" y="169"/>
      <point x="373" y="188"/>
      <point x="373" y="208" type="curve" smooth="yes"/>
      <point x="373" y="238"/>
      <point x="336" y="251"/>
      <point x="287" y="262" type="curve" smooth="yes"/>
      <point x="208" y="280" type="line" smooth="yes"/>
      <point x="125" y="301"/>
      <point x="42" y="350"/>
      <point x="42" y="472" type="curve" smooth="yes"/>
      <point x="42" y="586"/>
      <point x="127" y="655"/>
      <point x="242" y="671" type="curve"/>
      <point x="227" y="757" type="line"/>
    </contour>
  </outline>
</glyph>
<glyph name="percent" format="1">
  <advance width="713"/>
  <unicode hex="0025"/>
  <outline>
    <contour>
      <point x="195" y="0" type="line"/>
      <point x="100" y="0" type="line"/>
      <point x="519" y="686" type="line"/>
      <point x="612" y="686" type="line"/>
    </contour>
    <contour>
      <point x="150" y="685" type="curve" smooth="yes"/>
      <point x="172" y="685" type="line" smooth="yes"/>
      <point x="240" y="685"/>
      <point x="296" y="630"/>
      <point x="296" y="562" type="curve" smooth="yes"/>
      <point x="296" y="460" type="line" smooth="yes"/>
      <point x="296" y="392"/>
      <point x="240" y="337"/>
      <point x="172" y="337" type="curve" smooth="yes"/>
      <point x="150" y="337" type="line" smooth="yes"/>
      <point x="82" y="337"/>
      <point x="27" y="392"/>
      <point x="27" y="460" type="curve" smooth="yes"/>
      <point x="27" y="562" type="line" smooth="yes"/>
      <point x="27" y="630"/>
      <point x="82" y="685"/>
    </contour>
    <contour>
      <point x="161" y="614" type="curve" smooth="yes"/>
      <point x="141" y="614"/>
      <point x="124" y="598"/>
      <point x="124" y="575" type="curve" smooth="yes"/>
      <point x="124" y="448" type="line" smooth="yes"/>
      <point x="124" y="425"/>
      <point x="141" y="409"/>
      <point x="161" y="409" type="curve" smooth="yes"/>
      <point x="182" y="409"/>
      <point x="198" y="425"/>
      <point x="198" y="448" type="curve" smooth="yes"/>
      <point x="198" y="575" type="line" smooth="yes"/>
      <point x="198" y="598"/>
      <point x="182" y="614"/>
    </contour>
    <contour>
      <point x="540" y="348" type="curve" smooth="yes"/>
      <point x="562" y="348" type="line" smooth="yes"/>
      <point x="630" y="348"/>
      <point x="686" y="293"/>
      <point x="686" y="225" type="curve" smooth="yes"/>
      <point x="686" y="123" type="line" smooth="yes"/>
      <point x="686" y="55"/>
      <point x="630" y="-1"/>
      <point x="562" y="-1" type="curve" smooth="yes"/>
      <point x="540" y="-1" type="line" smooth="yes"/>
      <point x="472" y="-1"/>
      <point x="417" y="55"/>
      <point x="417" y="123" type="curve" smooth="yes"/>
      <point x="417" y="225" type="line" smooth="yes"/>
      <point x="417" y="293"/>
      <point x="472" y="348"/>
    </contour>
    <contour>
      <point x="551" y="277" type="curve" smooth="yes"/>
      <point x="531" y="277"/>
      <point x="514" y="260"/>
      <point x="514" y="237" type="curve" smooth="yes"/>
      <point x="514" y="110" type="line" smooth="yes"/>
      <point x="514" y="89"/>
      <point x="531" y="71"/>
      <point x="551" y="71" type="curve" smooth="yes"/>
      <point x="572" y="71"/>
      <point x="588" y="89"/>
      <point x="588" y="110" type="curve" smooth="yes"/>
      <point x="588" y="237" type="line" smooth="yes"/>
      <point x="588" y="260"/>
      <point x="572" y="277"/>
    </contour>
  </outline>
</glyph>
<glyph name="ampersand" format="1">
  <advance width="729"/>
  <unicode hex="0026"/>
  <outline>
    <contour>
      <point x="295" y="696" type="curve" smooth="yes"/>
      <point x="312" y="696"/>
      <point x="329" y="695"/>
      <point x="345" y="693" type="curve"/>
      <point x="345" y="543" type="line"/>
      <point x="335" y="546"/>
      <point x="325" y="548"/>
      <point x="316" y="548" type="curve" smooth="yes"/>
      <point x="277" y="548"/>
      <point x="243" y="525"/>
      <point x="243" y="484" type="curve" smooth="yes"/>
      <point x="243" y="461"/>
      <point x="260" y="421"/>
      <point x="307" y="421" type="curve" smooth="yes"/>
      <point x="428" y="421" type="line"/>
      <point x="482" y="540" type="line"/>
      <point x="619" y="540" type="line"/>
      <point x="619" y="421" type="line"/>
      <point x="699" y="421" type="line"/>
      <point x="699" y="279" type="line"/>
      <point x="619" y="279" type="line"/>
      <point x="619" y="0" type="line"/>
      <point x="300" y="0" type="line" smooth="yes"/>
      <point x="160" y="0"/>
      <point x="28" y="42"/>
      <point x="28" y="197" type="curve" smooth="yes"/>
      <point x="28" y="282"/>
      <point x="71" y="334"/>
      <point x="151" y="358" type="curve"/>
      <point x="84" y="379"/>
      <point x="49" y="438"/>
      <point x="49" y="506" type="curve" smooth="yes"/>
      <point x="49" y="635"/>
      <point x="175" y="696"/>
    </contour>
    <contour>
      <point x="421" y="279" type="line"/>
      <point x="307" y="279" type="line" smooth="yes"/>
      <point x="243" y="279"/>
      <point x="227" y="233"/>
      <point x="227" y="210" type="curve" smooth="yes"/>
      <point x="227" y="161"/>
      <point x="268" y="138"/>
      <point x="312" y="138" type="curve" smooth="yes"/>
      <point x="421" y="138" type="line"/>
    </contour>
  </outline>
</glyph>
<glyph name="quotesingle" format="1">
  <advance width="231"/>
  <unicode hex="0027"/>
  <outline>
    <contour>
      <point x="193" y="539" type="line"/>
      <point x="146" y="396" type="line"/>
      <point x="85" y="396" type="line"/>
      <point x="38" y="539" type="line"/>
      <point x="38" y="686" type="line"/>
      <point x="193" y="686" type="line"/>
    </contour>
  </outline>
</glyph>
<glyph name="parenleft" format="1">
  <advance width="313"/>
  <unicode hex="0028"/>
  <outline>
    <contour>
      <point x="189" y="686" type="curve"/>
      <point x="297" y="686" type="line"/>
      <point x="231" y="569"/>
      <point x="186" y="400"/>
      <point x="186" y="265" type="curve" smooth="yes"/>
      <point x="186" y="132"/>
      <point x="230" y="-43"/>
      <point x="297" y="-158" type="curve"/>
      <point x="189" y="-158" type="line"/>
      <point x="86" y="-41"/>
      <point x="30" y="108"/>
      <point x="30" y="264" type="curve" smooth="yes"/>
      <point x="30" y="420"/>
      <point x="86" y="569"/>
    </contour>
  </outline>
</glyph>
<glyph name="parenright" format="1">
  <advance width="313"/>
  <unicode hex="0029"/>
  <outline>
    <contour>
      <point x="16" y="686" type="curve"/>
      <point x="124" y="686" type="line"/>
      <point x="227" y="569"/>
      <point x="283" y="420"/>
      <point x="283" y="264" type="curve" smooth="yes"/>
      <point x="283" y="108"/>
      <point x="227" y="-41"/>
      <point x="124" y="-158" type="curve"/>
      <point x="16" y="-158" type="line"/>
      <point x="83" y="-43"/>
      <point x="127" y="132"/>
      <point x="127" y="265" type="curve" smooth="yes"/>
      <point x="127" y="400"/>
      <point x="82" y="569"/>
    </contour>
  </outline>
</glyph>
<glyph name="asterisk" format="1">
  <advance width="506"/>
  <unicode hex="002A"/>
  <outline>
    <contour>
      <point x="297" y="533" type="line"/>
      <point x="445" y="593" type="line"/>
      <point x="480" y="483" type="line"/>
      <point x="330" y="448" type="line"/>
      <point x="430" y="335" type="line"/>
      <point x="330" y="265" type="line"/>
      <point x="251" y="396" type="line"/>
      <point x="173" y="265" type="line"/>
      <point x="73" y="335" type="line"/>
      <point x="173" y="448" type="line"/>
      <point x="26" y="483" type="line"/>
      <point x="65" y="593" type="line"/>
      <point x="205" y="533" type="line"/>
      <point x="192" y="686" type="line"/>
      <point x="312" y="686" type="line"/>
    </contour>
  </outline>
</glyph>
<glyph name="plus" format="1">
  <advance width="615"/>
  <unicode hex="002B"/>
  <outline>
    <contour>
      <point x="371" y="320" type="line"/>
      <point x="563" y="320" type="line"/>
      <point x="563" y="192" type="line"/>
      <point x="371" y="192" type="line"/>
      <point x="371" y="0" type="line"/>
      <point x="243" y="0" type="line"/>
      <point x="243" y="192" type="line"/>
      <point x="51" y="192" type="line"/>
      <point x="51" y="320" type="line"/>
      <point x="243" y="320" type="line"/>
      <point x="243" y="512" type="line"/>
      <point x="371" y="512" type="line"/>
    </contour>
  </outline>
</glyph>
<glyph name="hyphen" format="1">
  <advance width="352"/>
  <unicode hex="002D"/>
  <outline>
    <contour>
      <point x="303" y="196" type="line"/>
      <point x="49" y="196" type="line"/>
      <point x="49" y="354" type="line"/>
      <point x="303" y="354" type="line"/>
    </contour>
  </outline>
</glyph>
<glyph name="slash" format="1">
  <advance width="652"/>
  <unicode hex="002F"/>
  <outline>
    <contour>
      <point x="148" y="-171" type="line"/>
      <point x="16" y="-171" type="line"/>
      <point x="506" y="686" type="line"/>
      <point x="637" y="686" type="line"/>
    </contour>
  </outline>
</glyph>
<glyph name="zero" format="1">
  <advance width="615"/>
  <unicode hex="0030"/>
  <outline>
    <contour>
      <point x="285" y="696" type="curve" smooth="yes"/>
      <point x="330" y="696" type="line" smooth="yes"/>
      <point x="469" y="696"/>
      <point x="580" y="585"/>
      <point x="580" y="446" type="curve" smooth="yes"/>
      <point x="580" y="240" type="line" smooth="yes"/>
      <point x="580" y="101"/>
      <point x="469" y="-10"/>
      <point x="330" y="-10" type="curve" smooth="yes"/>
      <point x="285" y="-10" type="line" smooth="yes"/>
      <point x="146" y="-10"/>
      <point x="35" y="101"/>
      <point x="35" y="240" type="curve" smooth="yes"/>
      <point x="35" y="446" type="line" smooth="yes"/>
      <point x="35" y="585"/>
      <point x="146" y="696"/>
    </contour>
    <contour>
      <point x="308" y="552" type="curve" smooth="yes"/>
      <point x="265" y="552"/>
      <point x="233" y="516"/>
      <point x="233" y="472" type="curve" smooth="yes"/>
      <point x="233" y="215" type="line" smooth="yes"/>
      <point x="233" y="171"/>
      <point x="266" y="135"/>
      <point x="307" y="135" type="curve" smooth="yes"/>
      <point x="350" y="135"/>
      <point x="382" y="171"/>
      <point x="382" y="215" type="curve" smooth="yes"/>
      <point x="382" y="472" type="line" smooth="yes"/>
      <point x="382" y="516"/>
      <point x="349" y="552"/>
    </contour>
  </outline>
</glyph>
<glyph name="one" format="1">
  <advance width="615"/>
  <unicode hex="0031"/>
  <outline>
    <contour>
      <point x="421" y="153" type="line"/>
      <point x="567" y="153" type="line"/>
      <point x="567" y="0" type="line"/>
      <point x="73" y="0" type="line"/>
      <point x="73" y="153" type="line"/>
      <point x="225" y="153" type="line"/>
      <point x="225" y="473" type="line"/>
      <point x="73" y="473" type="line"/>
      <point x="73" y="588" type="line"/>
      <point x="162" y="593"/>
      <point x="280" y="646"/>
      <point x="354" y="696" type="curve"/>
      <point x="421" y="696" type="line"/>
    </contour>
  </outline>
</glyph>
<glyph name="two" format="1">
  <advance width="615"/>
  <unicode hex="0032"/>
  <outline>
    <contour>
      <point x="293" y="696" type="curve" smooth="yes"/>
      <point x="324" y="696" type="line" smooth="yes"/>
      <point x="472" y="696"/>
      <point x="569" y="604"/>
      <point x="569" y="474" type="curve" smooth="yes"/>
      <point x="569" y="372"/>
      <point x="514" y="312"/>
      <point x="416" y="244" type="curve" smooth="yes"/>
      <point x="307" y="168" type="line"/>
      <point x="570" y="168" type="line"/>
      <point x="570" y="0" type="line"/>
      <point x="35" y="0" type="line"/>
      <point x="35" y="36" type="line" smooth="yes"/>
      <point x="35" y="112"/>
      <point x="55" y="162"/>
      <point x="115" y="209" type="curve" smooth="yes"/>
      <point x="313" y="365" type="line" smooth="yes"/>
      <point x="352" y="396"/>
      <point x="367" y="433"/>
      <point x="367" y="470" type="curve" smooth="yes"/>
      <point x="367" y="509"/>
      <point x="336" y="540"/>
      <point x="297" y="540" type="curve" smooth="yes"/>
      <point x="284" y="540" type="line" smooth="yes"/>
      <point x="245" y="540"/>
      <point x="214" y="510"/>
      <point x="214" y="470" type="curve" smooth="yes"/>
      <point x="214" y="442" type="line"/>
      <point x="38" y="442" type="line"/>
      <point x="38" y="461" type="line" smooth="yes"/>
      <point x="38" y="592"/>
      <point x="130" y="696"/>
    </contour>
  </outline>
</glyph>
<glyph name="three" format="1">
  <advance width="615"/>
  <unicode hex="0033"/>
  <outline>
    <contour>
      <point x="294" y="696" type="curve" smooth="yes"/>
      <point x="324" y="696" type="line" smooth="yes"/>
      <point x="467" y="696"/>
      <point x="564" y="612"/>
      <point x="564" y="510" type="curve" smooth="yes"/>
      <point x="564" y="441"/>
      <point x="528" y="383"/>
      <point x="469" y="359" type="curve"/>
      <point x="542" y="334"/>
      <point x="584" y="274"/>
      <point x="584" y="189" type="curve" smooth="yes"/>
      <point x="584" y="79"/>
      <point x="492" y="-10"/>
      <point x="324" y="-10" type="curve" smooth="yes"/>
      <point x="282" y="-10" type="line" smooth="yes"/>
      <point x="114" y="-10"/>
      <point x="22" y="79"/>
      <point x="22" y="188" type="curve" smooth="yes"/>
      <point x="22" y="209" type="line"/>
      <point x="198" y="209" type="line"/>
      <point x="198" y="170"/>
      <point x="222" y="139"/>
      <point x="278" y="139" type="curve" smooth="yes"/>
      <point x="305" y="139" type="line" smooth="yes"/>
      <point x="358" y="139"/>
      <point x="385" y="170"/>
      <point x="385" y="217" type="curve" smooth="yes"/>
      <point x="385" y="266"/>
      <point x="354" y="289"/>
      <point x="315" y="289" type="curve" smooth="yes"/>
      <point x="211" y="289" type="line"/>
      <point x="211" y="412" type="line"/>
      <point x="299" y="412" type="line" smooth="yes"/>
      <point x="338" y="412"/>
      <point x="369" y="435"/>
      <point x="369" y="484" type="curve" smooth="yes"/>
      <point x="369" y="519"/>
      <point x="338" y="547"/>
      <point x="299" y="547" type="curve" smooth="yes"/>
      <point x="281" y="547" type="line" smooth="yes"/>
      <point x="242" y="547"/>
      <point x="211" y="519"/>
      <point x="211" y="484" type="curve"/>
      <point x="44" y="484" type="line"/>
      <point x="44" y="509" type="line" smooth="yes"/>
      <point x="44" y="613"/>
      <point x="143" y="696"/>
    </contour>
  </outline>
</glyph>
<glyph name="four" format="1">
  <advance width="615"/>
  <unicode hex="0034"/>
  <outline>
    <contour>
      <point x="178" y="696" type="curve"/>
      <point x="355" y="696" type="line"/>
      <point x="339" y="592"/>
      <point x="223" y="380"/>
      <point x="152" y="298" type="curve"/>
      <point x="302" y="298" type="line"/>
      <point x="302" y="400" type="line"/>
      <point x="337" y="448"/>
      <point x="394" y="574"/>
      <point x="407" y="630" type="curve"/>
      <point x="490" y="630" type="line"/>
      <point x="490" y="298" type="line"/>
      <point x="588" y="298" type="line"/>
      <point x="588" y="151" type="line"/>
      <point x="490" y="151" type="line"/>
      <point x="490" y="0" type="line"/>
      <point x="302" y="0" type="line"/>
      <point x="302" y="151" type="line"/>
      <point x="22" y="151" type="line"/>
      <point x="22" y="300" type="line"/>
      <point x="38" y="329"/>
      <point x="61" y="371"/>
      <point x="81" y="420" type="curve" smooth="yes"/>
      <point x="111" y="494" type="line" smooth="yes"/>
      <point x="142" y="571"/>
      <point x="168" y="648"/>
    </contour>
  </outline>
</glyph>
<glyph name="six" format="1">
  <advance width="615"/>
  <unicode hex="0036"/>
  <outline>
    <contour>
      <point x="299" y="696" type="curve" smooth="yes"/>
      <point x="327" y="696" type="line" smooth="yes"/>
      <point x="456" y="696"/>
      <point x="568" y="618"/>
      <point x="568" y="466" type="curve"/>
      <point x="390" y="466" type="line"/>
      <point x="390" y="471" type="line" smooth="yes"/>
      <point x="390" y="512"/>
      <point x="360" y="546"/>
      <point x="319" y="546" type="curve" smooth="yes"/>
      <point x="313" y="546" type="line" smooth="yes"/>
      <point x="272" y="546"/>
      <point x="236" y="512"/>
      <point x="236" y="471" type="curve" smooth="yes"/>
      <point x="236" y="385" type="line"/>
      <point x="271" y="422"/>
      <point x="324" y="437"/>
      <point x="361" y="437" type="curve" smooth="yes"/>
      <point x="485" y="437"/>
      <point x="585" y="367"/>
      <point x="585" y="230" type="curve" smooth="yes"/>
      <point x="585" y="85"/>
      <point x="471" y="-10"/>
      <point x="327" y="-10" type="curve" smooth="yes"/>
      <point x="299" y="-10" type="line" smooth="yes"/>
      <point x="155" y="-10"/>
      <point x="39" y="96"/>
      <point x="39" y="240" type="curve" smooth="yes"/>
      <point x="39" y="446" type="line" smooth="yes"/>
      <point x="39" y="590"/>
      <point x="155" y="696"/>
    </contour>
    <contour>
      <point x="317" y="321" type="curve" smooth="yes"/>
      <point x="311" y="321" type="line" smooth="yes"/>
      <point x="270" y="321"/>
      <point x="236" y="287"/>
      <point x="236" y="246" type="curve" smooth="yes"/>
      <point x="236" y="205" type="line" smooth="yes"/>
      <point x="236" y="164"/>
      <point x="270" y="130"/>
      <point x="311" y="130" type="curve" smooth="yes"/>
      <point x="317" y="130" type="line" smooth="yes"/>
      <point x="358" y="130"/>
      <point x="392" y="164"/>
      <point x="392" y="205" type="curve" smooth="yes"/>
      <point x="392" y="246" type="line" smooth="yes"/>
      <point x="392" y="287"/>
      <point x="358" y="321"/>
    </contour>
  </outline>
</glyph>
<glyph name="seven" format="1">
  <advance width="615"/>
  <unicode hex="0037"/>
  <outline>
    <contour>
      <point x="570" y="686" type="line"/>
      <point x="570" y="595" type="line"/>
      <point x="456" y="438"/>
      <point x="351" y="261"/>
      <point x="351" y="59" type="curve" smooth="yes"/>
      <point x="351" y="0" type="line"/>
      <point x="129" y="0" type="line"/>
      <point x="129" y="191"/>
      <point x="240" y="367"/>
      <point x="353" y="514" type="curve"/>
      <point x="61" y="514" type="line"/>
      <point x="61" y="686" type="line"/>
    </contour>
  </outline>
</glyph>
<glyph name="eight" format="1">
  <advance width="615"/>
  <unicode hex="0038"/>
  <outline>
    <contour>
      <point x="307" y="696" type="curve" smooth="yes"/>
      <point x="443" y="696"/>
      <point x="554" y="626"/>
      <point x="554" y="495" type="curve" smooth="yes"/>
      <point x="554" y="416"/>
      <point x="519" y="386"/>
      <point x="476" y="351" type="curve"/>
      <point x="476" y="347" type="line"/>
      <point x="537" y="310"/>
      <point x="577" y="271"/>
      <point x="577" y="189" type="curve" smooth="yes"/>
      <point x="577" y="59"/>
      <point x="470" y="-10"/>
      <point x="307" y="-10" type="curve" smooth="yes"/>
      <point x="150" y="-10"/>
      <point x="38" y="59"/>
      <point x="38" y="189" type="curve" smooth="yes"/>
      <point x="38" y="271"/>
      <point x="78" y="310"/>
      <point x="139" y="347" type="curve"/>
      <point x="139" y="351" type="line"/>
      <point x="95" y="385"/>
      <point x="61" y="417"/>
      <point x="61" y="495" type="curve" smooth="yes"/>
      <point x="61" y="626"/>
      <point x="171" y="696"/>
    </contour>
    <contour>
      <point x="307" y="566" type="curve" smooth="yes"/>
      <point x="268" y="566"/>
      <point x="237" y="535"/>
      <point x="237" y="496" type="curve" smooth="yes"/>
      <point x="237" y="473" type="line" smooth="yes"/>
      <point x="237" y="434"/>
      <point x="268" y="403"/>
      <point x="308" y="403" type="curve" smooth="yes"/>
      <point x="347" y="403"/>
      <point x="378" y="434"/>
      <point x="378" y="473" type="curve" smooth="yes"/>
      <point x="378" y="496" type="line" smooth="yes"/>
      <point x="378" y="535"/>
      <point x="347" y="566"/>
    </contour>
    <contour>
      <point x="307" y="295" type="curve" smooth="yes"/>
      <point x="268" y="295"/>
      <point x="237" y="264"/>
      <point x="237" y="225" type="curve" smooth="yes"/>
      <point x="237" y="192" type="line" smooth="yes"/>
      <point x="237" y="153"/>
      <point x="268" y="122"/>
      <point x="308" y="122" type="curve" smooth="yes"/>
      <point x="347" y="122"/>
      <point x="378" y="153"/>
      <point x="378" y="192" type="curve" smooth="yes"/>
      <point x="378" y="225" type="line" smooth="yes"/>
      <point x="378" y="264"/>
      <point x="347" y="295"/>
    </contour>
  </outline>
</glyph>
<glyph name="nine" format="1">
  <advance width="615"/>
  <unicode hex="0039"/>
  <outline>
    <contour>
      <point x="288" y="696" type="curve" smooth="yes"/>
      <point x="316" y="696" type="line" smooth="yes"/>
      <point x="460" y="696"/>
      <point x="576" y="590"/>
      <point x="576" y="446" type="curve" smooth="yes"/>
      <point x="576" y="240" type="line" smooth="yes"/>
      <point x="576" y="96"/>
      <point x="460" y="-10"/>
      <point x="316" y="-10" type="curve" smooth="yes"/>
      <point x="288" y="-10" type="line" smooth="yes"/>
      <point x="159" y="-10"/>
      <point x="47" y="68"/>
      <point x="47" y="220" type="curve"/>
      <point x="225" y="220" type="line"/>
      <point x="225" y="215" type="line" smooth="yes"/>
      <point x="225" y="174"/>
      <point x="255" y="140"/>
      <point x="296" y="140" type="curve" smooth="yes"/>
      <point x="302" y="140" type="line" smooth="yes"/>
      <point x="343" y="140"/>
      <point x="379" y="174"/>
      <point x="379" y="215" type="curve" smooth="yes"/>
      <point x="379" y="301" type="line"/>
      <point x="344" y="264"/>
      <point x="291" y="249"/>
      <point x="254" y="249" type="curve" smooth="yes"/>
      <point x="130" y="249"/>
      <point x="30" y="319"/>
      <point x="30" y="456" type="curve" smooth="yes"/>
      <point x="30" y="599"/>
      <point x="144" y="696"/>
    </contour>
    <contour>
      <point x="304" y="556" type="curve" smooth="yes"/>
      <point x="298" y="556" type="line" smooth="yes"/>
      <point x="257" y="556"/>
      <point x="223" y="522"/>
      <point x="223" y="481" type="curve" smooth="yes"/>
      <point x="223" y="440" type="line" smooth="yes"/>
      <point x="223" y="399"/>
      <point x="257" y="365"/>
      <point x="298" y="365" type="curve" smooth="yes"/>
      <point x="304" y="365" type="line" smooth="yes"/>
      <point x="345" y="365"/>
      <point x="379" y="399"/>
      <point x="379" y="440" type="curve" smooth="yes"/>
      <point x="379" y="481" type="line" smooth="yes"/>
      <point x="379" y="522"/>
      <point x="345" y="556"/>
    </contour>
  </outline>
</glyph>
<glyph name="colon" format="1">
  <advance width="309"/>
  <unicode hex="003A"/>
  <outline>
    <contour>
      <point x="250" y="328" type="line"/>
      <point x="59" y="328" type="line"/>
      <point x="59" y="511" type="line"/>
      <point x="250" y="511" type="line"/>
    </contour>
    <contour>
      <point x="250" y="0" type="line"/>
      <point x="59" y="0" type="line"/>
      <point x="59" y="183" type="line"/>
      <point x="250" y="183" type="line"/>
    </contour>
  </outline>
</glyph>
<glyph name="less" format="1">
  <advance width="615"/>
  <unicode hex="003C"/>
  <outline>
    <contour>
      <point x="553" y="382" type="line"/>
      <point x="205" y="254" type="line"/>
      <point x="553" y="127" type="line"/>
      <point x="553" y="-11" type="line"/>
      <point x="44" y="185" type="line"/>
      <point x="44" y="324" type="line"/>
      <point x="553" y="521" type="line"/>
    </contour>
  </outline>
</glyph>
<glyph name="equal" format="1">
  <advance width="615"/>
  <unicode hex="003D"/>
  <outline>
    <contour>
      <point x="563" y="301" type="line"/>
      <point x="51" y="301" type="line"/>
      <point x="51" y="429" type="line"/>
      <point x="563" y="429" type="line"/>
    </contour>
    <contour>
      <point x="563" y="81" type="line"/>
      <point x="51" y="81" type="line"/>
      <point x="51" y="209" type="line"/>
      <point x="563" y="209" type="line"/>
    </contour>
  </outline>
</glyph>
<glyph name="greater" format="1">
  <advance width="615"/>
  <unicode hex="003E"/>
  <outline>
    <contour>
      <point x="570" y="324" type="line"/>
      <point x="570" y="185" type="line"/>
      <point x="61" y="-11" type="line"/>
      <point x="61" y="127" type="line"/>
      <point x="409" y="254" type="line"/>
      <point x="61" y="382" type="line"/>
      <point x="61" y="521" type="line"/>
    </contour>
  </outline>
</glyph>
<glyph name="question" format="1">
  <advance width="581"/>
  <unicode hex="003F"/>
  <outline>
    <contour>
      <point x="275" y="696" type="curve" smooth="yes"/>
      <point x="313" y="696" type="line" smooth="yes"/>
      <point x="437" y="696"/>
      <point x="553" y="610"/>
      <point x="553" y="480" type="curve" smooth="yes"/>
      <point x="553" y="401"/>
      <point x="511" y="354"/>
      <point x="467" y="322" type="curve" smooth="yes"/>
      <point x="426" y="292" type="line" smooth="yes"/>
      <point x="401" y="273"/>
      <point x="382" y="259"/>
      <point x="382" y="240" type="curve" smooth="yes"/>
      <point x="382" y="218" type="line"/>
      <point x="211" y="218" type="line"/>
      <point x="211" y="277" type="line" smooth="yes"/>
      <point x="211" y="357"/>
      <point x="341" y="399"/>
      <point x="341" y="488" type="curve" smooth="yes"/>
      <point x="341" y="525"/>
      <point x="314" y="558"/>
      <point x="275" y="558" type="curve" smooth="yes"/>
      <point x="221" y="558"/>
      <point x="210" y="517"/>
      <point x="210" y="474" type="curve" smooth="yes"/>
      <point x="210" y="460" type="line" smooth="yes"/>
      <point x="210" y="456"/>
      <point x="210" y="452"/>
      <point x="211" y="447" type="curve"/>
      <point x="27" y="447" type="line"/>
      <point x="26" y="460"/>
      <point x="24" y="472"/>
      <point x="24" y="485" type="curve" smooth="yes"/>
      <point x="24" y="616"/>
      <point x="156" y="696"/>
    </contour>
    <contour>
      <point x="397" y="0" type="line"/>
      <point x="206" y="0" type="line"/>
      <point x="206" y="183" type="line"/>
      <point x="397" y="183" type="line"/>
    </contour>
  </outline>
</glyph>
<glyph name="at" format="1">
  <advance width="906"/>
  <unicode hex="0040"/>
  <outline>
    <contour>
      <point x="469" y="697" type="curve" smooth="yes"/>
      <point x="704" y="697"/>
      <point x="879" y="588"/>
      <point x="879" y="320" type="curve" smooth="yes"/>
      <point x="879" y="89"/>
      <point x="761" y="22"/>
      <point x="660" y="22" type="curve" smooth="yes"/>
      <point x="581" y="22"/>
      <point x="550" y="59"/>
      <point x="531" y="99" type="curve"/>
      <point x="498" y="61"/>
      <point x="453" y="23"/>
      <point x="376" y="23" type="curve" smooth="yes"/>
      <point x="299" y="23"/>
      <point x="207" y="39"/>
      <point x="207" y="166" type="curve" smooth="yes"/>
      <point x="207" y="300"/>
      <point x="327" y="329"/>
      <point x="521" y="329" type="curve"/>
      <point x="521" y="356" type="line" smooth="yes"/>
      <point x="521" y="393"/>
      <point x="495" y="412"/>
      <point x="460" y="412" type="curve" smooth="yes"/>
      <point x="433" y="412"/>
      <point x="400" y="395"/>
      <point x="400" y="368" type="curve" smooth="yes"/>
      <point x="400" y="364" type="line"/>
      <point x="222" y="364" type="line" smooth="yes"/>
      <point x="221" y="367"/>
      <point x="221" y="372"/>
      <point x="221" y="378" type="curve" smooth="yes"/>
      <point x="221" y="458"/>
      <point x="307" y="521"/>
      <point x="446" y="521" type="curve" smooth="yes"/>
      <point x="477" y="521" type="line" smooth="yes"/>
      <point x="628" y="521"/>
      <point x="701" y="455"/>
      <point x="701" y="369" type="curve" smooth="yes"/>
      <point x="701" y="171" type="line" smooth="yes"/>
      <point x="701" y="147"/>
      <point x="721" y="136"/>
      <point x="734" y="136" type="curve" smooth="yes"/>
      <point x="754" y="136"/>
      <point x="806" y="152"/>
      <point x="806" y="321" type="curve" smooth="yes"/>
      <point x="806" y="544"/>
      <point x="667" y="636"/>
      <point x="468" y="636" type="curve" smooth="yes"/>
      <point x="246" y="636"/>
      <point x="107" y="514"/>
      <point x="107" y="261" type="curve" smooth="yes"/>
      <point x="107" y="25"/>
      <point x="210" y="-92"/>
      <point x="434" y="-92" type="curve" smooth="yes"/>
      <point x="480" y="-92"/>
      <point x="563" y="-78"/>
      <point x="599" y="-60" type="curve"/>
      <point x="599" y="-126" type="line"/>
      <point x="557" y="-142"/>
      <point x="477" y="-153"/>
      <point x="434" y="-153" type="curve" smooth="yes"/>
      <point x="187" y="-153"/>
      <point x="34" y="-27"/>
      <point x="34" y="262" type="curve" smooth="yes"/>
      <point x="34" y="579"/>
      <point x="234" y="697"/>
    </contour>
    <contour>
      <point x="521" y="202" type="curve" smooth="yes"/>
      <point x="521" y="243" type="line"/>
      <point x="436" y="243"/>
      <point x="401" y="217"/>
      <point x="401" y="181" type="curve" smooth="yes"/>
      <point x="401" y="145"/>
      <point x="429" y="136"/>
      <point x="457" y="136" type="curve" smooth="yes"/>
      <point x="492" y="136"/>
      <point x="521" y="163"/>
    </contour>
  </outline>
</glyph>
<glyph name="B" format="1">
  <advance width="656"/>
  <unicode hex="0042"/>
  <outline>
    <contour>
      <point x="57" y="686" type="line"/>
      <point x="433" y="686" type="line" smooth="yes"/>
      <point x="533" y="686"/>
      <point x="613" y="611"/>
      <point x="613" y="518" type="curve" smooth="yes"/>
      <point x="613" y="417"/>
      <point x="559" y="377"/>
      <point x="498" y="358" type="curve"/>
      <point x="498" y="354" type="line"/>
      <point x="569" y="338"/>
      <point x="629" y="292"/>
      <point x="629" y="183" type="curve" smooth="yes"/>
      <point x="629" y="82"/>
      <point x="544" y="0"/>
      <point x="439" y="0" type="curve" smooth="yes"/>
      <point x="57" y="0" type="line"/>
    </contour>
    <contour>
      <point x="250" y="540" type="line"/>
      <point x="250" y="423" type="line"/>
      <point x="365" y="423" type="line" smooth="yes"/>
      <point x="393" y="423"/>
      <point x="415" y="445"/>
      <point x="415" y="473" type="curve" smooth="yes"/>
      <point x="415" y="490" type="line" smooth="yes"/>
      <point x="415" y="518"/>
      <point x="393" y="540"/>
      <point x="365" y="540" type="curve" smooth="yes"/>
    </contour>
    <contour>
      <point x="250" y="277" type="line"/>
      <point x="250" y="159" type="line"/>
      <point x="377" y="159" type="line" smooth="yes"/>
      <point x="405" y="159"/>
      <point x="427" y="181"/>
      <point x="427" y="209" type="curve" smooth="yes"/>
      <point x="427" y="227" type="line" smooth="yes"/>
      <point x="427" y="255"/>
      <point x="405" y="277"/>
      <point x="377" y="277" type="curve" smooth="yes"/>
    </contour>
  </outline>
</glyph>
<glyph name="C" format="1">
  <advance width="683"/>
  <unicode hex="0043"/>
  <outline>
    <contour>
      <point x="341" y="696" type="curve" smooth="yes"/>
      <point x="369" y="696" type="line" smooth="yes"/>
      <point x="532" y="696"/>
      <point x="659" y="600"/>
      <point x="659" y="405" type="curve"/>
      <point x="462" y="405" type="line"/>
      <point x="462" y="440" type="line" smooth="yes"/>
      <point x="462" y="503"/>
      <point x="418" y="540"/>
      <point x="362" y="540" type="curve" smooth="yes"/>
      <point x="357" y="540" type="line" smooth="yes"/>
      <point x="301" y="540"/>
      <point x="257" y="496"/>
      <point x="257" y="440" type="curve" smooth="yes"/>
      <point x="257" y="247" type="line" smooth="yes"/>
      <point x="257" y="191"/>
      <point x="301" y="147"/>
      <point x="357" y="147" type="curve" smooth="yes"/>
      <point x="371" y="147" type="line" smooth="yes"/>
      <point x="427" y="147"/>
      <point x="471" y="183"/>
      <point x="471" y="247" type="curve" smooth="yes"/>
      <point x="471" y="280" type="line"/>
      <point x="659" y="280" type="line"/>
      <point x="659" y="100"/>
      <point x="539" y="-10"/>
      <point x="377" y="-10" type="curve" smooth="yes"/>
      <point x="349" y="-10" type="line" smooth="yes"/>
      <point x="173" y="-10"/>
      <point x="31" y="100"/>
      <point x="31" y="290" type="curve" smooth="yes"/>
      <point x="31" y="396" type="line" smooth="yes"/>
      <point x="31" y="576"/>
      <point x="175" y="696"/>
    </contour>
    <contour>
      <point x="342" y="0" type="move" name="Bottom"/>
    </contour>
  </outline>
</glyph>
<glyph name="F" format="1">
  <advance width="562"/>
  <unicode hex="0046"/>
  <outline>
    <contour>
      <point x="533" y="523" type="line"/>
      <point x="262" y="523" type="line"/>
      <point x="262" y="411" type="line"/>
      <point x="514" y="411" type="line"/>
      <point x="514" y="257" type="line"/>
      <point x="262" y="257" type="line"/>
      <point x="262" y="0" type="line"/>
      <point x="57" y="0" type="line"/>
      <point x="57" y="686" type="line"/>
      <point x="553" y="686" type="line"/>
    </contour>
  </outline>
</glyph>
<glyph name="G" format="1">
  <advance width="699"/>
  <unicode hex="0047"/>
  <outline>
    <contour>
      <point x="350" y="696" type="curve" smooth="yes"/>
      <point x="378" y="696" type="line" smooth="yes"/>
      <point x="527" y="696"/>
      <point x="656" y="593"/>
      <point x="656" y="446" type="curve" smooth="yes"/>
      <point x="656" y="439" type="line"/>
      <point x="462" y="439" type="line"/>
      <point x="462" y="510"/>
      <point x="417" y="540"/>
      <point x="362" y="540" type="curve" smooth="yes"/>
      <point x="357" y="540" type="line" smooth="yes"/>
      <point x="301" y="540"/>
      <point x="257" y="496"/>
      <point x="257" y="440" type="curve" smooth="yes"/>
      <point x="257" y="247" type="line" smooth="yes"/>
      <point x="257" y="191"/>
      <point x="301" y="147"/>
      <point x="357" y="147" type="curve" smooth="yes"/>
      <point x="375" y="147" type="line" smooth="yes"/>
      <point x="431" y="147"/>
      <point x="462" y="185"/>
      <point x="462" y="248" type="curve"/>
      <point x="346" y="248" type="line"/>
      <point x="346" y="384" type="line"/>
      <point x="656" y="384" type="line"/>
      <point x="656" y="144" type="line" smooth="yes"/>
      <point x="656" y="101"/>
      <point x="656" y="65"/>
      <point x="659" y="40" type="curve" smooth="yes"/>
      <point x="663" y="0" type="line"/>
      <point x="551" y="0" type="line"/>
      <point x="523" y="73" type="line"/>
      <point x="481" y="25"/>
      <point x="401" y="-10"/>
      <point x="327" y="-10" type="curve" smooth="yes"/>
      <point x="317" y="-10" type="line" smooth="yes"/>
      <point x="152" y="-10"/>
      <point x="31" y="124"/>
      <point x="31" y="290" type="curve" smooth="yes"/>
      <point x="31" y="396" type="line" smooth="yes"/>
      <point x="31" y="562"/>
      <point x="162" y="696"/>
    </contour>
    <contour>
      <point x="350" y="0" type="move" name="Bottom"/>
    </contour>
  </outline>
</glyph>
<glyph name="H" format="1">
  <advance width="697"/>
  <unicode hex="0048"/>
  <outline>
    <contour>
      <point x="640" y="0" type="line"/>
      <point x="430" y="0" type="line"/>
      <point x="430" y="267" type="line"/>
      <point x="268" y="267" type="line"/>
      <point x="268" y="0" type="line"/>
      <point x="57" y="0" type="line"/>
      <point x="57" y="686" type="line"/>
      <point x="267" y="686" type="line"/>
      <point x="267" y="433" type="line"/>
      <point x="429" y="433" type="line"/>
      <point x="429" y="686" type="line"/>
      <point x="640" y="686" type="line"/>
    </contour>
  </outline>
</glyph>
<glyph name="J" format="1">
  <advance width="545"/>
  <unicode hex="004A"/>
  <outline>
    <contour>
      <point x="492" y="686" type="line"/>
      <point x="492" y="180" type="line" smooth="yes"/>
      <point x="492" y="55"/>
      <point x="396" y="-10"/>
      <point x="262" y="-10" type="curve" smooth="yes"/>
      <point x="231" y="-10" type="line" smooth="yes"/>
      <point x="96" y="-10"/>
      <point x="11" y="57"/>
      <point x="11" y="180" type="curve" smooth="yes"/>
      <point x="11" y="248" type="line"/>
      <point x="204" y="248" type="line"/>
      <point x="204" y="186" type="line" smooth="yes"/>
      <point x="204" y="158"/>
      <point x="222" y="140"/>
      <point x="245" y="140" type="curve" smooth="yes"/>
      <point x="268" y="140"/>
      <point x="287" y="158"/>
      <point x="287" y="186" type="curve" smooth="yes"/>
      <point x="287" y="686" type="line"/>
    </contour>
  </outline>
</glyph>
<glyph name="K" format="1">
  <advance width="685"/>
  <unicode hex="004B"/>
  <outline>
    <contour>
      <point x="480" y="411" type="line"/>
      <point x="695" y="0" type="line"/>
      <point x="460" y="0" type="line"/>
      <point x="341" y="248" type="line"/>
      <point x="261" y="152" type="line"/>
      <point x="261" y="0" type="line"/>
      <point x="57" y="0" type="line"/>
      <point x="57" y="686" type="line"/>
      <point x="261" y="686" type="line"/>
      <point x="261" y="415" type="line"/>
      <point x="457" y="686" type="line"/>
      <point x="689" y="686" type="line"/>
    </contour>
    <contour>
      <point x="343" y="0" type="move" name="Bottom"/>
    </contour>
  </outline>
</glyph>
<glyph name="L" format="1">
  <advance width="544"/>
  <unicode hex="004C"/>
  <outline>
    <contour>
      <point x="269" y="168" type="line"/>
      <point x="518" y="168" type="line"/>
      <point x="538" y="0" type="line"/>
      <point x="57" y="0" type="line"/>
      <point x="57" y="686" type="line"/>
      <point x="269" y="686" type="line"/>
    </contour>
    <contour>
      <point x="272" y="0" type="move" name="Bottom"/>
    </contour>
  </outline>
</glyph>
<glyph name="M" format="1">
  <advance width="1004"/>
  <unicode hex="004D"/>
  <outline>
    <contour>
      <point x="947" y="0" type="line"/>
      <point x="737" y="0" type="line"/>
      <point x="737" y="440" type="line"/>
      <point x="733" y="440" type="line"/>
      <point x="613" y="0" type="line"/>
      <point x="372" y="0" type="line"/>
      <point x="253" y="440" type="line"/>
      <point x="248" y="440" type="line"/>
      <point x="248" y="0" type="line"/>
      <point x="57" y="0" type="line"/>
      <point x="57" y="686" type="line"/>
      <point x="401" y="686" type="line"/>
      <point x="500" y="320" type="line"/>
      <point x="504" y="320" type="line"/>
      <point x="601" y="686" type="line"/>
      <point x="947" y="686" type="line"/>
    </contour>
  </outline>
</glyph>
<glyph name="N" format="1">
  <advance width="696"/>
  <unicode hex="004E"/>
  <outline>
    <contour>
      <point x="639" y="0" type="line"/>
      <point x="459" y="0" type="line"/>
      <point x="253" y="297" type="line"/>
      <point x="250" y="304" type="line"/>
      <point x="250" y="0" type="line"/>
      <point x="57" y="0" type="line"/>
      <point x="57" y="686" type="line"/>
      <point x="233" y="686" type="line"/>
      <point x="443" y="382" type="line"/>
      <point x="445" y="375" type="line"/>
      <point x="445" y="686" type="line"/>
      <point x="639" y="686" type="line"/>
    </contour>
    <contour>
      <point x="348" y="0" type="move" name="Bottom"/>
    </contour>
  </outline>
</glyph>
<glyph name="P" format="1">
  <advance width="645"/>
  <unicode hex="0050"/>
  <outline>
    <contour>
      <point x="57" y="686" type="line"/>
      <point x="422" y="686" type="line" smooth="yes"/>
      <point x="538" y="686"/>
      <point x="632" y="592"/>
      <point x="632" y="476" type="curve" smooth="yes"/>
      <point x="632" y="454" type="line" smooth="yes"/>
      <point x="632" y="338"/>
      <point x="538" y="244"/>
      <point x="422" y="244" type="curve" smooth="yes"/>
      <point x="267" y="244" type="line"/>
      <point x="267" y="0" type="line"/>
      <point x="57" y="0" type="line"/>
    </contour>
    <contour>
      <point x="267" y="529" type="line"/>
      <point x="267" y="397" type="line"/>
      <point x="359" y="397" type="line" smooth="yes"/>
      <point x="399" y="397"/>
      <point x="419" y="429"/>
      <point x="419" y="457" type="curve" smooth="yes"/>
      <point x="419" y="469" type="line" smooth="yes"/>
      <point x="419" y="497"/>
      <point x="400" y="529"/>
      <point x="359" y="529" type="curve" smooth="yes"/>
    </contour>
  </outline>
</glyph>
<glyph name="Q" format="1">
  <advance width="718"/>
  <unicode hex="0051"/>
  <outline>
    <contour>
      <point x="331" y="694" type="curve" smooth="yes"/>
      <point x="387" y="694" type="line" smooth="yes"/>
      <point x="553" y="694"/>
      <point x="687" y="560"/>
      <point x="687" y="394" type="curve" smooth="yes"/>
      <point x="687" y="290" type="line" smooth="yes"/>
      <point x="687" y="158"/>
      <point x="602" y="46"/>
      <point x="484" y="6" type="curve"/>
      <point x="495" y="-18"/>
      <point x="514" y="-39"/>
      <point x="562" y="-39" type="curve" smooth="yes"/>
      <point x="597" y="-39"/>
      <point x="650" y="-27"/>
      <point x="675" y="-19" type="curve" smooth="yes"/>
      <point x="688" y="-15" type="line"/>
      <point x="688" y="-120" type="line"/>
      <point x="652" y="-139"/>
      <point x="595" y="-162"/>
      <point x="507" y="-162" type="curve" smooth="yes"/>
      <point x="355" y="-162"/>
      <point x="289" y="-72"/>
      <point x="273" y="-4" type="curve"/>
      <point x="135" y="22"/>
      <point x="31" y="144"/>
      <point x="31" y="290" type="curve" smooth="yes"/>
      <point x="31" y="394" type="line" smooth="yes"/>
      <point x="31" y="560"/>
      <point x="165" y="694"/>
    </contour>
    <contour>
      <point x="362" y="540" type="curve" smooth="yes"/>
      <point x="357" y="540" type="line" smooth="yes"/>
      <point x="301" y="540"/>
      <point x="257" y="496"/>
      <point x="257" y="440" type="curve" smooth="yes"/>
      <point x="257" y="247" type="line" smooth="yes"/>
      <point x="257" y="191"/>
      <point x="301" y="147"/>
      <point x="357" y="147" type="curve" smooth="yes"/>
      <point x="362" y="147" type="line" smooth="yes"/>
      <point x="418" y="147"/>
      <point x="462" y="191"/>
      <point x="462" y="247" type="curve" smooth="yes"/>
      <point x="462" y="440" type="line" smooth="yes"/>
      <point x="462" y="496"/>
      <point x="418" y="540"/>
    </contour>
  </outline>
</glyph>
<glyph name="R" format="1">
  <advance width="682"/>
  <unicode hex="0052"/>
  <outline>
    <contour>
      <point x="57" y="686" type="line"/>
      <point x="442" y="686" type="line" smooth="yes"/>
      <point x="539" y="686"/>
      <point x="632" y="619"/>
      <point x="632" y="516" type="curve" smooth="yes"/>
      <point x="632" y="443"/>
      <point x="578" y="367"/>
      <point x="509" y="354" type="curve"/>
      <point x="509" y="349" type="line"/>
      <point x="586" y="326"/>
      <point x="619" y="256"/>
      <point x="619" y="173" type="curve" smooth="yes"/>
      <point x="619" y="132"/>
      <point x="620" y="63"/>
      <point x="670" y="50" type="curve"/>
      <point x="670" y="9" type="line"/>
      <point x="634" y="-6"/>
      <point x="589" y="-10"/>
      <point x="550" y="-10" type="curve" smooth="yes"/>
      <point x="459" y="-10"/>
      <point x="409" y="23"/>
      <point x="409" y="119" type="curve" smooth="yes"/>
      <point x="409" y="183"/>
      <point x="405" y="266"/>
      <point x="320" y="266" type="curve" smooth="yes"/>
      <point x="262" y="266" type="line"/>
      <point x="262" y="0" type="line"/>
      <point x="57" y="0" type="line"/>
    </contour>
    <contour>
      <point x="262" y="529" type="line"/>
      <point x="262" y="419" type="line"/>
      <point x="368" y="419" type="line" smooth="yes"/>
      <point x="396" y="419"/>
      <point x="418" y="441"/>
      <point x="418" y="469" type="curve" smooth="yes"/>
      <point x="418" y="479" type="line" smooth="yes"/>
      <point x="418" y="507"/>
      <point x="396" y="529"/>
      <point x="368" y="529" type="curve" smooth="yes"/>
    </contour>
    <contour>
      <point x="341" y="0" type="move" name="Bottom"/>
    </contour>
  </outline>
</glyph>
<glyph name="T" format="1">
  <advance width="586"/>
  <unicode hex="0054"/>
  <outline>
    <contour>
      <point x="571" y="521" type="line"/>
      <point x="397" y="521" type="line"/>
      <point x="397" y="0" type="line"/>
      <point x="189" y="0" type="line"/>
      <point x="189" y="521" type="line"/>
      <point x="15" y="521" type="line"/>
      <point x="15" y="686" type="line"/>
      <point x="571" y="686" type="line"/>
    </contour>
    <contour>
      <point x="293" y="0" type="move" name="Bottom"/>
    </contour>
  </outline>
</glyph>
<glyph name="U" format="1">
  <advance width="687"/>
  <unicode hex="0055"/>
  <outline>
    <contour>
      <point x="635" y="686" type="line"/>
      <point x="635" y="218" type="line" smooth="yes"/>
      <point x="635" y="79"/>
      <point x="528" y="-10"/>
      <point x="365" y="-10" type="curve" smooth="yes"/>
      <point x="322" y="-10" type="line" smooth="yes"/>
      <point x="159" y="-10"/>
      <point x="52" y="79"/>
      <point x="52" y="218" type="curve" smooth="yes"/>
      <point x="52" y="686" type="line"/>
      <point x="263" y="686" type="line"/>
      <point x="263" y="221" type="line" smooth="yes"/>
      <point x="263" y="177"/>
      <point x="299" y="146"/>
      <point x="344" y="146" type="curve" smooth="yes"/>
      <point x="389" y="146"/>
      <point x="425" y="177"/>
      <point x="425" y="221" type="curve" smooth="yes"/>
      <point x="425" y="686" type="line"/>
    </contour>
  </outline>
</glyph>
<glyph name="V" format="1">
  <advance width="656"/>
  <unicode hex="0056"/>
  <outline>
    <contour>
      <point x="452" y="0" type="line"/>
      <point x="202" y="0" type="line"/>
      <point x="-3" y="686" type="line"/>
      <point x="215" y="686" type="line"/>
      <point x="335" y="260" type="line"/>
      <point x="339" y="260" type="line"/>
      <point x="458" y="686" type="line"/>
      <point x="660" y="686" type="line"/>
    </contour>
  </outline>
</glyph>
<glyph name="W" format="1">
  <advance width="1021"/>
  <unicode hex="0057"/>
  <outline>
    <contour>
      <point x="837" y="0" type="line"/>
      <point x="599" y="0" type="line"/>
      <point x="516" y="329" type="line"/>
      <point x="510" y="329" type="line"/>
      <point x="427" y="0" type="line"/>
      <point x="185" y="0" type="line"/>
      <point x="-2" y="686" type="line"/>
      <point x="215" y="686" type="line"/>
      <point x="312" y="305" type="line"/>
      <point x="316" y="305" type="line"/>
      <point x="414" y="686" type="line"/>
      <point x="629" y="686" type="line"/>
      <point x="725" y="305" type="line"/>
      <point x="729" y="305" type="line"/>
      <point x="826" y="686" type="line"/>
      <point x="1023" y="686" type="line"/>
    </contour>
  </outline>
</glyph>
<glyph name="X" format="1">
  <advance width="675"/>
  <unicode hex="0058"/>
  <outline>
    <contour>
      <point x="475" y="362" type="line"/>
      <point x="690" y="0" type="line"/>
      <point x="446" y="0" type="line"/>
      <point x="330" y="213" type="line"/>
      <point x="326" y="213" type="line"/>
      <point x="211" y="0" type="line"/>
      <point x="-15" y="0" type="line"/>
      <point x="200" y="363" type="line"/>
      <point x="7" y="686" type="line"/>
      <point x="250" y="686" type="line"/>
      <point x="345" y="511" type="line"/>
      <point x="349" y="511" type="line"/>
      <point x="444" y="686" type="line"/>
      <point x="669" y="686" type="line"/>
    </contour>
  </outline>
</glyph>
<glyph name="bracketleft" format="1">
  <advance width="318"/>
  <unicode hex="005B"/>
  <outline>
    <contour>
      <point x="294" y="603" type="line"/>
      <point x="206" y="603" type="line"/>
      <point x="206" y="-78" type="line"/>
      <point x="294" y="-78" type="line"/>
      <point x="294" y="-161" type="line"/>
      <point x="57" y="-161" type="line"/>
      <point x="57" y="686" type="line"/>
      <point x="294" y="686" type="line"/>
    </contour>
  </outline>
</glyph>
<glyph name="backslash" format="1">
  <advance width="652"/>
  <unicode hex="005C"/>
  <outline>
    <contour>
      <point x="636" y="-171" type="line"/>
      <point x="504" y="-171" type="line"/>
      <point x="15" y="686" type="line"/>
      <point x="146" y="686" type="line"/>
    </contour>
  </outline>
</glyph>
<glyph name="bracketright" format="1">
  <advance width="318"/>
  <unicode hex="005D"/>
  <outline>
    <contour>
      <point x="261" y="-161" type="line"/>
      <point x="24" y="-161" type="line"/>
      <point x="24" y="-78" type="line"/>
      <point x="112" y="-78" type="line"/>
      <point x="112" y="603" type="line"/>
      <point x="24" y="603" type="line"/>
      <point x="24" y="686" type="line"/>
      <point x="261" y="686" type="line"/>
    </contour>
  </outline>
</glyph>
<glyph name="asciicircum" format="1">
  <advance width="600"/>
  <unicode hex="005E"/>
  <outline>
    <contour>
      <point x="566" y="0" type="line"/>
      <point x="428" y="0" type="line"/>
      <point x="301" y="350" type="line"/>
      <point x="173" y="0" type="line"/>
      <point x="33" y="0" type="line"/>
      <point x="230" y="511" type="line"/>
      <point x="369" y="511" type="line"/>
    </contour>
  </outline>
</glyph>
<glyph name="underscore" format="1">
  <advance width="668"/>
  <unicode hex="005F"/>
  <outline>
    <contour>
      <point x="584" y="-127" type="line"/>
      <point x="84" y="-127" type="line"/>
      <point x="84" y="-65" type="line"/>
      <point x="584" y="-65" type="line"/>
    </contour>
  </outline>
</glyph>
<glyph name="b" format="1">
  <advance width="601"/>
  <unicode hex="0062"/>
  <outline>
    <contour>
      <point x="248" y="720" type="line"/>
      <point x="248" y="458" type="line"/>
      <point x="267" y="482"/>
      <point x="312" y="521"/>
      <point x="380" y="521" type="curve" smooth="yes"/>
      <point x="487" y="521"/>
      <point x="573" y="436"/>
      <point x="573" y="261" type="curve" smooth="yes"/>
      <point x="573" y="250" type="line" smooth="yes"/>
      <point x="573" y="75"/>
      <point x="476" y="-10"/>
      <point x="356" y="-10" type="curve" smooth="yes"/>
      <point x="284" y="-10"/>
      <point x="227" y="20"/>
      <point x="188" y="75" type="curve"/>
      <point x="120" y="0" type="line"/>
      <point x="50" y="0" type="line"/>
      <point x="50" y="720" type="line"/>
    </contour>
    <contour>
      <point x="310" y="396" type="curve" smooth="yes"/>
      <point x="275" y="396"/>
      <point x="248" y="365"/>
      <point x="248" y="326" type="curve" smooth="yes"/>
      <point x="248" y="181" type="line" smooth="yes"/>
      <point x="248" y="142"/>
      <point x="275" y="111"/>
      <point x="310" y="111" type="curve" smooth="yes"/>
      <point x="345" y="111"/>
      <point x="372" y="142"/>
      <point x="372" y="181" type="curve" smooth="yes"/>
      <point x="372" y="326" type="line" smooth="yes"/>
      <point x="372" y="365"/>
      <point x="345" y="396"/>
    </contour>
  </outline>
</glyph>
<glyph name="f" format="1">
  <advance width="419"/>
  <unicode hex="0066"/>
  <outline>
    <contour>
      <point x="272" y="728" type="curve" smooth="yes"/>
      <point x="306" y="728"/>
      <point x="373" y="720"/>
      <point x="406" y="706" type="curve"/>
      <point x="406" y="596" type="line"/>
      <point x="391" y="601"/>
      <point x="359" y="606"/>
      <point x="344" y="606" type="curve" smooth="yes"/>
      <point x="319" y="606"/>
      <point x="287" y="603"/>
      <point x="287" y="548" type="curve" smooth="yes"/>
      <point x="287" y="511" type="line"/>
      <point x="407" y="511" type="line"/>
      <point x="407" y="369" type="line"/>
      <point x="287" y="369" type="line"/>
      <point x="287" y="0" type="line"/>
      <point x="89" y="0" type="line"/>
      <point x="89" y="369" type="line"/>
      <point x="25" y="369" type="line"/>
      <point x="25" y="511" type="line"/>
      <point x="89" y="511" type="line"/>
      <point x="89" y="577" type="line" smooth="yes"/>
      <point x="89" y="685"/>
      <point x="164" y="728"/>
    </contour>
  </outline>
</glyph>
<glyph name="j" format="1">
  <advance width="299"/>
  <unicode hex="006A"/>
  <outline>
    <contour>
      <point x="249" y="577" type="line"/>
      <point x="50" y="577" type="line"/>
      <point x="50" y="720" type="line"/>
      <point x="249" y="720" type="line"/>
    </contour>
    <contour>
      <point x="249" y="510" type="line"/>
      <point x="249" y="-26" type="line" smooth="yes"/>
      <point x="249" y="-134"/>
      <point x="175" y="-187"/>
      <point x="66" y="-187" type="curve" smooth="yes"/>
      <point x="32" y="-187"/>
      <point x="-36" y="-178"/>
      <point x="-68" y="-165" type="curve"/>
      <point x="-68" y="-53" type="line"/>
      <point x="-53" y="-60"/>
      <point x="-21" y="-65"/>
      <point x="-6" y="-65" type="curve" smooth="yes"/>
      <point x="22" y="-65"/>
      <point x="50" y="-55"/>
      <point x="50" y="4" type="curve" smooth="yes"/>
      <point x="50" y="510" type="line"/>
    </contour>
  </outline>
</glyph>
<glyph name="k" format="1">
  <advance width="603"/>
  <unicode hex="006B"/>
  <outline>
    <contour>
      <point x="248" y="321" type="line"/>
      <point x="378" y="511" type="line"/>
      <point x="604" y="511" type="line"/>
      <point x="425" y="280" type="line"/>
      <point x="607" y="0" type="line"/>
      <point x="374" y="0" type="line"/>
      <point x="284" y="145" type="line"/>
      <point x="248" y="114" type="line"/>
      <point x="248" y="0" type="line"/>
      <point x="50" y="0" type="line"/>
      <point x="50" y="720" type="line"/>
      <point x="248" y="720" type="line"/>
    </contour>
    <contour>
      <point x="302" y="0" type="move" name="Bottom"/>
    </contour>
  </outline>
</glyph>
<glyph name="l" format="1">
  <advance width="298"/>
  <unicode hex="006C"/>
  <outline>
    <contour>
      <point x="248" y="0" type="line"/>
      <point x="50" y="0" type="line"/>
      <point x="50" y="720" type="line"/>
      <point x="248" y="720" type="line"/>
    </contour>
    <contour>
      <point x="149" y="0" type="move" name="Bottom"/>
    </contour>
  </outline>
</glyph>
<glyph name="m" format="1">
  <advance width="871"/>
  <unicode hex="006D"/>
  <outline>
    <contour>
      <point x="647" y="521" type="curve" smooth="yes"/>
      <point x="674" y="521" type="line" smooth="yes"/>
      <point x="757" y="521"/>
      <point x="824" y="454"/>
      <point x="824" y="371" type="curve" smooth="yes"/>
      <point x="824" y="0" type="line"/>
      <point x="630" y="0" type="line"/>
      <point x="630" y="324" type="line" smooth="yes"/>
      <point x="630" y="357"/>
      <point x="609" y="379"/>
      <point x="582" y="379" type="curve" smooth="yes"/>
      <point x="555" y="379"/>
      <point x="534" y="357"/>
      <point x="534" y="324" type="curve" smooth="yes"/>
      <point x="534" y="0" type="line"/>
      <point x="340" y="0" type="line"/>
      <point x="340" y="324" type="line" smooth="yes"/>
      <point x="340" y="357"/>
      <point x="319" y="379"/>
      <point x="292" y="379" type="curve" smooth="yes"/>
      <point x="265" y="379"/>
      <point x="244" y="357"/>
      <point x="244" y="324" type="curve" smooth="yes"/>
      <point x="244" y="0" type="line"/>
      <point x="50" y="0" type="line"/>
      <point x="50" y="511" type="line"/>
      <point x="198" y="511" type="line"/>
      <point x="219" y="437" type="line"/>
      <point x="236" y="459"/>
      <point x="284" y="521"/>
      <point x="357" y="521" type="curve" smooth="yes"/>
      <point x="384" y="521" type="line" smooth="yes"/>
      <point x="441" y="521"/>
      <point x="490" y="490"/>
      <point x="515" y="443" type="curve"/>
      <point x="542" y="490"/>
      <point x="590" y="521"/>
    </contour>
  </outline>
</glyph>
<glyph name="v" format="1">
  <advance width="559"/>
  <unicode hex="0076"/>
  <outline>
    <contour>
      <point x="393" y="0" type="line"/>
      <point x="164" y="0" type="line"/>
      <point x="-1" y="511" type="line"/>
      <point x="210" y="511" type="line"/>
      <point x="285" y="219" type="line"/>
      <point x="292" y="219" type="line"/>
      <point x="367" y="511" type="line"/>
      <point x="560" y="511" type="line"/>
    </contour>
  </outline>
</glyph>
<glyph name="w" format="1">
  <advance width="855"/>
  <unicode hex="0077"/>
  <outline>
    <contour>
      <point x="706" y="0" type="line"/>
      <point x="482" y="0" type="line"/>
      <point x="433" y="213" type="line"/>
      <point x="425" y="213" type="line"/>
      <point x="377" y="0" type="line"/>
      <point x="149" y="0" type="line"/>
      <point x="4" y="511" type="line"/>
      <point x="210" y="511" type="line"/>
      <point x="267" y="253" type="line"/>
      <point x="274" y="253" type="line"/>
      <point x="335" y="511" type="line"/>
      <point x="535" y="511" type="line"/>
      <point x="595" y="253" type="line"/>
      <point x="603" y="253" type="line"/>
      <point x="660" y="511" type="line"/>
      <point x="852" y="511" type="line"/>
    </contour>
  </outline>
</glyph>
<glyph name="y" format="1">
  <advance width="553"/>
  <unicode hex="0079"/>
  <outline>
    <contour>
      <point x="556" y="511" type="line"/>
      <point x="384" y="36" type="line" smooth="yes"/>
      <point x="338" y="-91"/>
      <point x="255" y="-187"/>
      <point x="130" y="-187" type="curve" smooth="yes"/>
      <point x="87" y="-187"/>
      <point x="54" y="-183"/>
      <point x="31" y="-172" type="curve"/>
      <point x="31" y="-43" type="line"/>
      <point x="46" y="-50"/>
      <point x="78" y="-57"/>
      <point x="106" y="-57" type="curve" smooth="yes"/>
      <point x="168" y="-57"/>
      <point x="178" y="-10"/>
      <point x="184" y="15" type="curve"/>
      <point x="-4" y="511" type="line"/>
      <point x="207" y="511" type="line"/>
      <point x="286" y="246" type="line"/>
      <point x="294" y="246" type="line"/>
      <point x="361" y="511" type="line"/>
    </contour>
  </outline>
</glyph>
<glyph name="z" format="1">
  <advance width="498"/>
  <unicode hex="007A"/>
  <outline>
    <contour>
      <point x="466" y="451" type="line"/>
      <point x="277" y="124" type="line"/>
      <point x="474" y="124" type="line"/>
      <point x="474" y="0" type="line"/>
      <point x="22" y="0" type="line"/>
      <point x="22" y="63" type="line"/>
      <point x="210" y="387" type="line"/>
      <point x="33" y="387" type="line"/>
      <point x="33" y="511" type="line"/>
      <point x="466" y="511" type="line"/>
    </contour>
  </outline>
</glyph>
<glyph name="braceleft" format="1">
  <advance width="343"/>
  <unicode hex="007B"/>
  <outline>
    <contour>
      <point x="320" y="686" type="line"/>
      <point x="320" y="618" type="line"/>
      <point x="292" y="618"/>
      <point x="247" y="614"/>
      <point x="244" y="577" type="curve" smooth="yes"/>
      <point x="234" y="371" type="line" smooth="yes"/>
      <point x="231" y="306"/>
      <point x="201" y="268"/>
      <point x="133" y="268" type="curve"/>
      <point x="133" y="259" type="line"/>
      <point x="201" y="259"/>
      <point x="231" y="221"/>
      <point x="234" y="156" type="curve" smooth="yes"/>
      <point x="244" y="-49" type="line" smooth="yes"/>
      <point x="247" y="-87"/>
      <point x="291" y="-91"/>
      <point x="320" y="-91" type="curve"/>
      <point x="320" y="-159" type="line"/>
      <point x="239" y="-159" type="line" smooth="yes"/>
      <point x="171" y="-159"/>
      <point x="98" y="-124"/>
      <point x="98" y="-47" type="curve" smooth="yes"/>
      <point x="98" y="169" type="line" smooth="yes"/>
      <point x="98" y="209"/>
      <point x="61" y="224"/>
      <point x="21" y="224" type="curve"/>
      <point x="21" y="303" type="line"/>
      <point x="56" y="303"/>
      <point x="98" y="320"/>
      <point x="98" y="360" type="curve" smooth="yes"/>
      <point x="98" y="574" type="line" smooth="yes"/>
      <point x="98" y="651"/>
      <point x="171" y="686"/>
      <point x="239" y="686" type="curve" smooth="yes"/>
    </contour>
  </outline>
</glyph>
<glyph name="bar" format="1">
  <advance width="232"/>
  <unicode hex="007C"/>
  <outline>
    <contour>
      <point x="176" y="-199" type="line"/>
      <point x="56" y="-199" type="line"/>
      <point x="56" y="720" type="line"/>
      <point x="176" y="720" type="line"/>
    </contour>
  </outline>
</glyph>
<glyph name="braceright" format="1">
  <advance width="343"/>
  <unicode hex="007D"/>
  <outline>
    <contour>
      <point x="23" y="686" type="line"/>
      <point x="104" y="686" type="line" smooth="yes"/>
      <point x="172" y="686"/>
      <point x="245" y="651"/>
      <point x="245" y="574" type="curve" smooth="yes"/>
      <point x="245" y="360" type="line" smooth="yes"/>
      <point x="245" y="320"/>
      <point x="284" y="303"/>
      <point x="321" y="303" type="curve"/>
      <point x="321" y="224" type="line"/>
      <point x="286" y="224"/>
      <point x="245" y="209"/>
      <point x="245" y="169" type="curve" smooth="yes"/>
      <point x="245" y="-47" type="line" smooth="yes"/>
      <point x="245" y="-124"/>
      <point x="172" y="-159"/>
      <point x="104" y="-159" type="curve" smooth="yes"/>
      <point x="23" y="-159" type="line"/>
      <point x="23" y="-91" type="line"/>
      <point x="52" y="-91"/>
      <point x="96" y="-87"/>
      <point x="99" y="-49" type="curve" smooth="yes"/>
      <point x="109" y="156" type="line" smooth="yes"/>
      <point x="112" y="221"/>
      <point x="142" y="259"/>
      <point x="210" y="259" type="curve"/>
      <point x="210" y="268" type="line"/>
      <point x="142" y="268"/>
      <point x="112" y="306"/>
      <point x="109" y="371" type="curve" smooth="yes"/>
      <point x="99" y="577" type="line" smooth="yes"/>
      <point x="96" y="614"/>
      <point x="51" y="618"/>
      <point x="23" y="618" type="curve"/>
    </contour>
  </outline>
</glyph>
<glyph name="asciitilde" format="1">
  <advance width="648"/>
  <unicode hex="007E"/>
  <outline>
    <contour>
      <point x="607" y="406" type="curve"/>
      <point x="607" y="280" type="line"/>
      <point x="578" y="246"/>
      <point x="519" y="202"/>
      <point x="444" y="202" type="curve" smooth="yes"/>
      <point x="359" y="202"/>
      <point x="294" y="268"/>
      <point x="206" y="268" type="curve" smooth="yes"/>
      <point x="129" y="268"/>
      <point x="72" y="221"/>
      <point x="43" y="190" type="curve"/>
      <point x="43" y="316" type="line"/>
      <point x="72" y="347"/>
      <point x="129" y="394"/>
      <point x="206" y="394" type="curve" smooth="yes"/>
      <point x="291" y="394"/>
      <point x="356" y="328"/>
      <point x="444" y="328" type="curve" smooth="yes"/>
      <point x="519" y="328"/>
      <point x="578" y="372"/>
    </contour>
  </outline>
</glyph>
<glyph name="exclamdown" format="1">
  <advance width="297"/>
  <unicode hex="00A1"/>
  <outline>
    <contour>
      <point x="244" y="328" type="line"/>
      <point x="53" y="328" type="line"/>
      <point x="53" y="511" type="line"/>
      <point x="244" y="511" type="line"/>
    </contour>
    <contour>
      <point x="267" y="-177" type="line"/>
      <point x="29" y="-177" type="line"/>
      <point x="86" y="278" type="line"/>
      <point x="213" y="278" type="line"/>
    </contour>
  </outline>
</glyph>
<glyph name="cent" format="1">
  <advance width="579"/>
  <unicode hex="00A2"/>
  <outline>
    <contour>
      <point x="362" y="694" type="line"/>
      <point x="349" y="605" type="line"/>
      <point x="480" y="590"/>
      <point x="551" y="505"/>
      <point x="551" y="390" type="curve"/>
      <point x="382" y="390" type="line"/>
      <point x="382" y="416" type="line" smooth="yes"/>
      <point x="382" y="455"/>
      <point x="352" y="486"/>
      <point x="313" y="486" type="curve" smooth="yes"/>
      <point x="274" y="486"/>
      <point x="244" y="455"/>
      <point x="244" y="416" type="curve" smooth="yes"/>
      <point x="244" y="267" type="line" smooth="yes"/>
      <point x="244" y="228"/>
      <point x="275" y="197"/>
      <point x="314" y="197" type="curve" smooth="yes"/>
      <point x="326" y="197" type="line" smooth="yes"/>
      <point x="365" y="197"/>
      <point x="393" y="228"/>
      <point x="393" y="267" type="curve" smooth="yes"/>
      <point x="393" y="293" type="line"/>
      <point x="551" y="293" type="line"/>
      <point x="551" y="165"/>
      <point x="474" y="90"/>
      <point x="349" y="78" type="curve"/>
      <point x="364" y="-10" type="line"/>
      <point x="233" y="-10" type="line"/>
      <point x="250" y="78" type="line"/>
      <point x="130" y="94"/>
      <point x="32" y="198"/>
      <point x="32" y="321" type="curve" smooth="yes"/>
      <point x="32" y="362" type="line" smooth="yes"/>
      <point x="32" y="486"/>
      <point x="129" y="589"/>
      <point x="250" y="605" type="curve"/>
      <point x="233" y="694" type="line"/>
    </contour>
  </outline>
</glyph>
<glyph name="sterling" format="1">
  <advance width="667"/>
  <unicode hex="00A3"/>
  <outline>
    <contour>
      <point x="383" y="700" type="curve" smooth="yes"/>
      <point x="525" y="700"/>
      <point x="640" y="609"/>
      <point x="640" y="494" type="curve" smooth="yes"/>
      <point x="640" y="466" type="line"/>
      <point x="441" y="466" type="line"/>
      <point x="441" y="494" type="line" smooth="yes"/>
      <point x="441" y="526"/>
      <point x="415" y="552"/>
      <point x="383" y="552" type="curve" smooth="yes"/>
      <point x="351" y="552"/>
      <point x="325" y="526"/>
      <point x="325" y="494" type="curve" smooth="yes"/>
      <point x="325" y="413" type="line"/>
      <point x="421" y="413" type="line"/>
      <point x="421" y="266" type="line"/>
      <point x="324" y="266" type="line"/>
      <point x="304" y="147" type="line"/>
      <point x="586" y="147" type="line"/>
      <point x="586" y="0" type="line"/>
      <point x="63" y="0" type="line"/>
      <point x="63" y="147" type="line"/>
      <point x="127" y="147" type="line"/>
      <point x="127" y="266" type="line"/>
      <point x="33" y="266" type="line"/>
      <point x="33" y="413" type="line"/>
      <point x="127" y="413" type="line"/>
      <point x="127" y="493" type="line" smooth="yes"/>
      <point x="127" y="609"/>
      <point x="242" y="700"/>
    </contour>
  </outline>
</glyph>
<glyph name="currency" format="1">
  <advance width="607"/>
  <unicode hex="00A4"/>
  <outline>
    <contour>
      <point x="565" y="535" type="line"/>
      <point x="509" y="479" type="line"/>
      <point x="536" y="451"/>
      <point x="551" y="395"/>
      <point x="551" y="339" type="curve" smooth="yes"/>
      <point x="551" y="284"/>
      <point x="535" y="232"/>
      <point x="507" y="197" type="curve"/>
      <point x="563" y="141" type="line"/>
      <point x="503" y="81" type="line"/>
      <point x="445" y="139" type="line"/>
      <point x="414" y="108"/>
      <point x="360" y="91"/>
      <point x="303" y="91" type="curve" smooth="yes"/>
      <point x="247" y="91"/>
      <point x="193" y="108"/>
      <point x="161" y="137" type="curve"/>
      <point x="104" y="80" type="line"/>
      <point x="43" y="141" type="line"/>
      <point x="101" y="199" type="line"/>
      <point x="72" y="232"/>
      <point x="55" y="283"/>
      <point x="55" y="339" type="curve" smooth="yes"/>
      <point x="55" y="394"/>
      <point x="70" y="448"/>
      <point x="101" y="479" type="curve"/>
      <point x="43" y="537" type="line"/>
      <point x="106" y="600" type="line"/>
      <point x="163" y="543" type="line"/>
      <point x="194" y="570"/>
      <point x="250" y="587"/>
      <point x="303" y="587" type="curve" smooth="yes"/>
      <point x="359" y="587"/>
      <point x="412" y="569"/>
      <point x="439" y="545" type="curve"/>
      <point x="497" y="603" type="line"/>
    </contour>
    <contour>
      <point x="303" y="477" type="curve" smooth="yes"/>
      <point x="228" y="477"/>
      <point x="175" y="415"/>
      <point x="175" y="339" type="curve" smooth="yes"/>
      <point x="175" y="262"/>
      <point x="230" y="201"/>
      <point x="303" y="201" type="curve" smooth="yes"/>
      <point x="380" y="201"/>
      <point x="431" y="264"/>
      <point x="431" y="339" type="curve" smooth="yes"/>
      <point x="431" y="414"/>
      <point x="380" y="477"/>
    </contour>
  </outline>
</glyph>
<glyph name="yen" format="1">
  <advance width="710"/>
  <unicode hex="00A5"/>
  <outline>
    <contour>
      <point x="563" y="457" type="line"/>
      <point x="647" y="457" type="line"/>
      <point x="647" y="364" type="line"/>
      <point x="514" y="364" type="line"/>
      <point x="488" y="317" type="line"/>
      <point x="647" y="317" type="line"/>
      <point x="647" y="224" type="line"/>
      <point x="459" y="224" type="line"/>
      <point x="459" y="0" type="line"/>
      <point x="250" y="0" type="line"/>
      <point x="250" y="224" type="line"/>
      <point x="68" y="224" type="line"/>
      <point x="68" y="317" type="line"/>
      <point x="221" y="317" type="line"/>
      <point x="195" y="364" type="line"/>
      <point x="68" y="364" type="line"/>
      <point x="68" y="457" type="line"/>
      <point x="145" y="457" type="line"/>
      <point x="22" y="686" type="line"/>
      <point x="258" y="686" type="line"/>
      <point x="361" y="461" type="line"/>
      <point x="366" y="461" type="line"/>
      <point x="471" y="686" type="line"/>
      <point x="686" y="686" type="line"/>
    </contour>
  </outline>
</glyph>
<glyph name="brokenbar" format="1">
  <advance width="272"/>
  <unicode hex="00A6"/>
  <outline>
    <contour>
      <point x="211" y="412" type="line"/>
      <point x="61" y="412" type="line"/>
      <point x="61" y="686" type="line"/>
      <point x="211" y="686" type="line"/>
    </contour>
    <contour>
      <point x="211" y="0" type="line"/>
      <point x="61" y="0" type="line"/>
      <point x="61" y="274" type="line"/>
      <point x="211" y="274" type="line"/>
    </contour>
  </outline>
</glyph>
<glyph name="section" format="1">
  <advance width="565"/>
  <unicode hex="00A7"/>
  <outline>
    <contour>
      <point x="278" y="696" type="curve" smooth="yes"/>
      <point x="377" y="696"/>
      <point x="514" y="663"/>
      <point x="514" y="543" type="curve" smooth="yes"/>
      <point x="514" y="533" type="line"/>
      <point x="350" y="533" type="line"/>
      <point x="350" y="566"/>
      <point x="314" y="578"/>
      <point x="287" y="578" type="curve" smooth="yes"/>
      <point x="266" y="578"/>
      <point x="217" y="574"/>
      <point x="217" y="542" type="curve" smooth="yes"/>
      <point x="217" y="514"/>
      <point x="252" y="491"/>
      <point x="299" y="472" type="curve" smooth="yes"/>
      <point x="376" y="440" type="line" smooth="yes"/>
      <point x="456" y="407"/>
      <point x="535" y="353"/>
      <point x="535" y="257" type="curve" smooth="yes"/>
      <point x="535" y="201"/>
      <point x="504" y="140"/>
      <point x="456" y="109" type="curve"/>
      <point x="498" y="85"/>
      <point x="521" y="29"/>
      <point x="521" y="-18" type="curve" smooth="yes"/>
      <point x="521" y="-143"/>
      <point x="390" y="-185"/>
      <point x="286" y="-185" type="curve" smooth="yes"/>
      <point x="187" y="-185"/>
      <point x="50" y="-152"/>
      <point x="50" y="-32" type="curve" smooth="yes"/>
      <point x="50" y="-25" type="line"/>
      <point x="214" y="-25" type="line"/>
      <point x="214" y="-58"/>
      <point x="250" y="-67"/>
      <point x="277" y="-67" type="curve" smooth="yes"/>
      <point x="298" y="-67"/>
      <point x="347" y="-63"/>
      <point x="347" y="-31" type="curve" smooth="yes"/>
      <point x="347" y="-2"/>
      <point x="312" y="18"/>
      <point x="265" y="38" type="curve" smooth="yes"/>
      <point x="188" y="71" type="line" smooth="yes"/>
      <point x="108" y="105"/>
      <point x="29" y="157"/>
      <point x="29" y="254" type="curve" smooth="yes"/>
      <point x="29" y="310"/>
      <point x="60" y="371"/>
      <point x="108" y="402" type="curve"/>
      <point x="65" y="426"/>
      <point x="43" y="482"/>
      <point x="43" y="529" type="curve" smooth="yes"/>
      <point x="43" y="654"/>
      <point x="174" y="696"/>
    </contour>
    <contour>
      <point x="211" y="343" type="curve"/>
      <point x="192" y="335"/>
      <point x="181" y="314"/>
      <point x="181" y="294" type="curve" smooth="yes"/>
      <point x="181" y="226"/>
      <point x="305" y="188"/>
      <point x="358" y="164" type="curve"/>
      <point x="377" y="172"/>
      <point x="388" y="193"/>
      <point x="388" y="213" type="curve" smooth="yes"/>
      <point x="388" y="282"/>
      <point x="263" y="318"/>
    </contour>
  </outline>
</glyph>
<glyph name="dieresis" format="1">
  <advance width="440"/>
  <unicode hex="00A8"/>
  <outline>
    <contour>
      <point x="189" y="603" type="line"/>
      <point x="37" y="603" type="line"/>
      <point x="37" y="750" type="line"/>
      <point x="189" y="750" type="line"/>
    </contour>
    <contour>
      <point x="409" y="603" type="line"/>
      <point x="257" y="603" type="line"/>
      <point x="257" y="750" type="line"/>
      <point x="409" y="750" type="line"/>
    </contour>
  </outline>
</glyph>
<glyph name="copyright" format="1">
  <advance width="770"/>
  <unicode hex="00A9"/>
  <outline>
    <contour>
      <point x="385" y="696" type="curve" smooth="yes"/>
      <point x="580" y="696"/>
      <point x="739" y="539"/>
      <point x="739" y="344" type="curve" smooth="yes"/>
      <point x="739" y="147"/>
      <point x="580" y="-10"/>
      <point x="385" y="-10" type="curve" smooth="yes"/>
      <point x="188" y="-10"/>
      <point x="31" y="147"/>
      <point x="31" y="344" type="curve" smooth="yes"/>
      <point x="31" y="539"/>
      <point x="188" y="696"/>
    </contour>
    <contour>
      <point x="385" y="632" type="curve" smooth="yes"/>
      <point x="214" y="632"/>
      <point x="107" y="518"/>
      <point x="107" y="344" type="curve" smooth="yes"/>
      <point x="107" y="168"/>
      <point x="214" y="55"/>
      <point x="385" y="55" type="curve" smooth="yes"/>
      <point x="553" y="55"/>
      <point x="663" y="168"/>
      <point x="663" y="344" type="curve" smooth="yes"/>
      <point x="663" y="518"/>
      <point x="553" y="632"/>
    </contour>
    <contour>
      <point x="378" y="555" type="curve" smooth="yes"/>
      <point x="394" y="555" type="line" smooth="yes"/>
      <point x="492" y="555"/>
      <point x="568" y="497"/>
      <point x="568" y="380" type="curve"/>
      <point x="450" y="380" type="line"/>
      <point x="450" y="401" type="line" smooth="yes"/>
      <point x="450" y="438"/>
      <point x="423" y="461"/>
      <point x="387" y="461" type="curve" smooth="yes"/>
      <point x="354" y="461"/>
      <point x="327" y="434"/>
      <point x="327" y="401" type="curve" smooth="yes"/>
      <point x="327" y="285" type="line" smooth="yes"/>
      <point x="327" y="252"/>
      <point x="354" y="225"/>
      <point x="387" y="225" type="curve" smooth="yes"/>
      <point x="396" y="225" type="line" smooth="yes"/>
      <point x="429" y="225"/>
      <point x="456" y="246"/>
      <point x="456" y="285" type="curve" smooth="yes"/>
      <point x="456" y="305" type="line"/>
      <point x="568" y="305" type="line"/>
      <point x="568" y="197"/>
      <point x="495" y="131"/>
      <point x="399" y="131" type="curve" smooth="yes"/>
      <point x="382" y="131" type="line" smooth="yes"/>
      <point x="277" y="131"/>
      <point x="192" y="196"/>
      <point x="192" y="311" type="curve" smooth="yes"/>
      <point x="192" y="375" type="line" smooth="yes"/>
      <point x="192" y="483"/>
      <point x="278" y="555"/>
    </contour>
  </outline>
</glyph>
<glyph name="ordfeminine" format="1">
  <advance width="420"/>
  <unicode hex="00AA"/>
  <outline>
    <contour>
      <point x="187" y="695" type="curve" smooth="yes"/>
      <point x="207" y="695" type="line" smooth="yes"/>
      <point x="304" y="695"/>
      <point x="350" y="653"/>
      <point x="350" y="597" type="curve" smooth="yes"/>
      <point x="350" y="471" type="line" smooth="yes"/>
      <point x="350" y="455"/>
      <point x="361" y="449"/>
      <point x="369" y="449" type="curve" smooth="yes"/>
      <point x="372" y="449"/>
      <point x="377" y="450"/>
      <point x="382" y="451" type="curve" smooth="yes"/>
      <point x="390" y="454" type="line"/>
      <point x="390" y="390" type="line"/>
      <point x="377" y="382"/>
      <point x="358" y="376"/>
      <point x="329" y="376" type="curve" smooth="yes"/>
      <point x="276" y="376"/>
      <point x="248" y="396"/>
      <point x="241" y="425" type="curve"/>
      <point x="220" y="401"/>
      <point x="191" y="376"/>
      <point x="142" y="376" type="curve" smooth="yes"/>
      <point x="93" y="376"/>
      <point x="34" y="386"/>
      <point x="34" y="468" type="curve" smooth="yes"/>
      <point x="34" y="552"/>
      <point x="111" y="572"/>
      <point x="235" y="572" type="curve"/>
      <point x="235" y="589" type="line" smooth="yes"/>
      <point x="235" y="612"/>
      <point x="219" y="625"/>
      <point x="196" y="625" type="curve" smooth="yes"/>
      <point x="180" y="625"/>
      <point x="158" y="615"/>
      <point x="158" y="594" type="curve"/>
      <point x="44" y="594" type="line"/>
      <point x="43" y="603" type="line"/>
      <point x="43" y="655"/>
      <point x="99" y="695"/>
    </contour>
    <contour>
      <point x="235" y="491" type="curve" smooth="yes"/>
      <point x="235" y="517" type="line"/>
      <point x="180" y="517"/>
      <point x="158" y="500"/>
      <point x="158" y="477" type="curve" smooth="yes"/>
      <point x="158" y="454"/>
      <point x="175" y="449"/>
      <point x="194" y="449" type="curve" smooth="yes"/>
      <point x="217" y="449"/>
      <point x="235" y="464"/>
    </contour>
  </outline>
</glyph>
<glyph name="guillemetleft" format="1">
  <advance width="442"/>
  <unicode hex="00AB"/>
  <outline>
    <contour>
      <point x="139" y="337" type="line"/>
      <point x="224" y="163" type="line"/>
      <point x="150" y="163" type="line"/>
      <point x="30" y="337" type="line"/>
      <point x="150" y="511" type="line"/>
      <point x="224" y="511" type="line"/>
    </contour>
    <contour>
      <point x="320" y="337" type="line"/>
      <point x="405" y="163" type="line"/>
      <point x="331" y="163" type="line"/>
      <point x="211" y="337" type="line"/>
      <point x="331" y="511" type="line"/>
      <point x="405" y="511" type="line"/>
    </contour>
  </outline>
</glyph>
<glyph name="logicalnot" format="1">
  <advance width="623"/>
  <unicode hex="00AC"/>
  <outline>
    <contour>
      <point x="571" y="158" type="line"/>
      <point x="421" y="158" type="line"/>
      <point x="421" y="334" type="line"/>
      <point x="33" y="334" type="line"/>
      <point x="33" y="484" type="line"/>
      <point x="571" y="484" type="line"/>
    </contour>
  </outline>
</glyph>
<glyph name="registered" format="1">
  <advance width="770"/>
  <unicode hex="00AE"/>
  <outline>
    <contour>
      <point x="385" y="696" type="curve" smooth="yes"/>
      <point x="580" y="696"/>
      <point x="739" y="539"/>
      <point x="739" y="344" type="curve" smooth="yes"/>
      <point x="739" y="147"/>
      <point x="580" y="-10"/>
      <point x="385" y="-10" type="curve" smooth="yes"/>
      <point x="188" y="-10"/>
      <point x="31" y="147"/>
      <point x="31" y="344" type="curve" smooth="yes"/>
      <point x="31" y="539"/>
      <point x="188" y="696"/>
    </contour>
    <contour>
      <point x="385" y="632" type="curve" smooth="yes"/>
      <point x="214" y="632"/>
      <point x="107" y="518"/>
      <point x="107" y="344" type="curve" smooth="yes"/>
      <point x="107" y="168"/>
      <point x="214" y="55"/>
      <point x="385" y="55" type="curve" smooth="yes"/>
      <point x="553" y="55"/>
      <point x="663" y="168"/>
      <point x="663" y="344" type="curve" smooth="yes"/>
      <point x="663" y="518"/>
      <point x="553" y="632"/>
    </contour>
    <contour>
      <point x="220" y="547" type="line"/>
      <point x="451" y="547" type="line" smooth="yes"/>
      <point x="510" y="547"/>
      <point x="565" y="507"/>
      <point x="565" y="445" type="curve" smooth="yes"/>
      <point x="565" y="401"/>
      <point x="534" y="362"/>
      <point x="491" y="354" type="curve"/>
      <point x="490" y="351" type="line"/>
      <point x="537" y="336"/>
      <point x="557" y="290"/>
      <point x="557" y="239" type="curve" smooth="yes"/>
      <point x="557" y="214"/>
      <point x="558" y="173"/>
      <point x="587" y="165" type="curve"/>
      <point x="587" y="141" type="line"/>
      <point x="566" y="132"/>
      <point x="538" y="129"/>
      <point x="515" y="129" type="curve" smooth="yes"/>
      <point x="462" y="129"/>
      <point x="431" y="148"/>
      <point x="431" y="207" type="curve" smooth="yes"/>
      <point x="431" y="245"/>
      <point x="429" y="303"/>
      <point x="377" y="303" type="curve" smooth="yes"/>
      <point x="343" y="303" type="line"/>
      <point x="343" y="135" type="line"/>
      <point x="220" y="135" type="line"/>
    </contour>
    <contour>
      <point x="343" y="459" type="line"/>
      <point x="343" y="389" type="line"/>
      <point x="406" y="389" type="line" smooth="yes"/>
      <point x="423" y="389"/>
      <point x="436" y="402"/>
      <point x="436" y="419" type="curve" smooth="yes"/>
      <point x="436" y="429" type="line" smooth="yes"/>
      <point x="436" y="446"/>
      <point x="423" y="459"/>
      <point x="406" y="459" type="curve" smooth="yes"/>
    </contour>
  </outline>
</glyph>
<glyph name="degree" format="1">
  <advance width="354"/>
  <unicode hex="00B0"/>
  <outline>
    <contour>
      <point x="177" y="696" type="curve" smooth="yes"/>
      <point x="259" y="696"/>
      <point x="327" y="628"/>
      <point x="327" y="546" type="curve" smooth="yes"/>
      <point x="327" y="463"/>
      <point x="259" y="396"/>
      <point x="177" y="396" type="curve" smooth="yes"/>
      <point x="94" y="396"/>
      <point x="27" y="463"/>
      <point x="27" y="546" type="curve" smooth="yes"/>
      <point x="27" y="628"/>
      <point x="94" y="696"/>
    </contour>
    <contour>
      <point x="175" y="607" type="curve" smooth="yes"/>
      <point x="143" y="607"/>
      <point x="114" y="580"/>
      <point x="114" y="545" type="curve" smooth="yes"/>
      <point x="114" y="510"/>
      <point x="141" y="483"/>
      <point x="176" y="483" type="curve" smooth="yes"/>
      <point x="211" y="483"/>
      <point x="238" y="510"/>
      <point x="238" y="545" type="curve" smooth="yes"/>
      <point x="238" y="580"/>
      <point x="210" y="607"/>
    </contour>
  </outline>
</glyph>
<glyph name="plusminus" format="1">
  <advance width="615"/>
  <unicode hex="00B1"/>
  <outline>
    <contour>
      <point x="371" y="400" type="line"/>
      <point x="563" y="400" type="line"/>
      <point x="563" y="272" type="line"/>
      <point x="371" y="272" type="line"/>
      <point x="371" y="160" type="line"/>
      <point x="243" y="160" type="line"/>
      <point x="243" y="272" type="line"/>
      <point x="51" y="272" type="line"/>
      <point x="51" y="400" type="line"/>
      <point x="243" y="400" type="line"/>
      <point x="243" y="512" type="line"/>
      <point x="371" y="512" type="line"/>
    </contour>
    <contour>
      <point x="563" y="0" type="line"/>
      <point x="51" y="0" type="line"/>
      <point x="51" y="128" type="line"/>
      <point x="563" y="128" type="line"/>
    </contour>
  </outline>
</glyph>
<glyph name="twosuperior" format="1">
  <advance width="370"/>
  <unicode hex="00B2"/>
  <outline>
    <contour>
      <point x="177" y="804" type="curve" smooth="yes"/>
      <point x="194" y="804" type="line" smooth="yes"/>
      <point x="274" y="804"/>
      <point x="326" y="756"/>
      <point x="326" y="685" type="curve" smooth="yes"/>
      <point x="326" y="627"/>
      <point x="296" y="592"/>
      <point x="244" y="556" type="curve" smooth="yes"/>
      <point x="185" y="512" type="line"/>
      <point x="326" y="512" type="line"/>
      <point x="326" y="422" type="line"/>
      <point x="39" y="422" type="line"/>
      <point x="39" y="441" type="line" smooth="yes"/>
      <point x="39" y="482"/>
      <point x="51" y="507"/>
      <point x="82" y="534" type="curve" smooth="yes"/>
      <point x="188" y="626" type="line" smooth="yes"/>
      <point x="207" y="643"/>
      <point x="217" y="662"/>
      <point x="217" y="683" type="curve" smooth="yes"/>
      <point x="217" y="704"/>
      <point x="201" y="720"/>
      <point x="180" y="720" type="curve" smooth="yes"/>
      <point x="173" y="720" type="line" smooth="yes"/>
      <point x="152" y="720"/>
      <point x="135" y="704"/>
      <point x="135" y="683" type="curve" smooth="yes"/>
      <point x="135" y="668" type="line"/>
      <point x="40" y="668" type="line"/>
      <point x="40" y="678" type="line" smooth="yes"/>
      <point x="40" y="747"/>
      <point x="89" y="804"/>
    </contour>
  </outline>
</glyph>
<glyph name="threesuperior" format="1">
  <advance width="355"/>
  <unicode hex="00B3"/>
  <outline>
    <contour>
      <point x="168" y="801" type="curve" smooth="yes"/>
      <point x="184" y="801" type="line" smooth="yes"/>
      <point x="263" y="801"/>
      <point x="313" y="757"/>
      <point x="313" y="701" type="curve" smooth="yes"/>
      <point x="313" y="662"/>
      <point x="293" y="629"/>
      <point x="262" y="616" type="curve"/>
      <point x="301" y="601"/>
      <point x="324" y="568"/>
      <point x="324" y="520" type="curve" smooth="yes"/>
      <point x="324" y="460"/>
      <point x="276" y="413"/>
      <point x="184" y="413" type="curve" smooth="yes"/>
      <point x="162" y="413" type="line" smooth="yes"/>
      <point x="70" y="413"/>
      <point x="22" y="460"/>
      <point x="22" y="520" type="curve" smooth="yes"/>
      <point x="22" y="531" type="line"/>
      <point x="117" y="531" type="line"/>
      <point x="117" y="510"/>
      <point x="129" y="493"/>
      <point x="160" y="493" type="curve" smooth="yes"/>
      <point x="174" y="493" type="line" smooth="yes"/>
      <point x="203" y="493"/>
      <point x="217" y="512"/>
      <point x="217" y="537" type="curve" smooth="yes"/>
      <point x="217" y="568"/>
      <point x="200" y="578"/>
      <point x="179" y="578" type="curve" smooth="yes"/>
      <point x="124" y="578" type="line"/>
      <point x="124" y="644" type="line"/>
      <point x="171" y="644" type="line" smooth="yes"/>
      <point x="192" y="644"/>
      <point x="208" y="654"/>
      <point x="208" y="685" type="curve" smooth="yes"/>
      <point x="208" y="704"/>
      <point x="192" y="721"/>
      <point x="171" y="721" type="curve" smooth="yes"/>
      <point x="161" y="721" type="line" smooth="yes"/>
      <point x="140" y="721"/>
      <point x="124" y="706"/>
      <point x="124" y="687" type="curve"/>
      <point x="34" y="687" type="line"/>
      <point x="34" y="700" type="line" smooth="yes"/>
      <point x="34" y="756"/>
      <point x="87" y="801"/>
    </contour>
  </outline>
</glyph>
<glyph name="acute" format="1">
  <advance width="333"/>
  <unicode hex="00B4"/>
  <outline>
    <contour>
      <point x="286" y="717" type="line"/>
      <point x="160" y="575" type="line"/>
      <point x="42" y="575" type="line"/>
      <point x="133" y="720" type="line"/>
      <point x="284" y="720" type="line"/>
    </contour>
  </outline>
</glyph>
<glyph name="micro" format="1">
  <advance width="649"/>
  <unicode hex="00B5"/>
  <outline>
    <contour>
      <point x="558" y="511" type="line"/>
      <point x="558" y="148" type="line" smooth="yes"/>
      <point x="558" y="121"/>
      <point x="574" y="111"/>
      <point x="589" y="111" type="curve" smooth="yes"/>
      <point x="601" y="111"/>
      <point x="613" y="114"/>
      <point x="624" y="120" type="curve"/>
      <point x="624" y="13" type="line"/>
      <point x="606" y="0"/>
      <point x="575" y="-10"/>
      <point x="523" y="-10" type="curve" smooth="yes"/>
      <point x="434" y="-10"/>
      <point x="395" y="20"/>
      <point x="376" y="71" type="curve"/>
      <point x="361" y="50"/>
      <point x="307" y="6"/>
      <point x="246" y="-2" type="curve"/>
      <point x="250" y="-26" type="line" smooth="yes"/>
      <point x="252" y="-41"/>
      <point x="254" y="-60"/>
      <point x="254" y="-83" type="curve" smooth="yes"/>
      <point x="254" y="-161" type="line"/>
      <point x="56" y="-161" type="line"/>
      <point x="56" y="511" type="line"/>
      <point x="254" y="511" type="line"/>
      <point x="254" y="191" type="line" smooth="yes"/>
      <point x="254" y="158"/>
      <point x="278" y="131"/>
      <point x="307" y="131" type="curve" smooth="yes"/>
      <point x="336" y="131"/>
      <point x="360" y="158"/>
      <point x="360" y="191" type="curve" smooth="yes"/>
      <point x="360" y="511" type="line"/>
    </contour>
  </outline>
</glyph>
<glyph name="paragraph" format="1">
  <advance width="582"/>
  <unicode hex="00B6"/>
  <outline>
    <contour>
      <point x="548" y="607" type="line"/>
      <point x="482" y="607" type="line"/>
      <point x="482" y="-161" type="line"/>
      <point x="394" y="-161" type="line"/>
      <point x="394" y="607" type="line"/>
      <point x="318" y="607" type="line"/>
      <point x="318" y="-161" type="line"/>
      <point x="230" y="-161" type="line"/>
      <point x="230" y="253" type="line"/>
      <point x="114" y="256"/>
      <point x="23" y="353"/>
      <point x="23" y="469" type="curve" smooth="yes"/>
      <point x="23" y="589"/>
      <point x="119" y="686"/>
      <point x="239" y="686" type="curve" smooth="yes"/>
      <point x="548" y="686" type="line"/>
    </contour>
  </outline>
</glyph>
<glyph name="cedilla" format="1">
  <advance width="334"/>
  <unicode hex="00B8"/>
  <outline>
    <contour>
      <point x="148" y="-17" type="line"/>
      <point x="169" y="-17" type="line" smooth="yes"/>
      <point x="228" y="-17"/>
      <point x="291" y="-34"/>
      <point x="291" y="-108" type="curve" smooth="yes"/>
      <point x="291" y="-181"/>
      <point x="218" y="-197"/>
      <point x="173" y="-197" type="curve" smooth="yes"/>
      <point x="126" y="-197"/>
      <point x="76" y="-185"/>
      <point x="47" y="-161" type="curve"/>
      <point x="79" y="-107" type="line"/>
      <point x="95" y="-121"/>
      <point x="121" y="-139"/>
      <point x="164" y="-139" type="curve" smooth="yes"/>
      <point x="188" y="-139"/>
      <point x="204" y="-131"/>
      <point x="204" y="-108" type="curve" smooth="yes"/>
      <point x="204" y="-88"/>
      <point x="195" y="-76"/>
      <point x="166" y="-76" type="curve" smooth="yes"/>
      <point x="148" y="-76" type="line"/>
    </contour>
  </outline>
</glyph>
<glyph name="onesuperior" format="1">
  <advance width="339"/>
  <unicode hex="00B9"/>
  <outline>
    <contour>
      <point x="228" y="504" type="line"/>
      <point x="306" y="504" type="line"/>
      <point x="306" y="422" type="line"/>
      <point x="41" y="422" type="line"/>
      <point x="41" y="504" type="line"/>
      <point x="123" y="504" type="line"/>
      <point x="123" y="676" type="line"/>
      <point x="41" y="676" type="line"/>
      <point x="41" y="738" type="line"/>
      <point x="89" y="741"/>
      <point x="152" y="770"/>
      <point x="192" y="796" type="curve"/>
      <point x="228" y="796" type="line"/>
    </contour>
  </outline>
</glyph>
<glyph name="ordmasculine" format="1">
  <advance width="397"/>
  <unicode hex="00BA"/>
  <outline>
    <contour>
      <point x="189" y="697" type="curve" smooth="yes"/>
      <point x="208" y="697" type="line" smooth="yes"/>
      <point x="299" y="697"/>
      <point x="367" y="634"/>
      <point x="367" y="544" type="curve" smooth="yes"/>
      <point x="367" y="531" type="line" smooth="yes"/>
      <point x="367" y="440"/>
      <point x="299" y="378"/>
      <point x="208" y="378" type="curve" smooth="yes"/>
      <point x="189" y="378" type="line" smooth="yes"/>
      <point x="98" y="378"/>
      <point x="30" y="440"/>
      <point x="30" y="531" type="curve" smooth="yes"/>
      <point x="30" y="544" type="line" smooth="yes"/>
      <point x="30" y="634"/>
      <point x="98" y="697"/>
    </contour>
    <contour>
      <point x="199" y="624" type="curve" smooth="yes"/>
      <point x="176" y="624"/>
      <point x="157" y="605"/>
      <point x="157" y="582" type="curve" smooth="yes"/>
      <point x="157" y="493" type="line" smooth="yes"/>
      <point x="157" y="469"/>
      <point x="176" y="451"/>
      <point x="199" y="451" type="curve" smooth="yes"/>
      <point x="222" y="451"/>
      <point x="240" y="469"/>
      <point x="240" y="493" type="curve" smooth="yes"/>
      <point x="240" y="582" type="line" smooth="yes"/>
      <point x="240" y="605"/>
      <point x="222" y="624"/>
    </contour>
  </outline>
</glyph>
<glyph name="guillemetright" format="1">
  <advance width="442"/>
  <unicode hex="00BB"/>
  <outline>
    <contour>
      <point x="231" y="337" type="line"/>
      <point x="111" y="163" type="line"/>
      <point x="37" y="163" type="line"/>
      <point x="122" y="337" type="line"/>
      <point x="37" y="511" type="line"/>
      <point x="111" y="511" type="line"/>
    </contour>
    <contour>
      <point x="412" y="337" type="line"/>
      <point x="292" y="163" type="line"/>
      <point x="218" y="163" type="line"/>
      <point x="303" y="337" type="line"/>
      <point x="218" y="511" type="line"/>
      <point x="292" y="511" type="line"/>
    </contour>
  </outline>
</glyph>
<glyph name="onequarter" format="1">
  <advance width="766"/>
  <unicode hex="00BC"/>
  <outline>
    <contour>
      <point x="234" y="0" type="line"/>
      <point x="145" y="0" type="line"/>
      <point x="565" y="686" type="line"/>
      <point x="651" y="686" type="line"/>
    </contour>
    <contour>
      <point x="224" y="393" type="line"/>
      <point x="302" y="393" type="line"/>
      <point x="302" y="311" type="line"/>
      <point x="37" y="311" type="line"/>
      <point x="37" y="393" type="line"/>
      <point x="119" y="393" type="line"/>
      <point x="119" y="565" type="line"/>
      <point x="37" y="565" type="line"/>
      <point x="37" y="627" type="line"/>
      <point x="85" y="630"/>
      <point x="148" y="659"/>
      <point x="188" y="685" type="curve"/>
      <point x="224" y="685" type="line"/>
    </contour>
    <contour>
      <point x="518" y="375" type="curve"/>
      <point x="613" y="375" type="line"/>
      <point x="605" y="318"/>
      <point x="542" y="207"/>
      <point x="504" y="161" type="curve"/>
      <point x="585" y="161" type="line"/>
      <point x="585" y="216" type="line"/>
      <point x="603" y="242"/>
      <point x="633" y="309"/>
      <point x="641" y="339" type="curve"/>
      <point x="686" y="339" type="line"/>
      <point x="686" y="161" type="line"/>
      <point x="739" y="161" type="line"/>
      <point x="739" y="81" type="line"/>
      <point x="686" y="81" type="line"/>
      <point x="686" y="0" type="line"/>
      <point x="585" y="0" type="line"/>
      <point x="585" y="81" type="line"/>
      <point x="434" y="81" type="line"/>
      <point x="434" y="162" type="line"/>
      <point x="461" y="210"/>
      <point x="507" y="322"/>
    </contour>
  </outline>
</glyph>
<glyph name="onehalf" format="1">
  <advance width="765"/>
  <unicode hex="00BD"/>
  <outline>
    <contour>
      <point x="221" y="394" type="line"/>
      <point x="299" y="394" type="line"/>
      <point x="299" y="312" type="line"/>
      <point x="34" y="312" type="line"/>
      <point x="34" y="394" type="line"/>
      <point x="116" y="394" type="line"/>
      <point x="116" y="566" type="line"/>
      <point x="34" y="566" type="line"/>
      <point x="34" y="628" type="line"/>
      <point x="82" y="631"/>
      <point x="145" y="660"/>
      <point x="185" y="686" type="curve"/>
      <point x="221" y="686" type="line"/>
    </contour>
    <contour>
      <point x="231" y="0" type="line"/>
      <point x="142" y="0" type="line"/>
      <point x="562" y="686" type="line"/>
      <point x="648" y="686" type="line"/>
    </contour>
    <contour>
      <point x="587" y="382" type="curve" smooth="yes"/>
      <point x="604" y="382" type="line" smooth="yes"/>
      <point x="684" y="382"/>
      <point x="736" y="334"/>
      <point x="736" y="263" type="curve" smooth="yes"/>
      <point x="736" y="205"/>
      <point x="706" y="170"/>
      <point x="654" y="134" type="curve" smooth="yes"/>
      <point x="595" y="90" type="line"/>
      <point x="736" y="90" type="line"/>
      <point x="736" y="0" type="line"/>
      <point x="449" y="0" type="line"/>
      <point x="449" y="19" type="line" smooth="yes"/>
      <point x="449" y="60"/>
      <point x="461" y="85"/>
      <point x="492" y="112" type="curve" smooth="yes"/>
      <point x="598" y="204" type="line" smooth="yes"/>
      <point x="617" y="221"/>
      <point x="627" y="240"/>
      <point x="627" y="261" type="curve" smooth="yes"/>
      <point x="627" y="282"/>
      <point x="611" y="298"/>
      <point x="590" y="298" type="curve" smooth="yes"/>
      <point x="583" y="298" type="line" smooth="yes"/>
      <point x="562" y="298"/>
      <point x="545" y="282"/>
      <point x="545" y="261" type="curve" smooth="yes"/>
      <point x="545" y="246" type="line"/>
      <point x="450" y="246" type="line"/>
      <point x="450" y="256" type="line" smooth="yes"/>
      <point x="450" y="325"/>
      <point x="499" y="382"/>
    </contour>
  </outline>
</glyph>
<glyph name="threequarters" format="1">
  <advance width="757"/>
  <unicode hex="00BE"/>
  <outline>
    <contour>
      <point x="173" y="693" type="curve" smooth="yes"/>
      <point x="189" y="693" type="line" smooth="yes"/>
      <point x="268" y="693"/>
      <point x="318" y="649"/>
      <point x="318" y="593" type="curve" smooth="yes"/>
      <point x="318" y="554"/>
      <point x="298" y="521"/>
      <point x="267" y="508" type="curve"/>
      <point x="306" y="493"/>
      <point x="329" y="460"/>
      <point x="329" y="412" type="curve" smooth="yes"/>
      <point x="329" y="352"/>
      <point x="281" y="305"/>
      <point x="189" y="305" type="curve" smooth="yes"/>
      <point x="167" y="305" type="line" smooth="yes"/>
      <point x="75" y="305"/>
      <point x="27" y="352"/>
      <point x="27" y="412" type="curve" smooth="yes"/>
      <point x="27" y="423" type="line"/>
      <point x="122" y="423" type="line"/>
      <point x="122" y="402"/>
      <point x="134" y="385"/>
      <point x="165" y="385" type="curve" smooth="yes"/>
      <point x="179" y="385" type="line" smooth="yes"/>
      <point x="208" y="385"/>
      <point x="222" y="404"/>
      <point x="222" y="429" type="curve" smooth="yes"/>
      <point x="222" y="460"/>
      <point x="205" y="470"/>
      <point x="184" y="470" type="curve" smooth="yes"/>
      <point x="129" y="470" type="line"/>
      <point x="129" y="536" type="line"/>
      <point x="176" y="536" type="line" smooth="yes"/>
      <point x="197" y="536"/>
      <point x="213" y="546"/>
      <point x="213" y="577" type="curve" smooth="yes"/>
      <point x="213" y="596"/>
      <point x="197" y="613"/>
      <point x="176" y="613" type="curve" smooth="yes"/>
      <point x="166" y="613" type="line" smooth="yes"/>
      <point x="145" y="613"/>
      <point x="129" y="598"/>
      <point x="129" y="579" type="curve"/>
      <point x="39" y="579" type="line"/>
      <point x="39" y="592" type="line" smooth="yes"/>
      <point x="39" y="648"/>
      <point x="92" y="693"/>
    </contour>
    <contour>
      <point x="225" y="0" type="line"/>
      <point x="136" y="0" type="line"/>
      <point x="556" y="686" type="line"/>
      <point x="642" y="686" type="line"/>
    </contour>
    <contour>
      <point x="509" y="375" type="curve"/>
      <point x="604" y="375" type="line"/>
      <point x="596" y="318"/>
      <point x="533" y="207"/>
      <point x="495" y="161" type="curve"/>
      <point x="576" y="161" type="line"/>
      <point x="576" y="216" type="line"/>
      <point x="594" y="242"/>
      <point x="624" y="309"/>
      <point x="632" y="339" type="curve"/>
      <point x="677" y="339" type="line"/>
      <point x="677" y="161" type="line"/>
      <point x="730" y="161" type="line"/>
      <point x="730" y="81" type="line"/>
      <point x="677" y="81" type="line"/>
      <point x="677" y="0" type="line"/>
      <point x="576" y="0" type="line"/>
      <point x="576" y="81" type="line"/>
      <point x="425" y="81" type="line"/>
      <point x="425" y="162" type="line"/>
      <point x="452" y="210"/>
      <point x="498" y="322"/>
    </contour>
  </outline>
</glyph>
<glyph name="questiondown" format="1">
  <advance width="577"/>
  <unicode hex="00BF"/>
  <outline>
    <contour>
      <point x="376" y="328" type="line"/>
      <point x="185" y="328" type="line"/>
      <point x="185" y="511" type="line"/>
      <point x="376" y="511" type="line"/>
    </contour>
    <contour>
      <point x="368" y="292" type="line"/>
      <point x="368" y="233" type="line" smooth="yes"/>
      <point x="368" y="153"/>
      <point x="238" y="111"/>
      <point x="238" y="22" type="curve" smooth="yes"/>
      <point x="238" y="-15"/>
      <point x="265" y="-48"/>
      <point x="304" y="-48" type="curve" smooth="yes"/>
      <point x="356" y="-48"/>
      <point x="371" y="-8"/>
      <point x="371" y="32" type="curve" smooth="yes"/>
      <point x="371" y="43"/>
      <point x="370" y="53"/>
      <point x="368" y="63" type="curve"/>
      <point x="552" y="63" type="line"/>
      <point x="553" y="50"/>
      <point x="555" y="38"/>
      <point x="555" y="25" type="curve" smooth="yes"/>
      <point x="555" y="-106"/>
      <point x="423" y="-186"/>
      <point x="304" y="-186" type="curve" smooth="yes"/>
      <point x="266" y="-186" type="line" smooth="yes"/>
      <point x="142" y="-186"/>
      <point x="26" y="-100"/>
      <point x="26" y="30" type="curve" smooth="yes"/>
      <point x="26" y="107"/>
      <point x="68" y="157"/>
      <point x="111" y="188" type="curve" smooth="yes"/>
      <point x="153" y="218" type="line" smooth="yes"/>
      <point x="178" y="236"/>
      <point x="196" y="251"/>
      <point x="197" y="270" type="curve" smooth="yes"/>
      <point x="197" y="292" type="line"/>
    </contour>
  </outline>
</glyph>
<glyph name="Aacute" format="1">
  <advance width="709"/>
  <unicode hex="00C1"/>
  <outline>
    <contour>
      <point x="545" y="893" type="line"/>
      <point x="419" y="751" type="line"/>
      <point x="301" y="751" type="line"/>
      <point x="392" y="896" type="line"/>
      <point x="543" y="896" type="line"/>
    </contour>
    <contour>
      <point x="714" y="0" type="line"/>
      <point x="496" y="0" type="line"/>
      <point x="455" y="122" type="line"/>
      <point x="237" y="122" type="line"/>
      <point x="197" y="0" type="line"/>
      <point x="-5" y="0" type="line"/>
      <point x="224" y="686" type="line"/>
      <point x="485" y="686" type="line"/>
    </contour>
    <contour>
      <point x="344" y="475" type="line"/>
      <point x="285" y="267" type="line"/>
      <point x="407" y="267" type="line"/>
      <point x="349" y="475" type="line"/>
    </contour>
  </outline>
</glyph>
<glyph name="Adieresis" format="1">
  <advance width="709"/>
  <unicode hex="00C4"/>
  <outline>
    <contour>
      <point x="314" y="750" type="line"/>
      <point x="162" y="750" type="line"/>
      <point x="162" y="897" type="line"/>
      <point x="314" y="897" type="line"/>
    </contour>
    <contour>
      <point x="534" y="750" type="line"/>
      <point x="382" y="750" type="line"/>
      <point x="382" y="897" type="line"/>
      <point x="534" y="897" type="line"/>
    </contour>
    <contour>
      <point x="714" y="0" type="line"/>
      <point x="496" y="0" type="line"/>
      <point x="455" y="122" type="line"/>
      <point x="237" y="122" type="line"/>
      <point x="197" y="0" type="line"/>
      <point x="-5" y="0" type="line"/>
      <point x="224" y="686" type="line"/>
      <point x="485" y="686" type="line"/>
    </contour>
    <contour>
      <point x="344" y="475" type="line"/>
      <point x="285" y="267" type="line"/>
      <point x="407" y="267" type="line"/>
      <point x="349" y="475" type="line"/>
    </contour>
  </outline>
</glyph>
<glyph name="Aring" format="1">
  <advance width="709"/>
  <unicode hex="00C5"/>
  <outline>
    <contour>
      <point x="354" y="937" type="curve" smooth="yes"/>
      <point x="409" y="937"/>
      <point x="455" y="892"/>
      <point x="455" y="836" type="curve" smooth="yes"/>
      <point x="455" y="781"/>
      <point x="410" y="736"/>
      <point x="354" y="736" type="curve" smooth="yes"/>
      <point x="299" y="736"/>
      <point x="253" y="779"/>
      <point x="253" y="836" type="curve" smooth="yes"/>
      <point x="253" y="892"/>
      <point x="298" y="937"/>
    </contour>
    <contour>
      <point x="354" y="871" type="curve" smooth="yes"/>
      <point x="334" y="871"/>
      <point x="319" y="855"/>
      <point x="319" y="835" type="curve" smooth="yes"/>
      <point x="319" y="816"/>
      <point x="335" y="801"/>
      <point x="354" y="801" type="curve" smooth="yes"/>
      <point x="374" y="801"/>
      <point x="389" y="817"/>
      <point x="389" y="837" type="curve" smooth="yes"/>
      <point x="389" y="856"/>
      <point x="373" y="871"/>
    </contour>
    <contour>
      <point x="714" y="0" type="line"/>
      <point x="496" y="0" type="line"/>
      <point x="455" y="122" type="line"/>
      <point x="237" y="122" type="line"/>
      <point x="197" y="0" type="line"/>
      <point x="-5" y="0" type="line"/>
      <point x="224" y="686" type="line"/>
      <point x="485" y="686" type="line"/>
    </contour>
    <contour>
      <point x="344" y="475" type="line"/>
      <point x="285" y="267" type="line"/>
      <point x="407" y="267" type="line"/>
      <point x="349" y="475" type="line"/>
    </contour>
  </outline>
</glyph>
<glyph name="AE" format="1">
  <advance width="1011"/>
  <unicode hex="00C6"/>
  <outline>
    <contour>
      <point x="963" y="528" type="line"/>
      <point x="603" y="528" type="line"/>
      <point x="622" y="428" type="line"/>
      <point x="952" y="428" type="line"/>
      <point x="952" y="275" type="line"/>
      <point x="652" y="275" type="line"/>
      <point x="674" y="164" type="line"/>
      <point x="963" y="164" type="line"/>
      <point x="983" y="0" type="line"/>
      <point x="487" y="0" type="line"/>
      <point x="463" y="122" type="line"/>
      <point x="245" y="122" type="line"/>
      <point x="187" y="0" type="line"/>
      <point x="-13" y="0" type="line"/>
      <point x="312" y="686" type="line"/>
      <point x="983" y="686" type="line"/>
    </contour>
    <contour>
      <point x="402" y="475" type="line"/>
      <point x="314" y="267" type="line"/>
      <point x="436" y="267" type="line"/>
      <point x="407" y="475" type="line"/>
    </contour>
  </outline>
</glyph>
<glyph name="Ccedilla" format="1">
  <advance width="683"/>
  <unicode hex="00C7"/>
  <outline>
    <contour>
      <point x="341" y="696" type="curve" smooth="yes"/>
      <point x="369" y="696" type="line" smooth="yes"/>
      <point x="532" y="696"/>
      <point x="659" y="600"/>
      <point x="659" y="405" type="curve"/>
      <point x="462" y="405" type="line"/>
      <point x="462" y="440" type="line" smooth="yes"/>
      <point x="462" y="503"/>
      <point x="418" y="540"/>
      <point x="362" y="540" type="curve" smooth="yes"/>
      <point x="357" y="540" type="line" smooth="yes"/>
      <point x="301" y="540"/>
      <point x="257" y="496"/>
      <point x="257" y="440" type="curve" smooth="yes"/>
      <point x="257" y="247" type="line" smooth="yes"/>
      <point x="257" y="191"/>
      <point x="301" y="147"/>
      <point x="357" y="147" type="curve" smooth="yes"/>
      <point x="371" y="147" type="line" smooth="yes"/>
      <point x="427" y="147"/>
      <point x="471" y="183"/>
      <point x="471" y="247" type="curve" smooth="yes"/>
      <point x="471" y="280" type="line"/>
      <point x="659" y="280" type="line"/>
      <point x="659" y="100"/>
      <point x="539" y="-10"/>
      <point x="377" y="-10" type="curve" smooth="yes"/>
      <point x="349" y="-10" type="line" smooth="yes"/>
      <point x="173" y="-10"/>
      <point x="31" y="100"/>
      <point x="31" y="290" type="curve" smooth="yes"/>
      <point x="31" y="396" type="line" smooth="yes"/>
      <point x="31" y="576"/>
      <point x="175" y="696"/>
    </contour>
    <contour>
      <point x="328" y="-17" type="line"/>
      <point x="349" y="-17" type="line" smooth="yes"/>
      <point x="408" y="-17"/>
      <point x="471" y="-34"/>
      <point x="471" y="-108" type="curve" smooth="yes"/>
      <point x="471" y="-181"/>
      <point x="398" y="-197"/>
      <point x="353" y="-197" type="curve" smooth="yes"/>
      <point x="306" y="-197"/>
      <point x="256" y="-185"/>
      <point x="227" y="-161" type="curve"/>
      <point x="259" y="-107" type="line"/>
      <point x="275" y="-121"/>
      <point x="301" y="-139"/>
      <point x="344" y="-139" type="curve" smooth="yes"/>
      <point x="368" y="-139"/>
      <point x="384" y="-131"/>
      <point x="384" y="-108" type="curve" smooth="yes"/>
      <point x="384" y="-88"/>
      <point x="375" y="-76"/>
      <point x="346" y="-76" type="curve" smooth="yes"/>
      <point x="328" y="-76" type="line"/>
    </contour>
  </outline>
</glyph>
<glyph name="Eacute" format="1">
  <advance width="600"/>
  <unicode hex="00C9"/>
  <outline>
    <contour>
      <point x="494" y="892" type="line"/>
      <point x="368" y="750" type="line"/>
      <point x="250" y="750" type="line"/>
      <point x="341" y="895" type="line"/>
      <point x="492" y="895" type="line"/>
    </contour>
    <contour>
      <point x="552" y="528" type="line"/>
      <point x="263" y="528" type="line"/>
      <point x="263" y="428" type="line"/>
      <point x="541" y="428" type="line"/>
      <point x="541" y="275" type="line"/>
      <point x="263" y="275" type="line"/>
      <point x="263" y="164" type="line"/>
      <point x="552" y="164" type="line"/>
      <point x="572" y="0" type="line"/>
      <point x="57" y="0" type="line"/>
      <point x="57" y="686" type="line"/>
      <point x="572" y="686" type="line"/>
    </contour>
  </outline>
</glyph>
<glyph name="Ecircumflex" format="1">
  <advance width="600"/>
  <unicode hex="00CA"/>
  <outline>
    <contour>
      <point x="518" y="751" type="line"/>
      <point x="388" y="751" type="line"/>
      <point x="314" y="828" type="line"/>
      <point x="240" y="751" type="line"/>
      <point x="112" y="751" type="line"/>
      <point x="251" y="896" type="line"/>
      <point x="379" y="896" type="line"/>
    </contour>
    <contour>
      <point x="552" y="528" type="line"/>
      <point x="263" y="528" type="line"/>
      <point x="263" y="428" type="line"/>
      <point x="541" y="428" type="line"/>
      <point x="541" y="275" type="line"/>
      <point x="263" y="275" type="line"/>
      <point x="263" y="164" type="line"/>
      <point x="552" y="164" type="line"/>
      <point x="572" y="0" type="line"/>
      <point x="57" y="0" type="line"/>
      <point x="57" y="686" type="line"/>
      <point x="572" y="686" type="line"/>
    </contour>
  </outline>
</glyph>
<glyph name="Edieresis" format="1">
  <advance width="600"/>
  <unicode hex="00CB"/>
  <outline>
    <contour>
      <point x="277" y="751" type="line"/>
      <point x="125" y="751" type="line"/>
      <point x="125" y="898" type="line"/>
      <point x="277" y="898" type="line"/>
    </contour>
    <contour>
      <point x="497" y="751" type="line"/>
      <point x="345" y="751" type="line"/>
      <point x="345" y="898" type="line"/>
      <point x="497" y="898" type="line"/>
    </contour>
    <contour>
      <point x="552" y="528" type="line"/>
      <point x="263" y="528" type="line"/>
      <point x="263" y="428" type="line"/>
      <point x="541" y="428" type="line"/>
      <point x="541" y="275" type="line"/>
      <point x="263" y="275" type="line"/>
      <point x="263" y="164" type="line"/>
      <point x="552" y="164" type="line"/>
      <point x="572" y="0" type="line"/>
      <point x="57" y="0" type="line"/>
      <point x="57" y="686" type="line"/>
      <point x="572" y="686" type="line"/>
    </contour>
  </outline>
</glyph>
<glyph name="Iacute" format="1">
  <advance width="446"/>
  <unicode hex="00CD"/>
  <outline>
    <contour>
      <point x="406" y="892" type="line"/>
      <point x="280" y="750" type="line"/>
      <point x="162" y="750" type="line"/>
      <point x="253" y="895" type="line"/>
      <point x="404" y="895" type="line"/>
    </contour>
    <contour>
      <point x="410" y="539" type="line"/>
      <point x="329" y="539" type="line"/>
      <point x="329" y="148" type="line"/>
      <point x="410" y="148" type="line"/>
      <point x="410" y="0" type="line"/>
      <point x="36" y="0" type="line"/>
      <point x="36" y="148" type="line"/>
      <point x="117" y="148" type="line"/>
      <point x="117" y="539" type="line"/>
      <point x="36" y="539" type="line"/>
      <point x="36" y="686" type="line"/>
      <point x="410" y="686" type="line"/>
    </contour>
  </outline>
</glyph>
<glyph name="Icircumflex" format="1">
  <advance width="446"/>
  <unicode hex="00CE"/>
  <outline>
    <contour>
      <point x="427" y="750" type="line"/>
      <point x="297" y="750" type="line"/>
      <point x="223" y="827" type="line"/>
      <point x="149" y="750" type="line"/>
      <point x="21" y="750" type="line"/>
      <point x="160" y="895" type="line"/>
      <point x="288" y="895" type="line"/>
    </contour>
    <contour>
      <point x="410" y="539" type="line"/>
      <point x="329" y="539" type="line"/>
      <point x="329" y="148" type="line"/>
      <point x="410" y="148" type="line"/>
      <point x="410" y="0" type="line"/>
      <point x="36" y="0" type="line"/>
      <point x="36" y="148" type="line"/>
      <point x="117" y="148" type="line"/>
      <point x="117" y="539" type="line"/>
      <point x="36" y="539" type="line"/>
      <point x="36" y="686" type="line"/>
      <point x="410" y="686" type="line"/>
    </contour>
  </outline>
</glyph>
<glyph name="Eth" format="1">
  <advance width="721"/>
  <unicode hex="00D0"/>
  <outline>
    <contour>
      <point x="83" y="686" type="line"/>
      <point x="392" y="686" type="line" smooth="yes"/>
      <point x="558" y="686"/>
      <point x="690" y="552"/>
      <point x="690" y="386" type="curve" smooth="yes"/>
      <point x="690" y="300" type="line" smooth="yes"/>
      <point x="690" y="134"/>
      <point x="558" y="0"/>
      <point x="392" y="0" type="curve" smooth="yes"/>
      <point x="83" y="0" type="line"/>
      <point x="83" y="297" type="line"/>
      <point x="7" y="297" type="line"/>
      <point x="7" y="391" type="line"/>
      <point x="83" y="391" type="line"/>
    </contour>
    <contour>
      <point x="292" y="530" type="line"/>
      <point x="292" y="391" type="line"/>
      <point x="371" y="391" type="line"/>
      <point x="371" y="297" type="line"/>
      <point x="292" y="297" type="line"/>
      <point x="292" y="159" type="line"/>
      <point x="372" y="159" type="line" smooth="yes"/>
      <point x="428" y="159"/>
      <point x="472" y="203"/>
      <point x="472" y="259" type="curve" smooth="yes"/>
      <point x="472" y="430" type="line" smooth="yes"/>
      <point x="472" y="486"/>
      <point x="428" y="530"/>
      <point x="372" y="530" type="curve" smooth="yes"/>
    </contour>
  </outline>
</glyph>
<glyph name="Otilde" format="1">
  <advance width="718"/>
  <unicode hex="00D5"/>
  <outline>
    <contour>
      <point x="498" y="893" type="curve"/>
      <point x="579" y="893" type="line"/>
      <point x="579" y="821"/>
      <point x="516" y="750"/>
      <point x="439" y="750" type="curve" smooth="yes"/>
      <point x="406" y="750"/>
      <point x="378" y="760"/>
      <point x="348" y="770" type="curve" smooth="yes"/>
      <point x="306" y="784" type="line" smooth="yes"/>
      <point x="293" y="788"/>
      <point x="279" y="790"/>
      <point x="266" y="790" type="curve" smooth="yes"/>
      <point x="241" y="790"/>
      <point x="223" y="773"/>
      <point x="216" y="750" type="curve"/>
      <point x="135" y="750" type="line"/>
      <point x="135" y="822"/>
      <point x="198" y="893"/>
      <point x="275" y="893" type="curve" smooth="yes"/>
      <point x="339" y="893"/>
      <point x="395" y="853"/>
      <point x="448" y="853" type="curve" smooth="yes"/>
      <point x="473" y="853"/>
      <point x="491" y="870"/>
    </contour>
    <contour>
      <point x="331" y="694" type="curve" smooth="yes"/>
      <point x="387" y="694" type="line" smooth="yes"/>
      <point x="553" y="694"/>
      <point x="687" y="560"/>
      <point x="687" y="394" type="curve" smooth="yes"/>
      <point x="687" y="290" type="line" smooth="yes"/>
      <point x="687" y="124"/>
      <point x="553" y="-10"/>
      <point x="387" y="-10" type="curve" smooth="yes"/>
      <point x="331" y="-10" type="line" smooth="yes"/>
      <point x="165" y="-10"/>
      <point x="31" y="124"/>
      <point x="31" y="290" type="curve" smooth="yes"/>
      <point x="31" y="394" type="line" smooth="yes"/>
      <point x="31" y="560"/>
      <point x="165" y="694"/>
    </contour>
    <contour>
      <point x="362" y="540" type="curve" smooth="yes"/>
      <point x="357" y="540" type="line" smooth="yes"/>
      <point x="301" y="540"/>
      <point x="257" y="496"/>
      <point x="257" y="440" type="curve" smooth="yes"/>
      <point x="257" y="247" type="line" smooth="yes"/>
      <point x="257" y="191"/>
      <point x="301" y="147"/>
      <point x="357" y="147" type="curve" smooth="yes"/>
      <point x="362" y="147" type="line" smooth="yes"/>
      <point x="418" y="147"/>
      <point x="462" y="191"/>
      <point x="462" y="247" type="curve" smooth="yes"/>
      <point x="462" y="440" type="line" smooth="yes"/>
      <point x="462" y="496"/>
      <point x="418" y="540"/>
    </contour>
  </outline>
</glyph>
<glyph name="Oslash" format="1">
  <advance width="718"/>
  <unicode hex="00D8"/>
  <outline>
    <contour>
      <point x="661" y="754" type="line"/>
      <point x="581" y="623" type="line"/>
      <point x="646" y="567"/>
      <point x="687" y="486"/>
      <point x="687" y="394" type="curve" smooth="yes"/>
      <point x="687" y="290" type="line" smooth="yes"/>
      <point x="687" y="124"/>
      <point x="553" y="-10"/>
      <point x="387" y="-10" type="curve" smooth="yes"/>
      <point x="331" y="-10" type="line" smooth="yes"/>
      <point x="289" y="-10"/>
      <point x="249" y="-2"/>
      <point x="210" y="15" type="curve"/>
      <point x="161" y="-65" type="line"/>
      <point x="53" y="-65" type="line"/>
      <point x="132" y="65" type="line"/>
      <point x="69" y="121"/>
      <point x="31" y="199"/>
      <point x="31" y="290" type="curve" smooth="yes"/>
      <point x="31" y="394" type="line" smooth="yes"/>
      <point x="31" y="560"/>
      <point x="165" y="694"/>
      <point x="331" y="694" type="curve" smooth="yes"/>
      <point x="387" y="694" type="line" smooth="yes"/>
      <point x="428" y="694"/>
      <point x="466" y="686"/>
      <point x="502" y="671" type="curve"/>
      <point x="553" y="754" type="line"/>
    </contour>
    <contour>
      <point x="362" y="540" type="curve" smooth="yes"/>
      <point x="357" y="540" type="line" smooth="yes"/>
      <point x="301" y="540"/>
      <point x="257" y="496"/>
      <point x="257" y="440" type="curve" smooth="yes"/>
      <point x="257" y="269" type="line"/>
      <point x="414" y="526" type="line"/>
      <point x="397" y="535"/>
      <point x="380" y="540"/>
    </contour>
    <contour>
      <point x="462" y="428" type="line"/>
      <point x="301" y="164" type="line"/>
      <point x="318" y="153"/>
      <point x="336" y="147"/>
      <point x="357" y="147" type="curve" smooth="yes"/>
      <point x="362" y="147" type="line" smooth="yes"/>
      <point x="418" y="147"/>
      <point x="462" y="191"/>
      <point x="462" y="247" type="curve" smooth="yes"/>
    </contour>
  </outline>
</glyph>
<glyph name="Uacute" format="1">
  <advance width="687"/>
  <unicode hex="00DA"/>
  <outline>
    <contour>
      <point x="529" y="892" type="line"/>
      <point x="403" y="750" type="line"/>
      <point x="285" y="750" type="line"/>
      <point x="376" y="895" type="line"/>
      <point x="527" y="895" type="line"/>
    </contour>
    <contour>
      <point x="635" y="686" type="line"/>
      <point x="635" y="218" type="line" smooth="yes"/>
      <point x="635" y="79"/>
      <point x="528" y="-10"/>
      <point x="365" y="-10" type="curve" smooth="yes"/>
      <point x="322" y="-10" type="line" smooth="yes"/>
      <point x="159" y="-10"/>
      <point x="52" y="79"/>
      <point x="52" y="218" type="curve" smooth="yes"/>
      <point x="52" y="686" type="line"/>
      <point x="263" y="686" type="line"/>
      <point x="263" y="221" type="line" smooth="yes"/>
      <point x="263" y="177"/>
      <point x="299" y="146"/>
      <point x="344" y="146" type="curve" smooth="yes"/>
      <point x="389" y="146"/>
      <point x="425" y="177"/>
      <point x="425" y="221" type="curve" smooth="yes"/>
      <point x="425" y="686" type="line"/>
    </contour>
  </outline>
</glyph>
<glyph name="Udieresis" format="1">
  <advance width="687"/>
  <unicode hex="00DC"/>
  <outline>
    <contour>
      <point x="311" y="750" type="line"/>
      <point x="159" y="750" type="line"/>
      <point x="159" y="897" type="line"/>
      <point x="311" y="897" type="line"/>
    </contour>
    <contour>
      <point x="531" y="750" type="line"/>
      <point x="379" y="750" type="line"/>
      <point x="379" y="897" type="line"/>
      <point x="531" y="897" type="line"/>
    </contour>
    <contour>
      <point x="635" y="686" type="line"/>
      <point x="635" y="218" type="line" smooth="yes"/>
      <point x="635" y="79"/>
      <point x="528" y="-10"/>
      <point x="365" y="-10" type="curve" smooth="yes"/>
      <point x="322" y="-10" type="line" smooth="yes"/>
      <point x="159" y="-10"/>
      <point x="52" y="79"/>
      <point x="52" y="218" type="curve" smooth="yes"/>
      <point x="52" y="686" type="line"/>
      <point x="263" y="686" type="line"/>
      <point x="263" y="221" type="line" smooth="yes"/>
      <point x="263" y="177"/>
      <point x="299" y="146"/>
      <point x="344" y="146" type="curve" smooth="yes"/>
      <point x="389" y="146"/>
      <point x="425" y="177"/>
      <point x="425" y="221" type="curve" smooth="yes"/>
      <point x="425" y="686" type="line"/>
    </contour>
  </outline>
</glyph>
<glyph name="Yacute" format="1">
  <advance width="646"/>
  <unicode hex="00DD"/>
  <outline>
    <contour>
      <point x="514" y="892" type="line"/>
      <point x="388" y="750" type="line"/>
      <point x="270" y="750" type="line"/>
      <point x="361" y="895" type="line"/>
      <point x="512" y="895" type="line"/>
    </contour>
    <contour>
      <point x="428" y="262" type="line"/>
      <point x="428" y="0" type="line"/>
      <point x="219" y="0" type="line"/>
      <point x="219" y="262" type="line"/>
      <point x="-9" y="686" type="line"/>
      <point x="227" y="686" type="line"/>
      <point x="330" y="461" type="line"/>
      <point x="335" y="461" type="line"/>
      <point x="440" y="686" type="line"/>
      <point x="655" y="686" type="line"/>
    </contour>
  </outline>
</glyph>
<glyph name="Thorn" format="1">
  <advance width="646"/>
  <unicode hex="00DE"/>
  <outline>
    <contour>
      <point x="266" y="583" type="line"/>
      <point x="422" y="583" type="line" smooth="yes"/>
      <point x="538" y="583"/>
      <point x="632" y="489"/>
      <point x="632" y="373" type="curve" smooth="yes"/>
      <point x="632" y="356" type="line" smooth="yes"/>
      <point x="632" y="240"/>
      <point x="538" y="146"/>
      <point x="422" y="146" type="curve" smooth="yes"/>
      <point x="266" y="146" type="line"/>
      <point x="266" y="0" type="line"/>
      <point x="57" y="0" type="line"/>
      <point x="57" y="686" type="line"/>
      <point x="266" y="686" type="line"/>
    </contour>
    <contour>
      <point x="266" y="427" type="line"/>
      <point x="266" y="294" type="line"/>
      <point x="369" y="294" type="line" smooth="yes"/>
      <point x="397" y="294"/>
      <point x="419" y="316"/>
      <point x="419" y="344" type="curve" smooth="yes"/>
      <point x="419" y="377" type="line" smooth="yes"/>
      <point x="419" y="405"/>
      <point x="397" y="427"/>
      <point x="369" y="427" type="curve" smooth="yes"/>
    </contour>
  </outline>
</glyph>
<glyph name="germandbls" format="1">
  <advance width="652"/>
  <unicode hex="00DF"/>
  <outline>
    <contour>
      <point x="349" y="728" type="curve" smooth="yes"/>
      <point x="466" y="728"/>
      <point x="601" y="681"/>
      <point x="601" y="541" type="curve" smooth="yes"/>
      <point x="601" y="477"/>
      <point x="566" y="419"/>
      <point x="507" y="395" type="curve"/>
      <point x="507" y="390" type="line"/>
      <point x="579" y="365"/>
      <point x="627" y="295"/>
      <point x="627" y="219" type="curve" smooth="yes"/>
      <point x="627" y="71"/>
      <point x="524" y="0"/>
      <point x="384" y="0" type="curve" smooth="yes"/>
      <point x="321" y="0" type="line"/>
      <point x="321" y="148" type="line"/>
      <point x="349" y="148" type="line" smooth="yes"/>
      <point x="393" y="148"/>
      <point x="430" y="187"/>
      <point x="430" y="234" type="curve" smooth="yes"/>
      <point x="430" y="282"/>
      <point x="394" y="321"/>
      <point x="349" y="321" type="curve" smooth="yes"/>
      <point x="321" y="321" type="line"/>
      <point x="321" y="443" type="line"/>
      <point x="348" y="443" type="line" smooth="yes"/>
      <point x="384" y="443"/>
      <point x="412" y="472"/>
      <point x="412" y="511" type="curve" smooth="yes"/>
      <point x="412" y="550"/>
      <point x="384" y="579"/>
      <point x="349" y="579" type="curve" smooth="yes"/>
      <point x="313" y="579"/>
      <point x="285" y="550"/>
      <point x="285" y="511" type="curve" smooth="yes"/>
      <point x="285" y="-66" type="line"/>
      <point x="87" y="-66" type="line"/>
      <point x="87" y="369" type="line"/>
      <point x="25" y="369" type="line"/>
      <point x="25" y="511" type="line"/>
      <point x="87" y="511" type="line"/>
      <point x="95" y="650"/>
      <point x="221" y="728"/>
    </contour>
  </outline>
</glyph>
<glyph name="atilde" format="1">
  <advance width="624"/>
  <unicode hex="00E3"/>
  <outline>
    <contour>
      <point x="442" y="720" type="curve"/>
      <point x="523" y="720" type="line"/>
      <point x="523" y="648"/>
      <point x="460" y="577"/>
      <point x="383" y="577" type="curve" smooth="yes"/>
      <point x="351" y="577"/>
      <point x="320" y="586"/>
      <point x="292" y="596" type="curve" smooth="yes"/>
      <point x="250" y="610" type="line" smooth="yes"/>
      <point x="237" y="614"/>
      <point x="223" y="617"/>
      <point x="210" y="617" type="curve" smooth="yes"/>
      <point x="185" y="617"/>
      <point x="167" y="600"/>
      <point x="160" y="577" type="curve"/>
      <point x="79" y="577" type="line"/>
      <point x="79" y="649"/>
      <point x="142" y="720"/>
      <point x="219" y="720" type="curve" smooth="yes"/>
      <point x="283" y="720"/>
      <point x="339" y="680"/>
      <point x="392" y="680" type="curve" smooth="yes"/>
      <point x="417" y="680"/>
      <point x="435" y="697"/>
    </contour>
    <contour>
      <point x="279" y="521" type="curve" smooth="yes"/>
      <point x="312" y="521" type="line" smooth="yes"/>
      <point x="473" y="521"/>
      <point x="551" y="451"/>
      <point x="551" y="359" type="curve" smooth="yes"/>
      <point x="551" y="148" type="line" smooth="yes"/>
      <point x="551" y="121"/>
      <point x="567" y="111"/>
      <point x="582" y="111" type="curve" smooth="yes"/>
      <point x="594" y="111"/>
      <point x="606" y="114"/>
      <point x="617" y="120" type="curve"/>
      <point x="617" y="13" type="line"/>
      <point x="599" y="0"/>
      <point x="568" y="-10"/>
      <point x="516" y="-10" type="curve" smooth="yes"/>
      <point x="427" y="-10"/>
      <point x="380" y="23"/>
      <point x="369" y="71" type="curve"/>
      <point x="334" y="31"/>
      <point x="286" y="-10"/>
      <point x="204" y="-10" type="curve" smooth="yes"/>
      <point x="121" y="-10"/>
      <point x="24" y="7"/>
      <point x="24" y="143" type="curve" smooth="yes"/>
      <point x="24" y="285"/>
      <point x="151" y="316"/>
      <point x="359" y="316" type="curve"/>
      <point x="359" y="345" type="line" smooth="yes"/>
      <point x="359" y="384"/>
      <point x="330" y="405"/>
      <point x="294" y="405" type="curve" smooth="yes"/>
      <point x="265" y="405"/>
      <point x="230" y="386"/>
      <point x="230" y="358" type="curve" smooth="yes"/>
      <point x="230" y="354" type="line"/>
      <point x="40" y="354" type="line" smooth="yes"/>
      <point x="39" y="357"/>
      <point x="39" y="362"/>
      <point x="39" y="368" type="curve" smooth="yes"/>
      <point x="39" y="453"/>
      <point x="131" y="521"/>
    </contour>
    <contour>
      <point x="359" y="181" type="curve" smooth="yes"/>
      <point x="359" y="225" type="line"/>
      <point x="267" y="225"/>
      <point x="231" y="198"/>
      <point x="231" y="159" type="curve" smooth="yes"/>
      <point x="231" y="120"/>
      <point x="260" y="111"/>
      <point x="291" y="111" type="curve" smooth="yes"/>
      <point x="327" y="111"/>
      <point x="359" y="138"/>
    </contour>
  </outline>
</glyph>
<glyph name="adieresis" format="1">
  <advance width="624"/>
  <unicode hex="00E4"/>
  <outline>
    <contour>
      <point x="263" y="573" type="line"/>
      <point x="111" y="573" type="line"/>
      <point x="111" y="720" type="line"/>
      <point x="263" y="720" type="line"/>
    </contour>
    <contour>
      <point x="483" y="573" type="line"/>
      <point x="331" y="573" type="line"/>
      <point x="331" y="720" type="line"/>
      <point x="483" y="720" type="line"/>
    </contour>
    <contour>
      <point x="279" y="521" type="curve" smooth="yes"/>
      <point x="312" y="521" type="line" smooth="yes"/>
      <point x="473" y="521"/>
      <point x="551" y="451"/>
      <point x="551" y="359" type="curve" smooth="yes"/>
      <point x="551" y="148" type="line" smooth="yes"/>
      <point x="551" y="121"/>
      <point x="567" y="111"/>
      <point x="582" y="111" type="curve" smooth="yes"/>
      <point x="594" y="111"/>
      <point x="606" y="114"/>
      <point x="617" y="120" type="curve"/>
      <point x="617" y="13" type="line"/>
      <point x="599" y="0"/>
      <point x="568" y="-10"/>
      <point x="516" y="-10" type="curve" smooth="yes"/>
      <point x="427" y="-10"/>
      <point x="380" y="23"/>
      <point x="369" y="71" type="curve"/>
      <point x="334" y="31"/>
      <point x="286" y="-10"/>
      <point x="204" y="-10" type="curve" smooth="yes"/>
      <point x="121" y="-10"/>
      <point x="24" y="7"/>
      <point x="24" y="143" type="curve" smooth="yes"/>
      <point x="24" y="285"/>
      <point x="151" y="316"/>
      <point x="359" y="316" type="curve"/>
      <point x="359" y="345" type="line" smooth="yes"/>
      <point x="359" y="384"/>
      <point x="330" y="405"/>
      <point x="294" y="405" type="curve" smooth="yes"/>
      <point x="265" y="405"/>
      <point x="230" y="386"/>
      <point x="230" y="358" type="curve" smooth="yes"/>
      <point x="230" y="354" type="line"/>
      <point x="40" y="354" type="line" smooth="yes"/>
      <point x="39" y="357"/>
      <point x="39" y="362"/>
      <point x="39" y="368" type="curve" smooth="yes"/>
      <point x="39" y="453"/>
      <point x="131" y="521"/>
    </contour>
    <contour>
      <point x="359" y="181" type="curve" smooth="yes"/>
      <point x="359" y="225" type="line"/>
      <point x="267" y="225"/>
      <point x="231" y="198"/>
      <point x="231" y="159" type="curve" smooth="yes"/>
      <point x="231" y="120"/>
      <point x="260" y="111"/>
      <point x="291" y="111" type="curve" smooth="yes"/>
      <point x="327" y="111"/>
      <point x="359" y="138"/>
    </contour>
  </outline>
</glyph>
<glyph name="aring" format="1">
  <advance width="624"/>
  <unicode hex="00E5"/>
  <outline>
    <contour>
      <point x="296" y="760" type="curve" smooth="yes"/>
      <point x="351" y="760"/>
      <point x="397" y="715"/>
      <point x="397" y="659" type="curve" smooth="yes"/>
      <point x="397" y="604"/>
      <point x="352" y="559"/>
      <point x="296" y="559" type="curve" smooth="yes"/>
      <point x="241" y="559"/>
      <point x="195" y="602"/>
      <point x="195" y="659" type="curve" smooth="yes"/>
      <point x="195" y="715"/>
      <point x="240" y="760"/>
    </contour>
    <contour>
      <point x="296" y="694" type="curve" smooth="yes"/>
      <point x="276" y="694"/>
      <point x="261" y="678"/>
      <point x="261" y="658" type="curve" smooth="yes"/>
      <point x="261" y="639"/>
      <point x="277" y="624"/>
      <point x="296" y="624" type="curve" smooth="yes"/>
      <point x="316" y="624"/>
      <point x="331" y="640"/>
      <point x="331" y="660" type="curve" smooth="yes"/>
      <point x="331" y="679"/>
      <point x="315" y="694"/>
    </contour>
    <contour>
      <point x="279" y="521" type="curve" smooth="yes"/>
      <point x="312" y="521" type="line" smooth="yes"/>
      <point x="473" y="521"/>
      <point x="551" y="451"/>
      <point x="551" y="359" type="curve" smooth="yes"/>
      <point x="551" y="148" type="line" smooth="yes"/>
      <point x="551" y="121"/>
      <point x="567" y="111"/>
      <point x="582" y="111" type="curve" smooth="yes"/>
      <point x="594" y="111"/>
      <point x="606" y="114"/>
      <point x="617" y="120" type="curve"/>
      <point x="617" y="13" type="line"/>
      <point x="599" y="0"/>
      <point x="568" y="-10"/>
      <point x="516" y="-10" type="curve" smooth="yes"/>
      <point x="427" y="-10"/>
      <point x="380" y="23"/>
      <point x="369" y="71" type="curve"/>
      <point x="334" y="31"/>
      <point x="286" y="-10"/>
      <point x="204" y="-10" type="curve" smooth="yes"/>
      <point x="121" y="-10"/>
      <point x="24" y="7"/>
      <point x="24" y="143" type="curve" smooth="yes"/>
      <point x="24" y="285"/>
      <point x="151" y="316"/>
      <point x="359" y="316" type="curve"/>
      <point x="359" y="345" type="line" smooth="yes"/>
      <point x="359" y="384"/>
      <point x="330" y="405"/>
      <point x="294" y="405" type="curve" smooth="yes"/>
      <point x="265" y="405"/>
      <point x="230" y="386"/>
      <point x="230" y="358" type="curve" smooth="yes"/>
      <point x="230" y="354" type="line"/>
      <point x="40" y="354" type="line" smooth="yes"/>
      <point x="39" y="357"/>
      <point x="39" y="362"/>
      <point x="39" y="368" type="curve" smooth="yes"/>
      <point x="39" y="453"/>
      <point x="131" y="521"/>
    </contour>
    <contour>
      <point x="359" y="181" type="curve" smooth="yes"/>
      <point x="359" y="225" type="line"/>
      <point x="267" y="225"/>
      <point x="231" y="198"/>
      <point x="231" y="159" type="curve" smooth="yes"/>
      <point x="231" y="120"/>
      <point x="260" y="111"/>
      <point x="291" y="111" type="curve" smooth="yes"/>
      <point x="327" y="111"/>
      <point x="359" y="138"/>
    </contour>
  </outline>
</glyph>
<glyph name="ae" format="1">
  <advance width="924"/>
  <unicode hex="00E6"/>
  <outline>
    <contour>
      <point x="623" y="521" type="curve" smooth="yes"/>
      <point x="648" y="521" type="line" smooth="yes"/>
      <point x="805" y="521"/>
      <point x="895" y="424"/>
      <point x="895" y="291" type="curve" smooth="yes"/>
      <point x="895" y="229" type="line"/>
      <point x="562" y="229" type="line"/>
      <point x="562" y="181" type="line" smooth="yes"/>
      <point x="562" y="134"/>
      <point x="596" y="111"/>
      <point x="639" y="111" type="curve" smooth="yes"/>
      <point x="687" y="111"/>
      <point x="711" y="143"/>
      <point x="711" y="192" type="curve"/>
      <point x="894" y="192" type="line"/>
      <point x="894" y="79"/>
      <point x="803" y="-10"/>
      <point x="645" y="-10" type="curve" smooth="yes"/>
      <point x="630" y="-10" type="line" smooth="yes"/>
      <point x="549" y="-10"/>
      <point x="478" y="14"/>
      <point x="427" y="58" type="curve"/>
      <point x="382" y="18"/>
      <point x="305" y="-10"/>
      <point x="217" y="-10" type="curve" smooth="yes"/>
      <point x="135" y="-10"/>
      <point x="23" y="7"/>
      <point x="23" y="143" type="curve" smooth="yes"/>
      <point x="23" y="285"/>
      <point x="150" y="316"/>
      <point x="358" y="316" type="curve"/>
      <point x="358" y="345" type="line" smooth="yes"/>
      <point x="358" y="384"/>
      <point x="329" y="405"/>
      <point x="293" y="405" type="curve" smooth="yes"/>
      <point x="264" y="405"/>
      <point x="229" y="386"/>
      <point x="229" y="358" type="curve" smooth="yes"/>
      <point x="229" y="354" type="line"/>
      <point x="39" y="354" type="line" smooth="yes"/>
      <point x="38" y="357"/>
      <point x="38" y="362"/>
      <point x="38" y="368" type="curve" smooth="yes"/>
      <point x="38" y="453"/>
      <point x="130" y="521"/>
      <point x="278" y="521" type="curve" smooth="yes"/>
      <point x="311" y="521" type="line" smooth="yes"/>
      <point x="380" y="521"/>
      <point x="433" y="508"/>
      <point x="472" y="487" type="curve"/>
      <point x="515" y="510"/>
      <point x="566" y="521"/>
    </contour>
    <contour>
      <point x="631" y="400" type="curve" smooth="yes"/>
      <point x="592" y="400"/>
      <point x="562" y="369"/>
      <point x="562" y="330" type="curve" smooth="yes"/>
      <point x="562" y="316" type="line"/>
      <point x="700" y="316" type="line"/>
      <point x="700" y="330" type="line" smooth="yes"/>
      <point x="700" y="369"/>
      <point x="670" y="400"/>
    </contour>
    <contour>
      <point x="358" y="181" type="curve" smooth="yes"/>
      <point x="358" y="225" type="line"/>
      <point x="266" y="225"/>
      <point x="230" y="198"/>
      <point x="230" y="159" type="curve" smooth="yes"/>
      <point x="230" y="120"/>
      <point x="259" y="111"/>
      <point x="290" y="111" type="curve" smooth="yes"/>
      <point x="326" y="111"/>
      <point x="358" y="138"/>
    </contour>
  </outline>
</glyph>
<glyph name="ccedilla" format="1">
  <advance width="569"/>
  <unicode hex="00E7"/>
  <outline>
    <contour>
      <point x="276" y="521" type="curve" smooth="yes"/>
      <point x="306" y="521" type="line" smooth="yes"/>
      <point x="458" y="521"/>
      <point x="545" y="428"/>
      <point x="545" y="304" type="curve"/>
      <point x="376" y="304" type="line"/>
      <point x="376" y="330" type="line" smooth="yes"/>
      <point x="376" y="369"/>
      <point x="346" y="400"/>
      <point x="307" y="400" type="curve" smooth="yes"/>
      <point x="268" y="400"/>
      <point x="238" y="369"/>
      <point x="238" y="330" type="curve" smooth="yes"/>
      <point x="238" y="181" type="line" smooth="yes"/>
      <point x="238" y="142"/>
      <point x="269" y="111"/>
      <point x="308" y="111" type="curve" smooth="yes"/>
      <point x="320" y="111" type="line" smooth="yes"/>
      <point x="359" y="111"/>
      <point x="387" y="142"/>
      <point x="387" y="181" type="curve" smooth="yes"/>
      <point x="387" y="207" type="line"/>
      <point x="545" y="207" type="line"/>
      <point x="545" y="68"/>
      <point x="451" y="-10"/>
      <point x="307" y="-10" type="curve" smooth="yes"/>
      <point x="278" y="-10" type="line" smooth="yes"/>
      <point x="143" y="-10"/>
      <point x="26" y="100"/>
      <point x="26" y="235" type="curve" smooth="yes"/>
      <point x="26" y="276" type="line" smooth="yes"/>
      <point x="26" y="411"/>
      <point x="141" y="521"/>
    </contour>
    <contour>
      <point x="278" y="-17" type="line"/>
      <point x="299" y="-17" type="line" smooth="yes"/>
      <point x="358" y="-17"/>
      <point x="421" y="-34"/>
      <point x="421" y="-108" type="curve" smooth="yes"/>
      <point x="421" y="-181"/>
      <point x="348" y="-197"/>
      <point x="303" y="-197" type="curve" smooth="yes"/>
      <point x="256" y="-197"/>
      <point x="206" y="-185"/>
      <point x="177" y="-161" type="curve"/>
      <point x="209" y="-107" type="line"/>
      <point x="225" y="-121"/>
      <point x="251" y="-139"/>
      <point x="294" y="-139" type="curve" smooth="yes"/>
      <point x="318" y="-139"/>
      <point x="334" y="-131"/>
      <point x="334" y="-108" type="curve" smooth="yes"/>
      <point x="334" y="-88"/>
      <point x="325" y="-76"/>
      <point x="296" y="-76" type="curve" smooth="yes"/>
      <point x="278" y="-76" type="line"/>
    </contour>
  </outline>
</glyph>
<glyph name="igrave" format="1">
  <advance width="297"/>
  <unicode hex="00EC"/>
  <outline>
    <contour>
      <point x="210" y="575" type="line"/>
      <point x="92" y="575" type="line"/>
      <point x="-34" y="717" type="line"/>
      <point x="-32" y="720" type="line"/>
      <point x="119" y="720" type="line"/>
    </contour>
    <contour>
      <point x="247" y="0" type="line"/>
      <point x="50" y="0" type="line"/>
      <point x="50" y="510" type="line"/>
      <point x="247" y="510" type="line"/>
    </contour>
  </outline>
</glyph>
<glyph name="iacute" format="1">
  <advance width="297"/>
  <unicode hex="00ED"/>
  <outline>
    <contour>
      <point x="327" y="717" type="line"/>
      <point x="201" y="575" type="line"/>
      <point x="83" y="575" type="line"/>
      <point x="174" y="720" type="line"/>
      <point x="325" y="720" type="line"/>
    </contour>
    <contour>
      <point x="247" y="0" type="line"/>
      <point x="50" y="0" type="line"/>
      <point x="50" y="510" type="line"/>
      <point x="247" y="510" type="line"/>
    </contour>
  </outline>
</glyph>
<glyph name="icircumflex" format="1">
  <advance width="297"/>
  <unicode hex="00EE"/>
  <outline>
    <contour>
      <point x="352" y="575" type="line"/>
      <point x="222" y="575" type="line"/>
      <point x="148" y="652" type="line"/>
      <point x="74" y="575" type="line"/>
      <point x="-54" y="575" type="line"/>
      <point x="85" y="720" type="line"/>
      <point x="213" y="720" type="line"/>
    </contour>
    <contour>
      <point x="247" y="0" type="line"/>
      <point x="50" y="0" type="line"/>
      <point x="50" y="510" type="line"/>
      <point x="247" y="510" type="line"/>
    </contour>
  </outline>
</glyph>
<glyph name="idieresis" format="1">
  <advance width="297"/>
  <unicode hex="00EF"/>
  <outline>
    <contour>
      <point x="115" y="573" type="line"/>
      <point x="-37" y="573" type="line"/>
      <point x="-37" y="720" type="line"/>
      <point x="115" y="720" type="line"/>
    </contour>
    <contour>
      <point x="335" y="573" type="line"/>
      <point x="183" y="573" type="line"/>
      <point x="183" y="720" type="line"/>
      <point x="335" y="720" type="line"/>
    </contour>
    <contour>
      <point x="247" y="0" type="line"/>
      <point x="50" y="0" type="line"/>
      <point x="50" y="510" type="line"/>
      <point x="247" y="510" type="line"/>
    </contour>
  </outline>
</glyph>
<glyph name="eth" format="1">
  <advance width="615"/>
  <unicode hex="00F0"/>
  <outline>
    <contour>
      <point x="96" y="689" type="line"/>
      <point x="209" y="739" type="line"/>
      <point x="241" y="728"/>
      <point x="272" y="713"/>
      <point x="303" y="695" type="curve"/>
      <point x="374" y="728" type="line"/>
      <point x="429" y="677" type="line"/>
      <point x="370" y="649" type="line"/>
      <point x="494" y="552"/>
      <point x="588" y="405"/>
      <point x="588" y="266" type="curve" smooth="yes"/>
      <point x="588" y="245" type="line" smooth="yes"/>
      <point x="588" y="93"/>
      <point x="475" y="-10"/>
      <point x="323" y="-10" type="curve" smooth="yes"/>
      <point x="291" y="-10" type="line" smooth="yes"/>
      <point x="139" y="-10"/>
      <point x="26" y="95"/>
      <point x="26" y="245" type="curve" smooth="yes"/>
      <point x="26" y="266" type="line" smooth="yes"/>
      <point x="26" y="404"/>
      <point x="131" y="494"/>
      <point x="263" y="510" type="curve"/>
      <point x="260" y="525"/>
      <point x="247" y="552"/>
      <point x="226" y="580" type="curve"/>
      <point x="160" y="549" type="line"/>
      <point x="101" y="600" type="line"/>
      <point x="176" y="635" type="line"/>
      <point x="153" y="656"/>
      <point x="125" y="674"/>
      <point x="94" y="685" type="curve"/>
    </contour>
    <contour>
      <point x="307" y="400" type="curve" smooth="yes"/>
      <point x="268" y="400"/>
      <point x="238" y="369"/>
      <point x="238" y="330" type="curve" smooth="yes"/>
      <point x="238" y="181" type="line" smooth="yes"/>
      <point x="238" y="142"/>
      <point x="268" y="111"/>
      <point x="307" y="111" type="curve" smooth="yes"/>
      <point x="346" y="111"/>
      <point x="376" y="142"/>
      <point x="376" y="181" type="curve" smooth="yes"/>
      <point x="376" y="330" type="line" smooth="yes"/>
      <point x="376" y="369"/>
      <point x="346" y="400"/>
    </contour>
  </outline>
</glyph>
<glyph name="ntilde" format="1">
  <advance width="599"/>
  <unicode hex="00F1"/>
  <outline>
    <contour>
      <point x="454" y="720" type="curve"/>
      <point x="535" y="720" type="line"/>
      <point x="535" y="648"/>
      <point x="472" y="577"/>
      <point x="395" y="577" type="curve" smooth="yes"/>
      <point x="363" y="577"/>
      <point x="332" y="586"/>
      <point x="304" y="596" type="curve" smooth="yes"/>
      <point x="262" y="610" type="line" smooth="yes"/>
      <point x="249" y="614"/>
      <point x="235" y="617"/>
      <point x="222" y="617" type="curve" smooth="yes"/>
      <point x="197" y="617"/>
      <point x="179" y="600"/>
      <point x="172" y="577" type="curve"/>
      <point x="91" y="577" type="line"/>
      <point x="91" y="649"/>
      <point x="154" y="720"/>
      <point x="231" y="720" type="curve" smooth="yes"/>
      <point x="295" y="720"/>
      <point x="351" y="680"/>
      <point x="404" y="680" type="curve" smooth="yes"/>
      <point x="429" y="680"/>
      <point x="447" y="697"/>
    </contour>
    <contour>
      <point x="374" y="521" type="curve" smooth="yes"/>
      <point x="402" y="521" type="line" smooth="yes"/>
      <point x="485" y="521"/>
      <point x="552" y="454"/>
      <point x="552" y="371" type="curve" smooth="yes"/>
      <point x="552" y="0" type="line"/>
      <point x="354" y="0" type="line"/>
      <point x="354" y="320" type="line" smooth="yes"/>
      <point x="354" y="353"/>
      <point x="330" y="380"/>
      <point x="301" y="380" type="curve" smooth="yes"/>
      <point x="272" y="380"/>
      <point x="248" y="353"/>
      <point x="248" y="320" type="curve" smooth="yes"/>
      <point x="248" y="0" type="line"/>
      <point x="50" y="0" type="line"/>
      <point x="50" y="511" type="line"/>
      <point x="199" y="511" type="line"/>
      <point x="219" y="437" type="line"/>
      <point x="234" y="460"/>
      <point x="278" y="521"/>
    </contour>
  </outline>
</glyph>
<glyph name="ograve" format="1">
  <advance width="614"/>
  <unicode hex="00F2"/>
  <outline>
    <contour>
      <point x="364" y="575" type="line"/>
      <point x="246" y="575" type="line"/>
      <point x="120" y="717" type="line"/>
      <point x="122" y="720" type="line"/>
      <point x="273" y="720" type="line"/>
    </contour>
    <contour>
      <point x="291" y="521" type="curve" smooth="yes"/>
      <point x="323" y="521" type="line" smooth="yes"/>
      <point x="475" y="521"/>
      <point x="588" y="417"/>
      <point x="588" y="266" type="curve" smooth="yes"/>
      <point x="588" y="245" type="line" smooth="yes"/>
      <point x="588" y="93"/>
      <point x="475" y="-10"/>
      <point x="323" y="-10" type="curve" smooth="yes"/>
      <point x="291" y="-10" type="line" smooth="yes"/>
      <point x="139" y="-10"/>
      <point x="26" y="95"/>
      <point x="26" y="245" type="curve" smooth="yes"/>
      <point x="26" y="266" type="line" smooth="yes"/>
      <point x="26" y="417"/>
      <point x="139" y="521"/>
    </contour>
    <contour>
      <point x="307" y="400" type="curve" smooth="yes"/>
      <point x="268" y="400"/>
      <point x="238" y="369"/>
      <point x="238" y="330" type="curve" smooth="yes"/>
      <point x="238" y="181" type="line" smooth="yes"/>
      <point x="238" y="142"/>
      <point x="268" y="111"/>
      <point x="307" y="111" type="curve" smooth="yes"/>
      <point x="346" y="111"/>
      <point x="376" y="142"/>
      <point x="376" y="181" type="curve" smooth="yes"/>
      <point x="376" y="330" type="line" smooth="yes"/>
      <point x="376" y="369"/>
      <point x="346" y="400"/>
    </contour>
  </outline>
</glyph>
<glyph name="otilde" format="1">
  <advance width="614"/>
  <unicode hex="00F5"/>
  <outline>
    <contour>
      <point x="449" y="720" type="curve"/>
      <point x="530" y="720" type="line"/>
      <point x="530" y="648"/>
      <point x="467" y="577"/>
      <point x="390" y="577" type="curve" smooth="yes"/>
      <point x="358" y="577"/>
      <point x="328" y="587"/>
      <point x="300" y="596" type="curve" smooth="yes"/>
      <point x="258" y="610" type="line" smooth="yes"/>
      <point x="244" y="615"/>
      <point x="230" y="617"/>
      <point x="217" y="617" type="curve" smooth="yes"/>
      <point x="192" y="617"/>
      <point x="174" y="600"/>
      <point x="167" y="577" type="curve"/>
      <point x="86" y="577" type="line"/>
      <point x="86" y="649"/>
      <point x="149" y="720"/>
      <point x="226" y="720" type="curve" smooth="yes"/>
      <point x="290" y="720"/>
      <point x="346" y="680"/>
      <point x="399" y="680" type="curve" smooth="yes"/>
      <point x="424" y="680"/>
      <point x="442" y="697"/>
    </contour>
    <contour>
      <point x="291" y="521" type="curve" smooth="yes"/>
      <point x="323" y="521" type="line" smooth="yes"/>
      <point x="475" y="521"/>
      <point x="588" y="417"/>
      <point x="588" y="266" type="curve" smooth="yes"/>
      <point x="588" y="245" type="line" smooth="yes"/>
      <point x="588" y="93"/>
      <point x="475" y="-10"/>
      <point x="323" y="-10" type="curve" smooth="yes"/>
      <point x="291" y="-10" type="line" smooth="yes"/>
      <point x="139" y="-10"/>
      <point x="26" y="95"/>
      <point x="26" y="245" type="curve" smooth="yes"/>
      <point x="26" y="266" type="line" smooth="yes"/>
      <point x="26" y="417"/>
      <point x="139" y="521"/>
    </contour>
    <contour>
      <point x="307" y="400" type="curve" smooth="yes"/>
      <point x="268" y="400"/>
      <point x="238" y="369"/>
      <point x="238" y="330" type="curve" smooth="yes"/>
      <point x="238" y="181" type="line" smooth="yes"/>
      <point x="238" y="142"/>
      <point x="268" y="111"/>
      <point x="307" y="111" type="curve" smooth="yes"/>
      <point x="346" y="111"/>
      <point x="376" y="142"/>
      <point x="376" y="181" type="curve" smooth="yes"/>
      <point x="376" y="330" type="line" smooth="yes"/>
      <point x="376" y="369"/>
      <point x="346" y="400"/>
    </contour>
  </outline>
</glyph>
<glyph name="odieresis" format="1">
  <advance width="614"/>
  <unicode hex="00F6"/>
  <outline>
    <contour>
      <point x="272" y="573" type="line"/>
      <point x="120" y="573" type="line"/>
      <point x="120" y="720" type="line"/>
      <point x="272" y="720" type="line"/>
    </contour>
    <contour>
      <point x="492" y="573" type="line"/>
      <point x="340" y="573" type="line"/>
      <point x="340" y="720" type="line"/>
      <point x="492" y="720" type="line"/>
    </contour>
    <contour>
      <point x="291" y="521" type="curve" smooth="yes"/>
      <point x="323" y="521" type="line" smooth="yes"/>
      <point x="475" y="521"/>
      <point x="588" y="417"/>
      <point x="588" y="266" type="curve" smooth="yes"/>
      <point x="588" y="245" type="line" smooth="yes"/>
      <point x="588" y="93"/>
      <point x="475" y="-10"/>
      <point x="323" y="-10" type="curve" smooth="yes"/>
      <point x="291" y="-10" type="line" smooth="yes"/>
      <point x="139" y="-10"/>
      <point x="26" y="95"/>
      <point x="26" y="245" type="curve" smooth="yes"/>
      <point x="26" y="266" type="line" smooth="yes"/>
      <point x="26" y="417"/>
      <point x="139" y="521"/>
    </contour>
    <contour>
      <point x="307" y="400" type="curve" smooth="yes"/>
      <point x="268" y="400"/>
      <point x="238" y="369"/>
      <point x="238" y="330" type="curve" smooth="yes"/>
      <point x="238" y="181" type="line" smooth="yes"/>
      <point x="238" y="142"/>
      <point x="268" y="111"/>
      <point x="307" y="111" type="curve" smooth="yes"/>
      <point x="346" y="111"/>
      <point x="376" y="142"/>
      <point x="376" y="181" type="curve" smooth="yes"/>
      <point x="376" y="330" type="line" smooth="yes"/>
      <point x="376" y="369"/>
      <point x="346" y="400"/>
    </contour>
  </outline>
</glyph>
<glyph name="divide" format="1">
  <advance width="615"/>
  <unicode hex="00F7"/>
  <outline>
    <contour>
      <point x="372" y="369" type="line"/>
      <point x="245" y="369" type="line"/>
      <point x="245" y="496" type="line"/>
      <point x="372" y="496" type="line"/>
    </contour>
    <contour>
      <point x="563" y="193" type="line"/>
      <point x="51" y="193" type="line"/>
      <point x="51" y="321" type="line"/>
      <point x="563" y="321" type="line"/>
    </contour>
    <contour>
      <point x="372" y="17" type="line"/>
      <point x="245" y="17" type="line"/>
      <point x="245" y="144" type="line"/>
      <point x="372" y="144" type="line"/>
    </contour>
  </outline>
</glyph>
<glyph name="udieresis" format="1">
  <advance width="628"/>
  <unicode hex="00FC"/>
  <outline>
    <contour>
      <point x="263" y="573" type="line"/>
      <point x="111" y="573" type="line"/>
      <point x="111" y="720" type="line"/>
      <point x="263" y="720" type="line"/>
    </contour>
    <contour>
      <point x="483" y="573" type="line"/>
      <point x="331" y="573" type="line"/>
      <point x="331" y="720" type="line"/>
      <point x="483" y="720" type="line"/>
    </contour>
    <contour>
      <point x="548" y="511" type="line"/>
      <point x="548" y="148" type="line" smooth="yes"/>
      <point x="548" y="121"/>
      <point x="564" y="111"/>
      <point x="579" y="111" type="curve" smooth="yes"/>
      <point x="591" y="111"/>
      <point x="603" y="114"/>
      <point x="614" y="120" type="curve"/>
      <point x="614" y="13" type="line"/>
      <point x="596" y="0"/>
      <point x="565" y="-10"/>
      <point x="513" y="-10" type="curve" smooth="yes"/>
      <point x="424" y="-10"/>
      <point x="385" y="20"/>
      <point x="366" y="71" type="curve"/>
      <point x="351" y="48"/>
      <point x="295" y="-10"/>
      <point x="224" y="-10" type="curve" smooth="yes"/>
      <point x="196" y="-10" type="line" smooth="yes"/>
      <point x="113" y="-10"/>
      <point x="46" y="57"/>
      <point x="46" y="140" type="curve" smooth="yes"/>
      <point x="46" y="511" type="line"/>
      <point x="244" y="511" type="line"/>
      <point x="244" y="191" type="line" smooth="yes"/>
      <point x="244" y="158"/>
      <point x="268" y="131"/>
      <point x="297" y="131" type="curve" smooth="yes"/>
      <point x="326" y="131"/>
      <point x="350" y="158"/>
      <point x="350" y="191" type="curve" smooth="yes"/>
      <point x="350" y="511" type="line"/>
    </contour>
  </outline>
</glyph>
<glyph name="yacute" format="1">
  <advance width="553"/>
  <unicode hex="00FD"/>
  <outline>
    <contour>
      <point x="466" y="717" type="line"/>
      <point x="340" y="575" type="line"/>
      <point x="222" y="575" type="line"/>
      <point x="313" y="720" type="line"/>
      <point x="464" y="720" type="line"/>
    </contour>
    <contour>
      <point x="556" y="511" type="line"/>
      <point x="384" y="36" type="line" smooth="yes"/>
      <point x="338" y="-91"/>
      <point x="255" y="-187"/>
      <point x="130" y="-187" type="curve" smooth="yes"/>
      <point x="87" y="-187"/>
      <point x="54" y="-183"/>
      <point x="31" y="-172" type="curve"/>
      <point x="31" y="-43" type="line"/>
      <point x="46" y="-50"/>
      <point x="78" y="-57"/>
      <point x="106" y="-57" type="curve" smooth="yes"/>
      <point x="168" y="-57"/>
      <point x="178" y="-10"/>
      <point x="184" y="15" type="curve"/>
      <point x="-4" y="511" type="line"/>
      <point x="207" y="511" type="line"/>
      <point x="286" y="246" type="line"/>
      <point x="294" y="246" type="line"/>
      <point x="361" y="511" type="line"/>
    </contour>
  </outline>
</glyph>
<glyph name="thorn" format="1">
  <advance width="601"/>
  <unicode hex="00FE"/>
  <outline>
    <contour>
      <point x="248" y="720" type="line"/>
      <point x="248" y="458" type="line"/>
      <point x="269" y="493"/>
      <point x="309" y="521"/>
      <point x="380" y="521" type="curve" smooth="yes"/>
      <point x="487" y="521"/>
      <point x="573" y="436"/>
      <point x="573" y="261" type="curve" smooth="yes"/>
      <point x="573" y="250" type="line" smooth="yes"/>
      <point x="573" y="75"/>
      <point x="487" y="-10"/>
      <point x="380" y="-10" type="curve" smooth="yes"/>
      <point x="309" y="-10"/>
      <point x="269" y="18"/>
      <point x="248" y="53" type="curve"/>
      <point x="248" y="-181" type="line"/>
      <point x="50" y="-181" type="line"/>
      <point x="50" y="720" type="line"/>
    </contour>
    <contour>
      <point x="310" y="400" type="curve" smooth="yes"/>
      <point x="275" y="400"/>
      <point x="248" y="369"/>
      <point x="248" y="330" type="curve" smooth="yes"/>
      <point x="248" y="185" type="line" smooth="yes"/>
      <point x="248" y="146"/>
      <point x="275" y="115"/>
      <point x="310" y="115" type="curve" smooth="yes"/>
      <point x="345" y="115"/>
      <point x="372" y="146"/>
      <point x="372" y="185" type="curve" smooth="yes"/>
      <point x="372" y="330" type="line" smooth="yes"/>
      <point x="372" y="369"/>
      <point x="345" y="400"/>
    </contour>
  </outline>
</glyph>
<glyph name="ydieresis" format="1">
  <advance width="553"/>
  <unicode hex="00FF"/>
  <outline>
    <contour>
      <point x="248" y="573" type="line"/>
      <point x="96" y="573" type="line"/>
      <point x="96" y="720" type="line"/>
      <point x="248" y="720" type="line"/>
    </contour>
    <contour>
      <point x="468" y="573" type="line"/>
      <point x="316" y="573" type="line"/>
      <point x="316" y="720" type="line"/>
      <point x="468" y="720" type="line"/>
    </contour>
    <contour>
      <point x="556" y="511" type="line"/>
      <point x="384" y="36" type="line" smooth="yes"/>
      <point x="338" y="-91"/>
      <point x="255" y="-187"/>
      <point x="130" y="-187" type="curve" smooth="yes"/>
      <point x="87" y="-187"/>
      <point x="54" y="-183"/>
      <point x="31" y="-172" type="curve"/>
      <point x="31" y="-43" type="line"/>
      <point x="46" y="-50"/>
      <point x="78" y="-57"/>
      <point x="106" y="-57" type="curve" smooth="yes"/>
      <point x="168" y="-57"/>
      <point x="178" y="-10"/>
      <point x="184" y="15" type="curve"/>
      <point x="-4" y="511" type="line"/>
      <point x="207" y="511" type="line"/>
      <point x="286" y="246" type="line"/>
      <point x="294" y="246" type="line"/>
      <point x="361" y="511" type="line"/>
    </contour>
  </outline>
</glyph>
<glyph name="Amacron" format="1">
  <advance width="709"/>
  <unicode hex="0100"/>
  <outline>
    <contour>
      <point x="514" y="837" type="line"/>
      <point x="196" y="837" type="line"/>
      <point x="196" y="911" type="line"/>
      <point x="514" y="911" type="line"/>
    </contour>
    <contour>
      <point x="714" y="0" type="line"/>
      <point x="496" y="0" type="line"/>
      <point x="455" y="122" type="line"/>
      <point x="237" y="122" type="line"/>
      <point x="197" y="0" type="line"/>
      <point x="-5" y="0" type="line"/>
      <point x="224" y="686" type="line"/>
      <point x="485" y="686" type="line"/>
    </contour>
    <contour>
      <point x="344" y="475" type="line"/>
      <point x="285" y="267" type="line"/>
      <point x="407" y="267" type="line"/>
      <point x="349" y="475" type="line"/>
    </contour>
  </outline>
</glyph>
<glyph name="Abreve" format="1">
  <advance width="709"/>
  <unicode hex="0102"/>
  <outline>
    <contour>
      <point x="453" y="912" type="curve"/>
      <point x="548" y="912" type="line"/>
      <point x="548" y="856"/>
      <point x="462" y="788"/>
      <point x="355" y="788" type="curve" smooth="yes"/>
      <point x="248" y="788"/>
      <point x="163" y="856"/>
      <point x="163" y="912" type="curve"/>
      <point x="259" y="912" type="line"/>
      <point x="259" y="901"/>
      <point x="302" y="874"/>
      <point x="355" y="874" type="curve" smooth="yes"/>
      <point x="409" y="874"/>
      <point x="453" y="901"/>
    </contour>
    <contour>
      <point x="714" y="0" type="line"/>
      <point x="496" y="0" type="line"/>
      <point x="455" y="122" type="line"/>
      <point x="237" y="122" type="line"/>
      <point x="197" y="0" type="line"/>
      <point x="-5" y="0" type="line"/>
      <point x="224" y="686" type="line"/>
      <point x="485" y="686" type="line"/>
    </contour>
    <contour>
      <point x="344" y="475" type="line"/>
      <point x="285" y="267" type="line"/>
      <point x="407" y="267" type="line"/>
      <point x="349" y="475" type="line"/>
    </contour>
  </outline>
</glyph>
<glyph name="Aogonek" format="1">
  <advance width="709"/>
  <unicode hex="0104"/>
  <outline>
    <contour>
      <point x="703" y="-76" type="curve"/>
      <point x="716" y="-119" type="line"/>
      <point x="684" y="-135"/>
      <point x="649" y="-143"/>
      <point x="612" y="-143" type="curve" smooth="yes"/>
      <point x="566" y="-143"/>
      <point x="515" y="-126"/>
      <point x="515" y="-71" type="curve" smooth="yes"/>
      <point x="515" y="-39"/>
      <point x="545" y="-16"/>
      <point x="569" y="0" type="curve"/>
      <point x="496" y="0" type="line"/>
      <point x="455" y="122" type="line"/>
      <point x="237" y="122" type="line"/>
      <point x="197" y="0" type="line"/>
      <point x="-5" y="0" type="line"/>
      <point x="224" y="686" type="line"/>
      <point x="485" y="686" type="line"/>
      <point x="714" y="0" type="line"/>
      <point x="639" y="0" type="line"/>
      <point x="620" y="-12"/>
      <point x="592" y="-29"/>
      <point x="592" y="-56" type="curve" smooth="yes"/>
      <point x="592" y="-83"/>
      <point x="615" y="-90"/>
      <point x="636" y="-90" type="curve" smooth="yes"/>
      <point x="659" y="-90"/>
      <point x="682" y="-84"/>
    </contour>
    <contour>
      <point x="407" y="267" type="line"/>
      <point x="349" y="475" type="line"/>
      <point x="344" y="475" type="line"/>
      <point x="285" y="267" type="line"/>
    </contour>
  </outline>
</glyph>
<glyph name="aogonek" format="1">
  <advance width="624"/>
  <unicode hex="0105"/>
  <outline>
    <contour>
      <point x="627" y="-76" type="curve"/>
      <point x="640" y="-119" type="line"/>
      <point x="608" y="-135"/>
      <point x="573" y="-143"/>
      <point x="536" y="-143" type="curve" smooth="yes"/>
      <point x="490" y="-143"/>
      <point x="439" y="-126"/>
      <point x="439" y="-71" type="curve" smooth="yes"/>
      <point x="439" y="-44"/>
      <point x="460" y="-24"/>
      <point x="481" y="-8" type="curve"/>
      <point x="415" y="-1"/>
      <point x="378" y="30"/>
      <point x="369" y="71" type="curve"/>
      <point x="334" y="31"/>
      <point x="286" y="-10"/>
      <point x="204" y="-10" type="curve" smooth="yes"/>
      <point x="121" y="-10"/>
      <point x="24" y="7"/>
      <point x="24" y="143" type="curve" smooth="yes"/>
      <point x="24" y="285"/>
      <point x="151" y="316"/>
      <point x="359" y="316" type="curve"/>
      <point x="359" y="345" type="line" smooth="yes"/>
      <point x="359" y="384"/>
      <point x="330" y="405"/>
      <point x="294" y="405" type="curve" smooth="yes"/>
      <point x="265" y="405"/>
      <point x="230" y="386"/>
      <point x="230" y="358" type="curve" smooth="yes"/>
      <point x="230" y="354" type="line"/>
      <point x="40" y="354" type="line" smooth="yes"/>
      <point x="39" y="357"/>
      <point x="39" y="362"/>
      <point x="39" y="368" type="curve" smooth="yes"/>
      <point x="39" y="453"/>
      <point x="131" y="521"/>
      <point x="279" y="521" type="curve" smooth="yes"/>
      <point x="312" y="521" type="line" smooth="yes"/>
      <point x="473" y="521"/>
      <point x="551" y="451"/>
      <point x="551" y="359" type="curve" smooth="yes"/>
      <point x="551" y="148" type="line" smooth="yes"/>
      <point x="551" y="121"/>
      <point x="567" y="111"/>
      <point x="582" y="111" type="curve" smooth="yes"/>
      <point x="594" y="111"/>
      <point x="606" y="114"/>
      <point x="617" y="120" type="curve"/>
      <point x="617" y="13" type="line"/>
      <point x="603" y="3"/>
      <point x="582" y="-5"/>
      <point x="550" y="-8" type="curve"/>
      <point x="533" y="-20"/>
      <point x="516" y="-35"/>
      <point x="516" y="-56" type="curve" smooth="yes"/>
      <point x="516" y="-83"/>
      <point x="539" y="-90"/>
      <point x="560" y="-90" type="curve" smooth="yes"/>
      <point x="583" y="-90"/>
      <point x="606" y="-84"/>
    </contour>
    <contour>
      <point x="359" y="181" type="curve" smooth="yes"/>
      <point x="359" y="225" type="line"/>
      <point x="267" y="225"/>
      <point x="231" y="198"/>
      <point x="231" y="159" type="curve" smooth="yes"/>
      <point x="231" y="120"/>
      <point x="260" y="111"/>
      <point x="291" y="111" type="curve" smooth="yes"/>
      <point x="327" y="111"/>
      <point x="359" y="138"/>
    </contour>
  </outline>
</glyph>
<glyph name="cacute" format="1">
  <advance width="569"/>
  <unicode hex="0107"/>
  <outline>
    <contour>
      <point x="457" y="717" type="line"/>
      <point x="331" y="575" type="line"/>
      <point x="213" y="575" type="line"/>
      <point x="304" y="720" type="line"/>
      <point x="455" y="720" type="line"/>
    </contour>
    <contour>
      <point x="276" y="521" type="curve" smooth="yes"/>
      <point x="306" y="521" type="line" smooth="yes"/>
      <point x="458" y="521"/>
      <point x="545" y="428"/>
      <point x="545" y="304" type="curve"/>
      <point x="376" y="304" type="line"/>
      <point x="376" y="330" type="line" smooth="yes"/>
      <point x="376" y="369"/>
      <point x="346" y="400"/>
      <point x="307" y="400" type="curve" smooth="yes"/>
      <point x="268" y="400"/>
      <point x="238" y="369"/>
      <point x="238" y="330" type="curve" smooth="yes"/>
      <point x="238" y="181" type="line" smooth="yes"/>
      <point x="238" y="142"/>
      <point x="269" y="111"/>
      <point x="308" y="111" type="curve" smooth="yes"/>
      <point x="320" y="111" type="line" smooth="yes"/>
      <point x="359" y="111"/>
      <point x="387" y="142"/>
      <point x="387" y="181" type="curve" smooth="yes"/>
      <point x="387" y="207" type="line"/>
      <point x="545" y="207" type="line"/>
      <point x="545" y="68"/>
      <point x="451" y="-10"/>
      <point x="307" y="-10" type="curve" smooth="yes"/>
      <point x="278" y="-10" type="line" smooth="yes"/>
      <point x="143" y="-10"/>
      <point x="26" y="100"/>
      <point x="26" y="235" type="curve" smooth="yes"/>
      <point x="26" y="276" type="line" smooth="yes"/>
      <point x="26" y="411"/>
      <point x="141" y="521"/>
    </contour>
    <contour>
      <point x="285" y="0" type="move" name="Bottom"/>
    </contour>
  </outline>
</glyph>
<glyph name="Dcaron" format="1">
  <advance width="696"/>
  <unicode hex="010E"/>
  <outline>
    <contour>
      <point x="412" y="750" type="line"/>
      <point x="284" y="750" type="line"/>
      <point x="145" y="895" type="line"/>
      <point x="275" y="895" type="line"/>
      <point x="349" y="818" type="line"/>
      <point x="423" y="895" type="line"/>
      <point x="551" y="895" type="line"/>
    </contour>
    <contour>
      <point x="57" y="686" type="line"/>
      <point x="366" y="686" type="line" smooth="yes"/>
      <point x="532" y="686"/>
      <point x="666" y="552"/>
      <point x="666" y="386" type="curve" smooth="yes"/>
      <point x="666" y="300" type="line" smooth="yes"/>
      <point x="666" y="134"/>
      <point x="532" y="0"/>
      <point x="366" y="0" type="curve" smooth="yes"/>
      <point x="57" y="0" type="line"/>
    </contour>
    <contour>
      <point x="269" y="530" type="line"/>
      <point x="269" y="159" type="line"/>
      <point x="346" y="159" type="line" smooth="yes"/>
      <point x="402" y="159"/>
      <point x="446" y="203"/>
      <point x="446" y="259" type="curve" smooth="yes"/>
      <point x="446" y="430" type="line" smooth="yes"/>
      <point x="446" y="486"/>
      <point x="402" y="530"/>
      <point x="346" y="530" type="curve" smooth="yes"/>
    </contour>
  </outline>
</glyph>
<glyph name="dcroat" format="1">
  <advance width="601"/>
  <unicode hex="0111"/>
  <outline>
    <contour>
      <point x="601" y="602" type="line"/>
      <point x="551" y="602" type="line"/>
      <point x="551" y="0" type="line"/>
      <point x="393" y="0" type="line"/>
      <point x="375" y="59" type="line"/>
      <point x="347" y="24"/>
      <point x="307" y="-10"/>
      <point x="246" y="-10" type="curve" smooth="yes"/>
      <point x="125" y="-10"/>
      <point x="28" y="75"/>
      <point x="28" y="250" type="curve" smooth="yes"/>
      <point x="28" y="261" type="line" smooth="yes"/>
      <point x="28" y="436"/>
      <point x="114" y="521"/>
      <point x="221" y="521" type="curve" smooth="yes"/>
      <point x="292" y="521"/>
      <point x="332" y="493"/>
      <point x="353" y="458" type="curve"/>
      <point x="353" y="602" type="line"/>
      <point x="219" y="602" type="line"/>
      <point x="219" y="676" type="line"/>
      <point x="353" y="676" type="line"/>
      <point x="353" y="720" type="line"/>
      <point x="551" y="720" type="line"/>
      <point x="551" y="676" type="line"/>
      <point x="601" y="676" type="line"/>
    </contour>
    <contour>
      <point x="353" y="181" type="curve" smooth="yes"/>
      <point x="353" y="326" type="line" smooth="yes"/>
      <point x="353" y="365"/>
      <point x="326" y="396"/>
      <point x="291" y="396" type="curve" smooth="yes"/>
      <point x="256" y="396"/>
      <point x="229" y="365"/>
      <point x="229" y="326" type="curve" smooth="yes"/>
      <point x="229" y="181" type="line" smooth="yes"/>
      <point x="229" y="142"/>
      <point x="256" y="111"/>
      <point x="291" y="111" type="curve" smooth="yes"/>
      <point x="326" y="111"/>
      <point x="353" y="142"/>
    </contour>
  </outline>
</glyph>
<glyph name="emacron" format="1">
  <advance width="601"/>
  <unicode hex="0113"/>
  <outline>
    <contour>
      <point x="460" y="662" type="line"/>
      <point x="142" y="662" type="line"/>
      <point x="142" y="736" type="line"/>
      <point x="460" y="736" type="line"/>
    </contour>
    <contour>
      <point x="300" y="521" type="curve" smooth="yes"/>
      <point x="325" y="521" type="line" smooth="yes"/>
      <point x="482" y="521"/>
      <point x="572" y="424"/>
      <point x="572" y="291" type="curve" smooth="yes"/>
      <point x="572" y="229" type="line"/>
      <point x="239" y="229" type="line"/>
      <point x="239" y="181" type="line" smooth="yes"/>
      <point x="239" y="134"/>
      <point x="273" y="111"/>
      <point x="316" y="111" type="curve" smooth="yes"/>
      <point x="364" y="111"/>
      <point x="388" y="143"/>
      <point x="388" y="192" type="curve"/>
      <point x="571" y="192" type="line"/>
      <point x="571" y="79"/>
      <point x="480" y="-10"/>
      <point x="322" y="-10" type="curve" smooth="yes"/>
      <point x="307" y="-10" type="line" smooth="yes"/>
      <point x="148" y="-10"/>
      <point x="27" y="80"/>
      <point x="27" y="240" type="curve" smooth="yes"/>
      <point x="27" y="271" type="line" smooth="yes"/>
      <point x="27" y="431"/>
      <point x="141" y="521"/>
    </contour>
    <contour>
      <point x="308" y="400" type="curve" smooth="yes"/>
      <point x="269" y="400"/>
      <point x="239" y="369"/>
      <point x="239" y="330" type="curve" smooth="yes"/>
      <point x="239" y="316" type="line"/>
      <point x="377" y="316" type="line"/>
      <point x="377" y="330" type="line" smooth="yes"/>
      <point x="377" y="369"/>
      <point x="347" y="400"/>
    </contour>
    <contour>
      <point x="301" y="0" type="move" name="Bottom"/>
    </contour>
  </outline>
</glyph>
<glyph name="Edotaccent" format="1">
  <advance width="600"/>
  <unicode hex="0116"/>
  <outline>
    <contour>
      <point x="300" y="911" type="curve" smooth="yes"/>
      <point x="337" y="911"/>
      <point x="366" y="881"/>
      <point x="366" y="845" type="curve" smooth="yes"/>
      <point x="366" y="806"/>
      <point x="336" y="779"/>
      <point x="299" y="779" type="curve" smooth="yes"/>
      <point x="264" y="779"/>
      <point x="234" y="809"/>
      <point x="234" y="845" type="curve" smooth="yes"/>
      <point x="234" y="882"/>
      <point x="263" y="911"/>
    </contour>
    <contour>
      <point x="552" y="528" type="line"/>
      <point x="263" y="528" type="line"/>
      <point x="263" y="428" type="line"/>
      <point x="541" y="428" type="line"/>
      <point x="541" y="275" type="line"/>
      <point x="263" y="275" type="line"/>
      <point x="263" y="164" type="line"/>
      <point x="552" y="164" type="line"/>
      <point x="572" y="0" type="line"/>
      <point x="57" y="0" type="line"/>
      <point x="57" y="686" type="line"/>
      <point x="572" y="686" type="line"/>
    </contour>
    <contour>
      <point x="300" y="0" type="move" name="Bottom"/>
    </contour>
  </outline>
</glyph>
<glyph name="Eogonek" format="1">
  <advance width="600"/>
  <unicode hex="0118"/>
  <outline>
    <contour>
      <point x="605" y="-76" type="curve"/>
      <point x="618" y="-119" type="line"/>
      <point x="586" y="-135"/>
      <point x="551" y="-143"/>
      <point x="514" y="-143" type="curve" smooth="yes"/>
      <point x="468" y="-143"/>
      <point x="417" y="-126"/>
      <point x="417" y="-71" type="curve" smooth="yes"/>
      <point x="417" y="-39"/>
      <point x="447" y="-16"/>
      <point x="471" y="0" type="curve"/>
      <point x="57" y="0" type="line"/>
      <point x="57" y="686" type="line"/>
      <point x="572" y="686" type="line"/>
      <point x="552" y="528" type="line"/>
      <point x="263" y="528" type="line"/>
      <point x="263" y="428" type="line"/>
      <point x="541" y="428" type="line"/>
      <point x="541" y="275" type="line"/>
      <point x="263" y="275" type="line"/>
      <point x="263" y="164" type="line"/>
      <point x="552" y="164" type="line"/>
      <point x="572" y="0" type="line"/>
      <point x="541" y="0" type="line"/>
      <point x="522" y="-12"/>
      <point x="494" y="-29"/>
      <point x="494" y="-56" type="curve" smooth="yes"/>
      <point x="494" y="-83"/>
      <point x="517" y="-90"/>
      <point x="538" y="-90" type="curve" smooth="yes"/>
      <point x="561" y="-90"/>
      <point x="584" y="-84"/>
    </contour>
    <contour>
      <point x="300" y="0" type="move" name="Bottom"/>
    </contour>
  </outline>
</glyph>
<glyph name="eogonek" format="1">
  <advance width="601"/>
  <unicode hex="0119"/>
  <outline>
    <contour>
      <point x="239" y="229" type="line"/>
      <point x="239" y="181" type="line" smooth="yes"/>
      <point x="239" y="134"/>
      <point x="273" y="111"/>
      <point x="316" y="111" type="curve" smooth="yes"/>
      <point x="364" y="111"/>
      <point x="388" y="143"/>
      <point x="388" y="192" type="curve"/>
      <point x="571" y="192" type="line"/>
      <point x="571" y="101"/>
      <point x="513" y="26"/>
      <point x="408" y="0" type="curve"/>
      <point x="412" y="0" type="line"/>
      <point x="393" y="-12"/>
      <point x="365" y="-29"/>
      <point x="365" y="-56" type="curve" smooth="yes"/>
      <point x="365" y="-83"/>
      <point x="388" y="-90"/>
      <point x="409" y="-90" type="curve" smooth="yes"/>
      <point x="432" y="-90"/>
      <point x="455" y="-84"/>
      <point x="476" y="-76" type="curve"/>
      <point x="489" y="-119" type="line"/>
      <point x="457" y="-135"/>
      <point x="422" y="-143"/>
      <point x="385" y="-143" type="curve" smooth="yes"/>
      <point x="339" y="-143"/>
      <point x="288" y="-126"/>
      <point x="288" y="-71" type="curve" smooth="yes"/>
      <point x="288" y="-45"/>
      <point x="308" y="-25"/>
      <point x="328" y="-10" type="curve"/>
      <point x="322" y="-10" type="line"/>
      <point x="307" y="-10" type="line" smooth="yes"/>
      <point x="148" y="-10"/>
      <point x="27" y="80"/>
      <point x="27" y="240" type="curve" smooth="yes"/>
      <point x="27" y="271" type="line" smooth="yes"/>
      <point x="27" y="431"/>
      <point x="141" y="521"/>
      <point x="300" y="521" type="curve" smooth="yes"/>
      <point x="325" y="521" type="line" smooth="yes"/>
      <point x="482" y="521"/>
      <point x="572" y="424"/>
      <point x="572" y="291" type="curve" smooth="yes"/>
      <point x="572" y="229" type="line"/>
    </contour>
    <contour>
      <point x="239" y="316" type="line"/>
      <point x="377" y="316" type="line"/>
      <point x="377" y="330" type="line" smooth="yes"/>
      <point x="377" y="369"/>
      <point x="347" y="400"/>
      <point x="308" y="400" type="curve" smooth="yes"/>
      <point x="269" y="400"/>
      <point x="239" y="369"/>
      <point x="239" y="330" type="curve" smooth="yes"/>
    </contour>
    <contour>
      <point x="301" y="0" type="move" name="Bottom"/>
    </contour>
  </outline>
</glyph>
<glyph name="Ecaron" format="1">
  <advance width="600"/>
  <unicode hex="011A"/>
  <outline>
    <contour>
      <point x="364" y="750" type="line"/>
      <point x="236" y="750" type="line"/>
      <point x="97" y="895" type="line"/>
      <point x="227" y="895" type="line"/>
      <point x="301" y="818" type="line"/>
      <point x="375" y="895" type="line"/>
      <point x="503" y="895" type="line"/>
    </contour>
    <contour>
      <point x="552" y="528" type="line"/>
      <point x="263" y="528" type="line"/>
      <point x="263" y="428" type="line"/>
      <point x="541" y="428" type="line"/>
      <point x="541" y="275" type="line"/>
      <point x="263" y="275" type="line"/>
      <point x="263" y="164" type="line"/>
      <point x="552" y="164" type="line"/>
      <point x="572" y="0" type="line"/>
      <point x="57" y="0" type="line"/>
      <point x="57" y="686" type="line"/>
      <point x="572" y="686" type="line"/>
    </contour>
    <contour>
      <point x="300" y="0" type="move" name="Bottom"/>
    </contour>
  </outline>
</glyph>
<glyph name="gcommaaccent" format="1">
  <advance width="590"/>
  <unicode hex="0123"/>
  <outline>
    <contour>
      <point x="190" y="720" type="line"/>
      <point x="218" y="831" type="line"/>
      <point x="312" y="831" type="line"/>
      <point x="296" y="752" type="line"/>
      <point x="381" y="752" type="line"/>
      <point x="381" y="601" type="line"/>
      <point x="190" y="601" type="line"/>
    </contour>
    <contour>
      <point x="441" y="603" type="curve"/>
      <point x="589" y="603" type="line"/>
      <point x="589" y="522"/>
      <point x="548" y="487"/>
      <point x="479" y="468" type="curve"/>
      <point x="514" y="440"/>
      <point x="535" y="402"/>
      <point x="535" y="361" type="curve" smooth="yes"/>
      <point x="535" y="272"/>
      <point x="444" y="200"/>
      <point x="335" y="200" type="curve" smooth="yes"/>
      <point x="266" y="200" type="line" smooth="yes"/>
      <point x="225" y="200"/>
      <point x="209" y="186"/>
      <point x="209" y="170" type="curve" smooth="yes"/>
      <point x="209" y="153"/>
      <point x="219" y="139"/>
      <point x="266" y="139" type="curve" smooth="yes"/>
      <point x="429" y="139" type="line" smooth="yes"/>
      <point x="539" y="139"/>
      <point x="589" y="74"/>
      <point x="589" y="-17" type="curve" smooth="yes"/>
      <point x="589" y="-108"/>
      <point x="498" y="-188"/>
      <point x="389" y="-188" type="curve" smooth="yes"/>
      <point x="124" y="-188" type="line" smooth="yes"/>
      <point x="58" y="-188"/>
      <point x="4" y="-134"/>
      <point x="4" y="-68" type="curve" smooth="yes"/>
      <point x="4" y="-63" type="line" smooth="yes"/>
      <point x="4" y="-14"/>
      <point x="40" y="27"/>
      <point x="80" y="46" type="curve"/>
      <point x="51" y="66"/>
      <point x="32" y="98"/>
      <point x="32" y="133" type="curve" smooth="yes"/>
      <point x="32" y="184"/>
      <point x="73" y="227"/>
      <point x="124" y="240" type="curve"/>
      <point x="81" y="269"/>
      <point x="47" y="311"/>
      <point x="47" y="360" type="curve" smooth="yes"/>
      <point x="47" y="449"/>
      <point x="121" y="521"/>
      <point x="277" y="521" type="curve" smooth="yes"/>
      <point x="305" y="521" type="line" smooth="yes"/>
      <point x="329" y="521"/>
      <point x="351" y="519"/>
      <point x="371" y="515" type="curve"/>
      <point x="427" y="552"/>
      <point x="441" y="586"/>
    </contour>
    <contour>
      <point x="295" y="423" type="curve" smooth="yes"/>
      <point x="260" y="423"/>
      <point x="234" y="395"/>
      <point x="234" y="360" type="curve" smooth="yes"/>
      <point x="234" y="325"/>
      <point x="260" y="297"/>
      <point x="295" y="297" type="curve" smooth="yes"/>
      <point x="330" y="297"/>
      <point x="356" y="325"/>
      <point x="356" y="360" type="curve" smooth="yes"/>
      <point x="356" y="395"/>
      <point x="330" y="423"/>
    </contour>
    <contour>
      <point x="361" y="0" type="curve" smooth="yes"/>
      <point x="218" y="0" type="line" smooth="yes"/>
      <point x="190" y="0"/>
      <point x="168" y="-18"/>
      <point x="168" y="-41" type="curve" smooth="yes"/>
      <point x="168" y="-64"/>
      <point x="190" y="-83"/>
      <point x="218" y="-83" type="curve" smooth="yes"/>
      <point x="361" y="-83" type="line" smooth="yes"/>
      <point x="389" y="-83"/>
      <point x="411" y="-65"/>
      <point x="411" y="-42" type="curve" smooth="yes"/>
      <point x="411" y="-19"/>
      <point x="389" y="0"/>
    </contour>
  </outline>
</glyph>
<glyph name="Imacron" format="1">
  <advance width="446"/>
  <unicode hex="012A"/>
  <outline>
    <contour>
      <point x="382" y="837" type="line"/>
      <point x="64" y="837" type="line"/>
      <point x="64" y="911" type="line"/>
      <point x="382" y="911" type="line"/>
    </contour>
    <contour>
      <point x="410" y="539" type="line"/>
      <point x="329" y="539" type="line"/>
      <point x="329" y="148" type="line"/>
      <point x="410" y="148" type="line"/>
      <point x="410" y="0" type="line"/>
      <point x="36" y="0" type="line"/>
      <point x="36" y="148" type="line"/>
      <point x="117" y="148" type="line"/>
      <point x="117" y="539" type="line"/>
      <point x="36" y="539" type="line"/>
      <point x="36" y="686" type="line"/>
      <point x="410" y="686" type="line"/>
    </contour>
  </outline>
</glyph>
<glyph name="imacron" format="1">
  <advance width="297"/>
  <unicode hex="012B"/>
  <outline>
    <contour>
      <point x="308" y="662" type="line"/>
      <point x="-10" y="662" type="line"/>
      <point x="-10" y="736" type="line"/>
      <point x="308" y="736" type="line"/>
    </contour>
    <contour>
      <point x="247" y="0" type="line"/>
      <point x="50" y="0" type="line"/>
      <point x="50" y="510" type="line"/>
      <point x="247" y="510" type="line"/>
    </contour>
  </outline>
</glyph>
<glyph name="Iogonek" format="1">
  <advance width="446"/>
  <unicode hex="012E"/>
  <outline>
    <contour>
      <point x="466" y="-76" type="curve"/>
      <point x="479" y="-119" type="line"/>
      <point x="447" y="-135"/>
      <point x="412" y="-143"/>
      <point x="375" y="-143" type="curve" smooth="yes"/>
      <point x="329" y="-143"/>
      <point x="278" y="-126"/>
      <point x="278" y="-71" type="curve" smooth="yes"/>
      <point x="278" y="-39"/>
      <point x="308" y="-16"/>
      <point x="332" y="0" type="curve"/>
      <point x="36" y="0" type="line"/>
      <point x="36" y="148" type="line"/>
      <point x="117" y="148" type="line"/>
      <point x="117" y="539" type="line"/>
      <point x="36" y="539" type="line"/>
      <point x="36" y="686" type="line"/>
      <point x="410" y="686" type="line"/>
      <point x="410" y="539" type="line"/>
      <point x="329" y="539" type="line"/>
      <point x="329" y="148" type="line"/>
      <point x="410" y="148" type="line"/>
      <point x="410" y="0" type="line"/>
      <point x="402" y="0" type="line"/>
      <point x="383" y="-12"/>
      <point x="355" y="-29"/>
      <point x="355" y="-56" type="curve" smooth="yes"/>
      <point x="355" y="-83"/>
      <point x="378" y="-90"/>
      <point x="399" y="-90" type="curve" smooth="yes"/>
      <point x="422" y="-90"/>
      <point x="445" y="-84"/>
    </contour>
  </outline>
</glyph>
<glyph name="iogonek" format="1">
  <advance width="297"/>
  <unicode hex="012F"/>
  <outline>
    <contour>
      <point x="247" y="577" type="line"/>
      <point x="50" y="577" type="line"/>
      <point x="50" y="720" type="line"/>
      <point x="247" y="720" type="line"/>
    </contour>
    <contour>
      <point x="302" y="-76" type="curve"/>
      <point x="315" y="-119" type="line"/>
      <point x="283" y="-135"/>
      <point x="248" y="-143"/>
      <point x="211" y="-143" type="curve" smooth="yes"/>
      <point x="165" y="-143"/>
      <point x="114" y="-126"/>
      <point x="114" y="-71" type="curve" smooth="yes"/>
      <point x="114" y="-39"/>
      <point x="144" y="-16"/>
      <point x="168" y="0" type="curve"/>
      <point x="50" y="0" type="line"/>
      <point x="50" y="510" type="line"/>
      <point x="247" y="510" type="line"/>
      <point x="247" y="0" type="line"/>
      <point x="238" y="0" type="line"/>
      <point x="219" y="-12"/>
      <point x="191" y="-29"/>
      <point x="191" y="-56" type="curve" smooth="yes"/>
      <point x="191" y="-83"/>
      <point x="214" y="-90"/>
      <point x="235" y="-90" type="curve" smooth="yes"/>
      <point x="258" y="-90"/>
      <point x="281" y="-84"/>
    </contour>
  </outline>
</glyph>
<glyph name="Idotaccent" format="1">
  <advance width="446"/>
  <unicode hex="0130"/>
  <outline>
    <contour>
      <point x="223" y="911" type="curve" smooth="yes"/>
      <point x="260" y="911"/>
      <point x="289" y="881"/>
      <point x="289" y="845" type="curve" smooth="yes"/>
      <point x="289" y="806"/>
      <point x="259" y="779"/>
      <point x="222" y="779" type="curve" smooth="yes"/>
      <point x="187" y="779"/>
      <point x="157" y="809"/>
      <point x="157" y="845" type="curve" smooth="yes"/>
      <point x="157" y="882"/>
      <point x="186" y="911"/>
    </contour>
    <contour>
      <point x="410" y="539" type="line"/>
      <point x="329" y="539" type="line"/>
      <point x="329" y="148" type="line"/>
      <point x="410" y="148" type="line"/>
      <point x="410" y="0" type="line"/>
      <point x="36" y="0" type="line"/>
      <point x="36" y="148" type="line"/>
      <point x="117" y="148" type="line"/>
      <point x="117" y="539" type="line"/>
      <point x="36" y="539" type="line"/>
      <point x="36" y="686" type="line"/>
      <point x="410" y="686" type="line"/>
    </contour>
  </outline>
</glyph>
<glyph name="kcommaaccent" format="1">
  <advance width="603"/>
  <unicode hex="0137"/>
  <outline>
    <contour>
      <point x="248" y="321" type="line"/>
      <point x="378" y="511" type="line"/>
      <point x="604" y="511" type="line"/>
      <point x="425" y="280" type="line"/>
      <point x="607" y="0" type="line"/>
      <point x="374" y="0" type="line"/>
      <point x="284" y="145" type="line"/>
      <point x="248" y="114" type="line"/>
      <point x="248" y="0" type="line"/>
      <point x="50" y="0" type="line"/>
      <point x="50" y="720" type="line"/>
      <point x="248" y="720" type="line"/>
    </contour>
    <contour>
      <point x="397" y="-139" type="line"/>
      <point x="369" y="-250" type="line"/>
      <point x="275" y="-250" type="line"/>
      <point x="291" y="-171" type="line"/>
      <point x="206" y="-171" type="line"/>
      <point x="206" y="-20" type="line"/>
      <point x="397" y="-20" type="line"/>
    </contour>
    <contour>
      <point x="302" y="0" type="move" name="Bottom"/>
    </contour>
  </outline>
</glyph>
<glyph name="Lacute" format="1">
  <advance width="544"/>
  <unicode hex="0139"/>
  <outline>
    <contour>
      <point x="444" y="892" type="line"/>
      <point x="318" y="750" type="line"/>
      <point x="200" y="750" type="line"/>
      <point x="291" y="895" type="line"/>
      <point x="442" y="895" type="line"/>
    </contour>
    <contour>
      <point x="269" y="168" type="line"/>
      <point x="518" y="168" type="line"/>
      <point x="538" y="0" type="line"/>
      <point x="57" y="0" type="line"/>
      <point x="57" y="686" type="line"/>
      <point x="269" y="686" type="line"/>
    </contour>
    <contour>
      <point x="272" y="0" type="move" name="Bottom"/>
    </contour>
  </outline>
</glyph>
<glyph name="lacute" format="1">
  <advance width="298"/>
  <unicode hex="013A"/>
  <outline>
    <contour>
      <point x="321" y="892" type="line"/>
      <point x="195" y="750" type="line"/>
      <point x="77" y="750" type="line"/>
      <point x="168" y="895" type="line"/>
      <point x="319" y="895" type="line"/>
    </contour>
    <contour>
      <point x="248" y="0" type="line"/>
      <point x="50" y="0" type="line"/>
      <point x="50" y="720" type="line"/>
      <point x="248" y="720" type="line"/>
    </contour>
    <contour>
      <point x="149" y="0" type="move" name="Bottom"/>
    </contour>
  </outline>
</glyph>
